<svg width="20" height="20" viewBox="0 0 20 20" fill="none" xmlns="http://www.w3.org/2000/svg">
<path d="M9.99999 0C10.4147 0 10.751 0.336218 10.751 0.750964V2.52567C10.751 2.94042 10.4147 3.27663 9.99999 3.27663C9.58524 3.27663 9.24902 2.94042 9.24902 2.52567V0.750964C9.24902 0.336218 9.58524 0 9.99999 0Z" fill="black"/>
<path d="M9.99999 16.7234C10.4147 16.7234 10.751 17.0596 10.751 17.4743V19.249C10.751 19.6638 10.4147 20 9.99999 20C9.58524 20 9.24902 19.6638 9.24902 19.249V17.4743C9.24902 17.0596 9.58524 16.7234 9.99999 16.7234Z" fill="black"/>
<path d="M5 10C5 7.23858 7.23858 5 10 5C10.4964 5 10.9759 5.07234 11.4286 5.20706C13.4939 5.82173 15 7.73498 15 10C15 12.265 13.4939 14.1783 11.4286 14.7929C10.9759 14.9277 10.4964 15 10 15C7.23858 15 5 12.7614 5 10Z" fill="black"/>
<path d="M2.52567 10.751C2.94042 10.751 3.27663 10.4147 3.27663 9.99999C3.27663 9.58524 2.94042 9.24902 2.52567 9.24902H0.750965C0.336219 9.24902 0 9.58524 0 9.99999C0 10.4147 0.336219 10.751 0.750965 10.751H2.52567Z" fill="black"/>
<path d="M19.249 10.751C19.6638 10.751 20 10.4147 20 9.99999C20 9.58524 19.6638 9.24902 19.249 9.24902H17.4743C17.0596 9.24902 16.7234 9.58524 16.7234 9.99999C16.7234 10.4147 17.0596 10.751 17.4743 10.751H19.249Z" fill="black"/>
<path d="M5.24583 5.24585C4.95256 5.53912 4.47708 5.53912 4.18381 5.24585L2.9289 3.99094C2.63563 3.69767 2.63563 3.22219 2.9289 2.92892C3.22217 2.63565 3.69766 2.63565 3.99093 2.92892L5.24583 4.18382C5.5391 4.47709 5.5391 4.95258 5.24583 5.24585Z" fill="black"/>
<path d="M17.071 17.0711C16.7778 17.3643 16.3023 17.3643 16.009 17.0711L14.7541 15.8161C14.4608 15.5229 14.4608 15.0474 14.7541 14.7541C15.0474 14.4609 15.5229 14.4609 15.8161 14.7541L17.071 16.009C17.3643 16.3023 17.3643 16.7778 17.071 17.0711Z" fill="black"/>
<path d="M14.7541 4.18381C14.4608 4.47708 14.4608 4.95256 14.7541 5.24583C15.0474 5.5391 15.5228 5.5391 15.8161 5.24583L17.071 3.99093C17.3643 3.69766 17.3643 3.22217 17.071 2.9289C16.7778 2.63563 16.3023 2.63563 16.009 2.9289L14.7541 4.18381Z" fill="black"/>
<path d="M2.92889 16.009C2.63562 16.3023 2.63562 16.7778 2.92889 17.071C3.22216 17.3643 3.69764 17.3643 3.99091 17.071L5.24582 15.8161C5.53909 15.5229 5.53909 15.0474 5.24582 14.7541C4.95255 14.4608 4.47706 14.4608 4.18379 14.7541L2.92889 16.009Z" fill="black"/>
</svg>
