<svg xmlns="http://www.w3.org/2000/svg" xmlns:xlink="http://www.w3.org/1999/xlink" x="0px" y="0px"
	 viewBox="0 0 549.5 332.9" xml:space="preserve">
<path d="M0.8,137V0.3h19.6V137H0.8z"/>
<path d="M37.3,137V39.7h19.6v9.4h0.4c2-3.1,4.5-5.6,7.3-7.5c2.9-2,6.7-3.1,11.1-3.1c4.2,0,7.7,1,10.6,3.1c2.8,2,5.1,4.3,6.9,6.7
	c2.4-2.7,5.1-5,8.1-6.9c2.9-1.9,7-2.9,12.3-2.9c2.4,0,4.9,0.4,7.5,1.3c2.6,0.8,4.9,2.1,6.9,4c2,1.9,3.7,4.4,5,7.5
	c1.3,2.9,1.9,6.6,1.9,10.9V137h-19.6V69.6c0-3.6-0.8-6.4-2.5-8.4s-4-3.1-7.1-3.1c-3.7,0-6.3,1.2-7.7,3.5c-1.4,2.3-2.1,5.6-2.1,10
	V137H76.2V69.6c0-3.6-0.8-6.4-2.5-8.4s-4-3.1-7.1-3.1c-3.7,0-6.3,1.2-7.7,3.5s-2.1,5.6-2.1,10V137H37.3z"/>
<path d="M149.9,176.4V39.7h19.6v8.8c2.4-2.8,4.9-5.2,7.5-7.1c2.6-1.9,6.3-2.9,11.1-2.9c8.1,0,13.8,3.1,17.1,9.2
	c1.2,2.2,2,4.9,2.5,8.1s0.8,7.5,0.8,12.9v37.1c0,7.2-0.2,12.4-0.6,15.6c-0.8,6.4-3.7,11.2-8.8,14.4c-2.6,1.7-6.3,2.5-11.1,2.5
	c-3.8,0-7.3-0.8-10.4-2.5c-2.9-1.8-5.5-4.3-7.7-7.5h-0.4v48.2h-19.6V176.4z M188.9,71.3c0-4-0.8-7.2-2.3-9.6s-4-3.6-7.3-3.6
	c-2.9,0-5.3,1.2-7.1,3.5c-1.8,2.2-2.7,5.1-2.7,8.6V108c0,3.1,0.9,5.6,2.7,7.7c1.9,1.9,4.3,2.9,7.1,2.9c3.7,0,6.2-1.2,7.5-3.5
	c1.4-2.3,2.1-5,2.1-8.1V71.3z"/>
<path d="M223.5,137V39.7h19.6V50c4-3.6,7.9-6.4,11.7-8.4s8.6-3.1,14.2-3.1v20.7c-1.9-0.8-3.9-1.2-6-1.2s-4.3,0.4-6.7,1.2
	c-2.3,0.6-4.4,1.8-6.3,3.5c-2,1.7-3.7,3.8-5,6.5s-1.9,6-1.9,10V137H223.5z"/>
<path d="M275.9,137V39.7h19.6V137H275.9z M275.9,19.9V0.3h19.6v19.6H275.9z"/>
<path d="M310.6,137V39.7h19.6v9.4h0.4c2-3.1,4.5-5.6,7.3-7.5c2.9-2,6.7-3.1,11.1-3.1c2.4,0,4.9,0.4,7.3,1.3c2.4,0.8,4.6,2.1,6.5,4
	s3.5,4.4,4.6,7.5c1.2,2.9,1.7,6.6,1.7,10.9V137h-19.6V69.6c0-3.6-0.8-6.4-2.5-8.4s-4-3.1-7.1-3.1c-3.7,0-6.3,1.2-7.7,3.5
	c-1.4,2.3-2.1,5.6-2.1,10V137H310.6z"/>
<path d="M384.2,39.7V10.1h19.6v29.6h12.1V55h-12.1v54c0,2.3,0.2,4.1,0.6,5.4c0.5,1.3,1.3,2.2,2.3,2.9c1,0.6,2.2,1,3.6,1.2
	c1.5,0.1,3.4,0.2,5.6,0.2V137h-8.1c-4.5,0-8.3-0.7-11.3-2.1c-2.9-1.4-5.3-3.2-7.1-5.4c-1.8-2.2-3.1-4.6-4-7.3
	c-0.8-2.8-1.2-5.5-1.2-8.1V55h-9.8V39.7H384.2z"/>
<path d="M60.7,293.5l-6.5-10.4c-3.8,3.8-7.8,6.7-11.9,8.6s-8.8,2.9-14.2,2.9c-3.8,0-7.5-0.8-10.9-2.3c-3.5-1.5-6.5-3.7-9-6.5
	c-2.6-2.7-4.6-6-6.1-9.8c-1.4-4-2.1-8.3-2.1-13.1c0-7.6,1.8-14.1,5.4-19.8c3.6-5.6,8.1-10.9,13.4-15.7c-3.5-4.9-6.3-9.9-8.6-15
	c-2.2-5.2-3.3-10.8-3.3-16.5c0-3.6,0.6-7,1.7-10.2c1.2-3.3,2.8-6.2,5-8.6c2.2-2.3,4.9-4.2,8.3-5.6c3.4-1.4,7.1-2,11.5-2
	c4.2,0,7.9,0.7,11.1,2.1c3.2,1.3,5.9,3,8.1,5.2c4.5,4.7,6.7,10.6,6.7,17.5c0,6.5-2,12.7-6,18.4c-4,5.8-8.6,11.1-14,15.9
	c1.3,1.8,2.6,3.8,3.8,6.1c1.4,2.3,2.9,4.7,4.6,7.3c3.2,5.5,6.4,10.6,9.6,15.2L68,242.9l12.1,8.4L65.5,270l14.8,23.4H60.7V293.5z
	 M17.1,262c0,4.7,1.3,8.8,4,12.3c2.8,3.3,6.3,5,10.6,5c2.9,0,5.8-0.9,8.4-2.7c2.7-1.9,4.7-3.8,6.1-5.6l-18.8-30
	c-2.9,2.9-5.4,6.1-7.5,9.6C18.1,254.1,17.1,257.9,17.1,262z M24,196.3c0,2.9,0.7,6.1,2.1,9.6c1.4,3.3,3.2,6.7,5.4,10.2
	c1.2-1.2,2.4-2.4,3.8-3.8c1.4-1.5,2.7-3.2,3.8-5c1.2-1.8,2.1-3.7,2.9-5.8c0.8-2.2,1.2-4.5,1.2-6.9c0-2.4-0.8-4.7-2.5-6.7
	s-4-3.1-6.9-3.1s-5.3,1.2-7.1,3.6C24.9,190.8,24,193.4,24,196.3z"/>
<path d="M127.1,332.9V196.2h19.6v8.8c2.4-2.8,4.9-5.2,7.5-7.1s6.3-2.9,11.1-2.9c8.1,0,13.8,3.1,17.1,9.2c1.2,2.2,2,4.9,2.5,8.1
	c0.5,3.2,0.8,7.5,0.8,12.9v37.1c0,7.2-0.2,12.4-0.6,15.6c-0.8,6.4-3.7,11.2-8.8,14.4c-2.6,1.7-6.3,2.5-11.1,2.5
	c-3.8,0-7.3-0.8-10.4-2.5c-2.9-1.8-5.5-4.3-7.7-7.5h-0.4V333h-19.6V332.9z M166,227.9c0-4-0.8-7.2-2.3-9.6c-1.5-2.4-4-3.6-7.3-3.6
	c-2.9,0-5.3,1.2-7.1,3.5c-1.8,2.2-2.7,5.1-2.7,8.6v37.8c0,3.1,0.9,5.6,2.7,7.7c1.9,1.9,4.3,2.9,7.1,2.9c3.7,0,6.2-1.2,7.5-3.5
	c1.4-2.3,2.1-5,2.1-8.1V227.9z"/>
<path d="M200.7,293.5v-97.3h19.6v10.3c4-3.6,7.9-6.4,11.7-8.4s8.6-3.1,14.2-3.1v20.7c-1.9-0.8-3.9-1.2-6-1.2c-2,0-4.3,0.4-6.7,1.2
	c-2.3,0.6-4.4,1.8-6.3,3.5c-2,1.7-3.7,3.8-5,6.5s-1.9,6-1.9,10v57.8H200.7z"/>
<path d="M253.1,293.5v-97.3h19.6v97.3H253.1z M253.1,176.4v-19.6h19.6v19.6H253.1z"/>
<path d="M347.5,196.2l-25.4,97.3h-17.3l-25.3-97.3h20.7l13.1,62.2h0.4l13.1-62.2C326.8,196.2,347.5,196.2,347.5,196.2z"/>
<path d="M390.2,293.5v-10h-0.4c-2.6,3.6-5.2,6.3-7.9,8.3c-2.6,1.9-6.2,2.9-10.9,2.9c-2.3,0-4.7-0.4-7.1-1.2
	c-2.3-0.6-4.5-1.9-6.7-3.8c-2.2-1.8-4-4.4-5.4-7.7c-1.3-3.5-1.9-7.9-1.9-13.2c0-5.5,0.4-10.3,1.3-14.4c0.9-4.2,2.6-7.7,5-10.6
	c2.3-2.7,5.4-4.7,9.4-6c4-1.4,9-2.1,15.2-2.1c0.6,0,1.3,0,2.1,0s1.5,0.1,2.1,0.2c0.6,0.1,1.4,0.2,2.3,0.2s1.9,0.1,2.9,0.2v-10.2
	c0-3.3-0.7-6.1-2.1-8.3c-1.4-2.2-4-3.3-7.7-3.3c-2.6,0-4.9,0.8-7.1,2.5c-2,1.7-3.4,4.1-4,7.3h-19c0.5-8.7,3.5-15.7,8.8-21.1
	c2.6-2.6,5.6-4.5,9.2-6c3.6-1.5,7.6-2.3,12.1-2.3c4.1,0,7.9,0.6,11.5,1.9s6.7,3.2,9.4,5.8c2.6,2.6,4.6,5.8,6.1,9.6s2.3,8.3,2.3,13.4
	v67.9H390.2z M390.2,251.6c-2.2-0.4-4-0.6-5.4-0.6c-4.2,0-7.9,1-10.9,3.1c-2.9,1.9-4.4,5.5-4.4,10.8c0,3.7,0.9,6.7,2.7,9
	c1.8,2.3,4.3,3.5,7.5,3.5c3.3,0,5.9-1.1,7.7-3.3c1.9-2.2,2.9-5.2,2.9-9.2L390.2,251.6L390.2,251.6z"/>
<path d="M443.9,265.5c0,3.1,0.8,5.4,2.5,7.1c1.8,1.7,4.2,2.5,7.1,2.5c3.7,0,6.1-1.1,7.3-3.3c1.3-2.2,2-4.4,2.3-6.5h19.6
	c0,8.6-2.6,15.5-7.9,20.7c-2.6,2.7-5.6,4.8-9.2,6.3c-3.6,1.5-7.6,2.3-12.1,2.3c-6.1,0-11.4-1.3-15.7-3.8c-4.2-2.6-7.5-6-9.8-10.2
	c-1.4-2.6-2.4-5.5-2.9-8.8c-0.5-3.3-0.8-7-0.8-10.9v-32.1c0-4,0.3-7.6,0.8-10.9s1.5-6.3,2.9-8.8c2.3-4.2,5.6-7.6,9.8-10.2
	c4.4-2.6,9.6-3.8,15.7-3.8c4.5,0,8.5,0.8,12.1,2.3c3.7,1.5,6.8,3.6,9.4,6.3c5.1,5.8,7.7,13.2,7.7,22.5h-19.6c0-4-0.9-6.8-2.7-8.6
	c-1.7-1.9-4-2.9-6.9-2.9s-5.3,1-7.1,2.9c-1.7,1.8-2.5,4.5-2.5,8.3L443.9,265.5L443.9,265.5z"/>
<path d="M481.6,196.2h20.7l13.4,60.7h0.4l13.2-60.7h20.2l-28,114.2c-1,4.4-2.5,7.9-4.4,10.8c-1.8,2.8-3.9,5.1-6.3,6.9
	c-2.4,1.8-5.1,3-7.9,3.6c-2.7,0.8-5.5,1.2-8.4,1.2h-5.4v-18.4h4.4c1.9,0,3.6-0.3,5-0.8s2.7-1.7,3.8-3.5c1-1.8,2-4.4,2.9-7.7
	c0.9-3.2,1.9-7.7,3.1-13.4L481.6,196.2z"/>
</svg>
