<svg version="1.1" xmlns="http://www.w3.org/2000/svg" xmlns:xlink="http://www.w3.org/1999/xlink" x="0px" y="0px"
	 viewBox="0 0 1199.8 177.2" xml:space="preserve">
<g id="thoughts">
	<path d="M22.7,136.7V18.4H0V0h64.9v18.4H42.2v118.3H22.7z M71.4,136.7V0H91v48.8h0.4c2-3.1,4.5-5.6,7.3-7.5c2.9-2,6.7-3.1,11.1-3.1
		c2.4,0,4.9,0.4,7.3,1.3c2.4,0.8,4.6,2.1,6.5,4s3.5,4.4,4.6,7.5c1.2,2.9,1.7,6.6,1.7,10.9v74.7h-19.6V69.3c0-3.6-0.8-6.4-2.5-8.4
		c-1.7-2-4-3.1-7.1-3.1c-3.7,0-6.3,1.2-7.7,3.5c-1.4,2.3-2.1,5.6-2.1,10v65.5H71.4z M143.3,72c0-4,0.3-7.6,0.8-10.9
		c0.5-3.3,1.5-6.3,2.9-8.8c2.3-4.2,5.6-7.6,9.8-10.2c4.4-2.6,9.6-3.8,15.7-3.8c6.1,0,11.3,1.3,15.6,3.8c4.4,2.6,7.7,6,10,10.2
		c1.4,2.6,2.4,5.5,2.9,8.8c0.5,3.3,0.8,7,0.8,10.9v32.1c0,4-0.3,7.6-0.8,10.9s-1.5,6.3-2.9,8.8c-2.3,4.2-5.6,7.6-10,10.2
		c-4.2,2.6-9.4,3.8-15.6,3.8c-6.1,0-11.4-1.3-15.7-3.8c-4.2-2.6-7.5-6-9.8-10.2c-1.4-2.6-2.4-5.5-2.9-8.8s-0.8-7-0.8-10.9V72z
		 M162.9,107.1c0,3.7,0.8,6.5,2.5,8.4c1.8,1.8,4.2,2.7,7.1,2.7s5.2-0.9,6.9-2.7c1.8-1.9,2.7-4.7,2.7-8.4V68.9c0-3.7-0.9-6.5-2.7-8.3
		c-1.7-1.9-4-2.9-6.9-2.9s-5.3,1-7.1,2.9c-1.7,1.8-2.5,4.5-2.5,8.3V107.1z M273.6,39.4v97.3h-19.6v-9.4h-0.4c-2,3.1-4.5,5.6-7.5,7.7
		c-2.8,1.9-6.5,2.9-10.9,2.9c-2.4,0-4.9-0.4-7.3-1.2c-2.4-0.9-4.6-2.3-6.5-4.2c-1.9-1.9-3.5-4.4-4.6-7.3c-1.2-3.1-1.7-6.8-1.7-11.1
		V39.4h19.6v67.4c0,3.6,0.8,6.4,2.5,8.4s4,3.1,7.1,3.1c3.7,0,6.3-1.2,7.7-3.5s2.1-5.6,2.1-10V39.4H273.6z M308.3,148
		c0.1,2.3,1,4.5,2.7,6.5c1.8,2,4.4,3.1,7.7,3.1c3.2,0,5.5-1,6.9-3.1c1.4-1.9,2.1-4.4,2.1-7.5v-19.2h-0.4c-2.2,3.2-4.8,5.7-7.9,7.5
		c-2.9,1.7-6.4,2.5-10.4,2.5c-8.2,0-13.9-3.1-17.1-9.2c-1.2-2.2-2-4.9-2.5-8.1c-0.5-3.2-0.8-7.5-0.8-12.9V70.7
		c0-7,0.2-12.2,0.6-15.6c0.8-6.4,3.8-11.2,9-14.4c2.4-1.7,6.1-2.5,10.9-2.5c2.4,0,4.5,0.3,6.1,0.8c1.8,0.5,3.4,1.2,4.8,2.1
		c1.4,0.9,2.7,2,3.8,3.3c1.2,1.2,2.4,2.4,3.6,3.8v-8.8h19.6v109.2c0,3.3-0.6,6.7-1.7,10c-1,3.5-2.8,6.5-5.2,9.2
		c-2.4,2.8-5.5,5.1-9.2,6.7c-3.7,1.8-8.1,2.7-13.2,2.7c-2.9,0-6-0.5-9.2-1.5c-3.2-0.9-6.1-2.5-8.8-4.8c-2.8-2.2-5.2-5.1-7.3-8.8
		c-1.9-3.6-3.2-8.3-3.8-14H308.3z M308.3,106.8c0,3.1,0.6,5.8,1.9,8.1c1.4,2.3,4,3.5,7.7,3.5c2.8,0,5.1-1,6.9-2.9
		c1.9-2,2.9-4.6,2.9-7.7V69.9c0-3.6-0.9-6.5-2.7-8.6c-1.8-2.3-4.2-3.5-7.1-3.5c-3.3,0-5.8,1.2-7.3,3.6c-1.5,2.4-2.3,5.6-2.3,9.6
		V106.8z M362.3,136.7V0h19.6v48.8h0.4c2-3.1,4.5-5.6,7.3-7.5c2.9-2,6.7-3.1,11.1-3.1c2.4,0,4.9,0.4,7.3,1.3c2.4,0.8,4.6,2.1,6.5,4
		c1.9,1.9,3.5,4.4,4.6,7.5c1.2,2.9,1.7,6.6,1.7,10.9v74.7h-19.6V69.3c0-3.6-0.8-6.4-2.5-8.4c-1.7-2-4-3.1-7.1-3.1
		c-3.7,0-6.3,1.2-7.7,3.5s-2.1,5.6-2.1,10v65.5H362.3z M436,39.4V9.8h19.6v29.6h12.1v15.4h-12.1v54c0,2.3,0.2,4.1,0.6,5.4
		c0.5,1.3,1.3,2.2,2.3,2.9s2.2,1,3.6,1.2c1.5,0.1,3.4,0.2,5.6,0.2v18.4h-8.1c-4.5,0-8.3-0.7-11.3-2.1c-2.9-1.4-5.3-3.2-7.1-5.4
		c-1.8-2.2-3.1-4.6-4-7.3c-0.8-2.8-1.2-5.5-1.2-8.1V54.7h-9.8V39.4H436z M509.7,66.6c-0.1-3.3-1.2-5.8-3.3-7.5
		c-1.9-1.7-4.2-2.5-6.7-2.5c-3.1,0-5.4,1-7.1,3.1c-1.7,1.9-2.5,4.2-2.5,6.7c0,1.8,0.4,3.6,1.3,5.4c0.9,1.7,3.2,3.2,6.9,4.6l11.5,4.6
		c7.3,2.8,12.3,6.7,15,11.5c2.8,4.9,4.2,10.2,4.2,15.9c0,4.1-0.8,7.9-2.3,11.5c-1.4,3.5-3.4,6.5-6,9.2c-2.6,2.7-5.6,4.8-9.2,6.3
		c-3.6,1.5-7.5,2.3-11.7,2.3c-7.9,0-14.6-2.5-20-7.5c-2.7-2.4-4.9-5.4-6.5-9c-1.7-3.7-2.6-8-2.7-12.9h18.4c0.4,2.7,1.3,5.2,2.7,7.5
		c1.5,2.3,4.2,3.5,7.9,3.5c2.8,0,5.3-0.9,7.5-2.7c2.3-1.9,3.5-4.5,3.5-7.9c0-2.7-0.7-5-2.1-6.9s-4-3.6-7.7-5l-9.4-3.5
		c-6.1-2.3-11-5.7-14.6-10.2c-3.5-4.6-5.2-10.2-5.2-16.7c0-4.1,0.8-7.9,2.3-11.3c1.5-3.6,3.6-6.7,6.3-9.2c2.6-2.6,5.6-4.5,9-5.8
		c3.5-1.4,7.2-2.1,11.1-2.1c4,0,7.6,0.7,10.9,2.1c3.5,1.4,6.4,3.4,8.8,6c2.4,2.6,4.4,5.6,5.8,9.2c1.4,3.5,2.1,7.2,2.1,11.1H509.7z"
		/>
</g>
<g id="and">
	<path d="M638,136.7l-6.5-10.4c-3.8,3.8-7.8,6.7-11.9,8.6c-4.1,1.9-8.8,2.9-14.2,2.9c-3.8,0-7.5-0.8-10.9-2.3s-6.5-3.7-9-6.5
		c-2.6-2.7-4.6-6-6.1-9.8c-1.4-4-2.1-8.3-2.1-13.1c0-7.6,1.8-14.1,5.4-19.8c3.6-5.6,8.1-10.9,13.4-15.7c-3.5-4.9-6.3-9.9-8.6-15
		c-2.2-5.2-3.3-10.8-3.3-16.5c0-3.6,0.6-7,1.7-10.2c1.2-3.3,2.8-6.2,5-8.6c2.2-2.3,4.9-4.2,8.3-5.6c3.3-1.4,7.2-2.1,11.7-2.1
		c4.2,0,7.9,0.7,11.1,2.1c3.2,1.3,5.9,3,8.1,5.2c4.5,4.7,6.7,10.6,6.7,17.5c0,6.5-2,12.7-6,18.4c-4,5.8-8.6,11.1-14,15.9
		c1.3,1.8,2.6,3.8,3.8,6.1c1.4,2.3,2.9,4.7,4.6,7.3c3.2,5.5,6.4,10.6,9.6,15.2L645.3,86l12.1,8.4l-14.6,18.8l14.8,23.4H638z
		 M594.4,105.2c0,4.7,1.3,8.8,4,12.3c2.8,3.3,6.3,5,10.6,5c2.9,0,5.8-0.9,8.4-2.7c2.7-1.9,4.7-3.8,6.1-5.6l-18.8-30
		c-2.9,2.9-5.4,6.1-7.5,9.6C595.4,97.2,594.4,101,594.4,105.2z M601.3,39.6c0,2.9,0.7,6.1,2.1,9.6c1.4,3.3,3.2,6.7,5.4,10.2
		c1.2-1.2,2.4-2.4,3.8-3.8c1.4-1.5,2.7-3.2,3.8-5c1.2-1.8,2.1-3.7,2.9-5.8c0.8-2.2,1.2-4.5,1.2-6.9c0-2.4-0.8-4.7-2.5-6.7
		c-1.7-2-4-3.1-6.9-3.1c-2.9,0-5.3,1.2-7.1,3.6C602.2,34,601.3,36.6,601.3,39.6z"/>
</g>
<g id="opinions">
	<path d="M712.9,72c0-4,0.3-7.6,0.8-10.9c0.5-3.3,1.5-6.3,2.9-8.8c2.3-4.2,5.6-7.6,9.8-10.2c4.4-2.6,9.6-3.8,15.7-3.8
		c6.1,0,11.3,1.3,15.6,3.8c4.4,2.6,7.7,6,10,10.2c1.4,2.6,2.4,5.5,2.9,8.8c0.5,3.3,0.8,7,0.8,10.9v32.1c0,4-0.3,7.6-0.8,10.9
		c-0.5,3.3-1.5,6.3-2.9,8.8c-2.3,4.2-5.6,7.6-10,10.2c-4.2,2.6-9.4,3.8-15.6,3.8c-6.1,0-11.4-1.3-15.7-3.8c-4.2-2.6-7.5-6-9.8-10.2
		c-1.4-2.6-2.4-5.5-2.9-8.8s-0.8-7-0.8-10.9V72z M732.5,107.1c0,3.7,0.8,6.5,2.5,8.4c1.8,1.8,4.2,2.7,7.1,2.7c2.9,0,5.2-0.9,6.9-2.7
		c1.8-1.9,2.7-4.7,2.7-8.4V68.9c0-3.7-0.9-6.5-2.7-8.3c-1.7-1.9-4-2.9-6.9-2.9c-2.9,0-5.3,1-7.1,2.9c-1.7,1.8-2.5,4.5-2.5,8.3V107.1
		z M784.7,176.1V39.4h19.6v8.8c2.4-2.8,4.9-5.2,7.5-7.1s6.3-2.9,11.1-2.9c8.1,0,13.8,3.1,17.1,9.2c1.2,2.2,2,4.9,2.5,8.1
		s0.8,7.5,0.8,12.9v37.1c0,7.2-0.2,12.4-0.6,15.6c-0.8,6.4-3.7,11.2-8.8,14.4c-2.6,1.7-6.3,2.5-11.1,2.5c-3.8,0-7.3-0.8-10.4-2.5
		c-2.9-1.8-5.5-4.3-7.7-7.5h-0.4v48.2H784.7z M823.7,71c0-4-0.8-7.2-2.3-9.6c-1.5-2.4-4-3.6-7.3-3.6c-2.9,0-5.3,1.2-7.1,3.5
		c-1.8,2.2-2.7,5.1-2.7,8.6v37.8c0,3.1,0.9,5.6,2.7,7.7c1.9,1.9,4.3,2.9,7.1,2.9c3.7,0,6.2-1.2,7.5-3.5c1.4-2.3,2.1-5,2.1-8.1V71z
		 M858.3,136.7V39.4h19.6v97.3H858.3z M858.3,19.6V0h19.6v19.6H858.3z M893,136.7V39.4h19.6v9.4h0.4c2-3.1,4.5-5.6,7.3-7.5
		c2.9-2,6.7-3.1,11.1-3.1c2.4,0,4.9,0.4,7.3,1.3c2.4,0.8,4.6,2.1,6.5,4c1.9,1.9,3.5,4.4,4.6,7.5c1.2,2.9,1.7,6.6,1.7,10.9v74.7
		h-19.6V69.3c0-3.6-0.8-6.4-2.5-8.4c-1.7-2-4-3.1-7.1-3.1c-3.7,0-6.3,1.2-7.7,3.5c-1.4,2.3-2.1,5.6-2.1,10v65.5H893z M966.6,136.7
		V39.4h19.6v97.3H966.6z M966.6,19.6V0h19.6v19.6H966.6z M999.5,72c0-4,0.2-7.6,0.8-10.9c0.5-3.3,1.5-6.3,2.9-8.8
		c2.3-4.2,5.6-7.6,9.8-10.2c4.3-2.6,9.6-3.8,15.7-3.8c6.2,0,11.3,1.3,15.6,3.8c4.4,2.6,7.7,6,10,10.2c1.4,2.6,2.4,5.5,2.9,8.8
		c0.5,3.3,0.8,7,0.8,10.9v32.1c0,4-0.3,7.6-0.8,10.9s-1.5,6.3-2.9,8.8c-2.3,4.2-5.6,7.6-10,10.2c-4.2,2.6-9.4,3.8-15.6,3.8
		c-6.1,0-11.4-1.3-15.7-3.8c-4.2-2.6-7.5-6-9.8-10.2c-1.4-2.6-2.4-5.5-2.9-8.8c-0.5-3.3-0.8-7-0.8-10.9V72z M1019.1,107.1
		c0,3.7,0.8,6.5,2.5,8.4c1.8,1.8,4.2,2.7,7.1,2.7c3,0,5.2-0.9,6.9-2.7c1.8-1.9,2.7-4.7,2.7-8.4V68.9c0-3.7-0.9-6.5-2.7-8.3
		c-1.7-1.9-4-2.9-6.9-2.9c-2.9,0-5.3,1-7.1,2.9c-1.7,1.8-2.5,4.5-2.5,8.3V107.1z M1071.3,136.7V39.4h19.6v9.4h0.4
		c2-3.1,4.5-5.6,7.3-7.5c3-2,6.7-3.1,11.1-3.1c2.4,0,4.9,0.4,7.3,1.3c2.4,0.8,4.6,2.1,6.5,4c1.9,1.9,3.5,4.4,4.6,7.5
		c1.2,2.9,1.7,6.6,1.7,10.9v74.7h-19.6V69.3c0-3.6-0.8-6.4-2.5-8.4c-1.7-2-4-3.1-7.1-3.1c-3.7,0-6.3,1.2-7.7,3.5
		c-1.4,2.3-2.1,5.6-2.1,10v65.5H1071.3z M1180.4,66.6c-0.1-3.3-1.2-5.8-3.3-7.5c-1.9-1.7-4.2-2.5-6.7-2.5c-3.1,0-5.4,1-7.1,3.1
		c-1.7,1.9-2.5,4.2-2.5,6.7c0,1.8,0.4,3.6,1.3,5.4c0.9,1.7,3.2,3.2,6.9,4.6l11.5,4.6c7.3,2.8,12.3,6.7,15,11.5
		c2.8,4.9,4.2,10.2,4.2,15.9c0,4.1-0.8,7.9-2.3,11.5c-1.4,3.5-3.4,6.5-6,9.2c-2.6,2.7-5.6,4.8-9.2,6.3c-3.6,1.5-7.5,2.3-11.7,2.3
		c-7.9,0-14.6-2.5-20-7.5c-2.7-2.4-4.9-5.4-6.5-9c-1.7-3.7-2.6-8-2.7-12.9h18.4c0.4,2.7,1.3,5.2,2.7,7.5c1.5,2.3,4.2,3.5,7.9,3.5
		c2.8,0,5.3-0.9,7.5-2.7c2.3-1.9,3.5-4.5,3.5-7.9c0-2.7-0.7-5-2.1-6.9c-1.4-1.9-4-3.6-7.7-5l-9.4-3.5c-6.1-2.3-11-5.7-14.6-10.2
		c-3.4-4.6-5.2-10.2-5.2-16.7c0-4.1,0.8-7.9,2.3-11.3c1.5-3.6,3.7-6.7,6.3-9.2c2.6-2.6,5.6-4.5,9-5.8c3.5-1.4,7.2-2.1,11.1-2.1
		s7.6,0.7,10.9,2.1c3.5,1.4,6.4,3.4,8.8,6c2.4,2.6,4.4,5.6,5.8,9.2c1.4,3.5,2.1,7.2,2.1,11.1H1180.4z"/>
</g>
</svg>
