<svg version="1.1" id="Layer_1" xmlns="http://www.w3.org/2000/svg" xmlns:xlink="http://www.w3.org/1999/xlink" x="0px" y="0px"
	 viewBox="0 0 599.5 362.4" xml:space="preserve" aria-labelledby="toughtsAndOpinions">
<path d="M22.7,136.7V18.4H0V0h64.9v18.4H42.2v118.3H22.7z M71.4,136.7V0H91v48.8h0.4c2-3.1,4.5-5.6,7.3-7.5c2.9-2,6.7-3.1,11.1-3.1
	c2.4,0,4.9,0.4,7.3,1.3c2.4,0.8,4.6,2.1,6.5,4s3.5,4.4,4.6,7.5c1.2,2.9,1.7,6.6,1.7,10.9v74.7h-19.6V69.3c0-3.6-0.8-6.4-2.5-8.4
	s-4-3.1-7.1-3.1c-3.7,0-6.3,1.2-7.7,3.5c-1.4,2.3-2.1,5.6-2.1,10v65.5H71.4V136.7z M143.3,72c0-4,0.3-7.6,0.8-10.9
	c0.5-3.3,1.5-6.3,2.9-8.8c2.3-4.2,5.6-7.6,9.8-10.2c4.4-2.6,9.6-3.8,15.7-3.8c6.1,0,11.3,1.3,15.6,3.8c4.4,2.6,7.7,6,10,10.2
	c1.4,2.6,2.4,5.5,2.9,8.8c0.5,3.3,0.8,7,0.8,10.9v32.1c0,4-0.3,7.6-0.8,10.9s-1.5,6.3-2.9,8.8c-2.3,4.2-5.6,7.6-10,10.2
	c-4.2,2.6-9.4,3.8-15.6,3.8c-6.1,0-11.4-1.3-15.7-3.8c-4.2-2.6-7.5-6-9.8-10.2c-1.4-2.6-2.4-5.5-2.9-8.8s-0.8-7-0.8-10.9V72z
	 M162.9,107.1c0,3.7,0.8,6.5,2.5,8.4c1.8,1.8,4.2,2.7,7.1,2.7s5.2-0.9,6.9-2.7c1.8-1.9,2.7-4.7,2.7-8.4V68.9c0-3.7-0.9-6.5-2.7-8.3
	c-1.7-1.9-4-2.9-6.9-2.9s-5.3,1-7.1,2.9c-1.7,1.8-2.5,4.5-2.5,8.3V107.1z M273.6,39.4v97.3H254v-9.4h-0.4c-2,3.1-4.5,5.6-7.5,7.7
	c-2.8,1.9-6.5,2.9-10.9,2.9c-2.4,0-4.9-0.4-7.3-1.2c-2.4-0.9-4.6-2.3-6.5-4.2s-3.5-4.4-4.6-7.3c-1.2-3.1-1.7-6.8-1.7-11.1V39.4h19.6
	v67.4c0,3.6,0.8,6.4,2.5,8.4s4,3.1,7.1,3.1c3.7,0,6.3-1.2,7.7-3.5s2.1-5.6,2.1-10V39.4H273.6z M308.3,148c0.1,2.3,1,4.5,2.7,6.5
	c1.8,2,4.4,3.1,7.7,3.1c3.2,0,5.5-1,6.9-3.1c1.4-1.9,2.1-4.4,2.1-7.5v-19.2h-0.4c-2.2,3.2-4.8,5.7-7.9,7.5
	c-2.9,1.7-6.4,2.5-10.4,2.5c-8.2,0-13.9-3.1-17.1-9.2c-1.2-2.2-2-4.9-2.5-8.1s-0.8-7.5-0.8-12.9V70.7c0-7,0.2-12.2,0.6-15.6
	c0.8-6.4,3.8-11.2,9-14.4c2.4-1.7,6.1-2.5,10.9-2.5c2.4,0,4.5,0.3,6.1,0.8c1.8,0.5,3.4,1.2,4.8,2.1c1.4,0.9,2.7,2,3.8,3.3
	c1.2,1.2,2.4,2.4,3.6,3.8v-8.8H347v109.2c0,3.3-0.6,6.7-1.7,10c-1,3.5-2.8,6.5-5.2,9.2c-2.4,2.8-5.5,5.1-9.2,6.7
	c-3.7,1.8-8.1,2.7-13.2,2.7c-2.9,0-6-0.5-9.2-1.5c-3.2-0.9-6.1-2.5-8.8-4.8c-2.8-2.2-5.2-5.1-7.3-8.8c-1.9-3.6-3.2-8.3-3.8-14
	L308.3,148L308.3,148z M308.3,106.8c0,3.1,0.6,5.8,1.9,8.1c1.4,2.3,4,3.5,7.7,3.5c2.8,0,5.1-1,6.9-2.9c1.9-2,2.9-4.6,2.9-7.7V69.9
	c0-3.6-0.9-6.5-2.7-8.6c-1.8-2.3-4.2-3.5-7.1-3.5c-3.3,0-5.8,1.2-7.3,3.6c-1.5,2.4-2.3,5.6-2.3,9.6V106.8z M362.3,136.7V0h19.6v48.8
	h0.4c2-3.1,4.5-5.6,7.3-7.5c2.9-2,6.7-3.1,11.1-3.1c2.4,0,4.9,0.4,7.3,1.3c2.4,0.8,4.6,2.1,6.5,4s3.5,4.4,4.6,7.5
	c1.2,2.9,1.7,6.6,1.7,10.9v74.7h-19.6V69.3c0-3.6-0.8-6.4-2.5-8.4s-4-3.1-7.1-3.1c-3.7,0-6.3,1.2-7.7,3.5s-2.1,5.6-2.1,10v65.5
	h-19.5V136.7z M436,39.4V9.8h19.6v29.6h12.1v15.4h-12.1v54c0,2.3,0.2,4.1,0.6,5.4c0.5,1.3,1.3,2.2,2.3,2.9s2.2,1,3.6,1.2
	c1.5,0.1,3.4,0.2,5.6,0.2v18.4h-8.1c-4.5,0-8.3-0.7-11.3-2.1c-2.9-1.4-5.3-3.2-7.1-5.4c-1.8-2.2-3.1-4.6-4-7.3
	c-0.8-2.8-1.2-5.5-1.2-8.1V54.7h-9.8V39.4H436z M509.7,66.6c-0.1-3.3-1.2-5.8-3.3-7.5c-1.9-1.7-4.2-2.5-6.7-2.5
	c-3.1,0-5.4,1-7.1,3.1c-1.7,1.9-2.5,4.2-2.5,6.7c0,1.8,0.4,3.6,1.3,5.4c0.9,1.7,3.2,3.2,6.9,4.6l11.5,4.6c7.3,2.8,12.3,6.7,15,11.5
	c2.8,4.9,4.2,10.2,4.2,15.9c0,4.1-0.8,7.9-2.3,11.5c-1.4,3.5-3.4,6.5-6,9.2s-5.6,4.8-9.2,6.3c-3.6,1.5-7.5,2.3-11.7,2.3
	c-7.9,0-14.6-2.5-20-7.5c-2.7-2.4-4.9-5.4-6.5-9c-1.7-3.7-2.6-8-2.7-12.9H489c0.4,2.7,1.3,5.2,2.7,7.5c1.5,2.3,4.2,3.5,7.9,3.5
	c2.8,0,5.3-0.9,7.5-2.7c2.3-1.9,3.5-4.5,3.5-7.9c0-2.7-0.7-5-2.1-6.9s-4-3.6-7.7-5l-9.4-3.5c-6.1-2.3-11-5.7-14.6-10.2
	c-3.5-4.6-5.2-10.2-5.2-16.7c0-4.1,0.8-7.9,2.3-11.3c1.5-3.6,3.6-6.7,6.3-9.2c2.6-2.6,5.6-4.5,9-5.8c3.5-1.4,7.2-2.1,11.1-2.1
	c4,0,7.6,0.7,10.9,2.1c3.5,1.4,6.4,3.4,8.8,6s4.4,5.6,5.8,9.2c1.4,3.5,2.1,7.2,2.1,11.1h-18.2V66.6z"/>
<path d="M60.7,322.9l-6.5-10.4c-3.8,3.8-7.8,6.7-11.9,8.6c-4.1,1.9-8.8,2.9-14.2,2.9c-3.8,0-7.5-0.8-10.9-2.3s-6.5-3.7-9-6.5
	c-2.6-2.7-4.6-6-6.1-9.8c-1.4-4-2.1-8.3-2.1-13.1c0-7.6,1.8-14.1,5.4-19.8c3.6-5.6,8.1-10.9,13.4-15.7c-3.5-4.9-6.3-9.9-8.6-15
	C8,236.6,6.9,231,6.9,225.3c0-3.6,0.6-7,1.7-10.2c1.2-3.3,2.8-6.2,5-8.6c2.2-2.3,4.9-4.2,8.3-5.6c3.3-1.4,7.2-2.1,11.7-2.1
	c4.2,0,7.9,0.7,11.1,2.1c3.2,1.3,5.9,3,8.1,5.2c4.5,4.7,6.7,10.6,6.7,17.5c0,6.5-2,12.7-6,18.4c-4,5.8-8.6,11.1-14,15.9
	c1.3,1.8,2.6,3.8,3.8,6.1c1.4,2.3,2.9,4.7,4.6,7.3c3.2,5.5,6.4,10.6,9.6,15.2L68,272.2l12.1,8.4l-14.6,18.8l14.8,23.4H60.7V322.9z
	 M17.1,291.4c0,4.7,1.3,8.8,4,12.3c2.8,3.3,6.3,5,10.6,5c2.9,0,5.8-0.9,8.4-2.7c2.7-1.9,4.7-3.8,6.1-5.6l-18.8-30
	c-2.9,2.9-5.4,6.1-7.5,9.6C18.1,283.4,17.1,287.2,17.1,291.4z M24,225.8c0,2.9,0.7,6.1,2.1,9.6c1.4,3.3,3.2,6.7,5.4,10.2
	c1.2-1.2,2.4-2.4,3.8-3.8c1.4-1.5,2.7-3.2,3.8-5c1.2-1.8,2.1-3.7,2.9-5.8c0.8-2.2,1.2-4.5,1.2-6.9c0-2.4-0.8-4.7-2.5-6.7
	s-4-3.1-6.9-3.1s-5.3,1.2-7.1,3.6C24.9,220.2,24,222.8,24,225.8z"/>
<path d="M112.7,258.2c0-4,0.3-7.6,0.8-10.9c0.5-3.3,1.5-6.3,2.9-8.8c2.3-4.2,5.6-7.6,9.8-10.2c4.4-2.6,9.6-3.8,15.7-3.8
	c6.1,0,11.3,1.3,15.6,3.8c4.4,2.6,7.7,6,10,10.2c1.4,2.6,2.4,5.5,2.9,8.8c0.5,3.3,0.8,7,0.8,10.9v32.1c0,4-0.3,7.6-0.8,10.9
	c-0.5,3.3-1.5,6.3-2.9,8.8c-2.3,4.2-5.6,7.6-10,10.2c-4.2,2.6-9.4,3.8-15.6,3.8c-6.1,0-11.4-1.3-15.7-3.8c-4.2-2.6-7.5-6-9.8-10.2
	c-1.4-2.6-2.4-5.5-2.9-8.8c-0.5-3.3-0.8-7-0.8-10.9V258.2z M132.3,293.3c0,3.7,0.8,6.5,2.5,8.4c1.8,1.8,4.2,2.7,7.1,2.7
	c2.9,0,5.2-0.9,6.9-2.7c1.8-1.9,2.7-4.7,2.7-8.4v-38.2c0-3.7-0.9-6.5-2.7-8.3c-1.7-1.9-4-2.9-6.9-2.9s-5.3,1-7.1,2.9
	c-1.7,1.8-2.5,4.5-2.5,8.3V293.3z M184.5,362.3V225.6h19.6v8.8c2.4-2.8,4.9-5.2,7.5-7.1c2.6-1.9,6.3-2.9,11.1-2.9
	c8.1,0,13.8,3.1,17.1,9.2c1.2,2.2,2,4.9,2.5,8.1s0.8,7.5,0.8,12.9v37.1c0,7.2-0.2,12.4-0.6,15.6c-0.8,6.4-3.7,11.2-8.8,14.4
	c-2.6,1.7-6.3,2.5-11.1,2.5c-3.8,0-7.3-0.8-10.4-2.5c-2.9-1.8-5.5-4.3-7.7-7.5h-0.4v48.2h-19.6V362.3z M223.5,257.2
	c0-4-0.8-7.2-2.3-9.6c-1.5-2.4-4-3.6-7.3-3.6c-2.9,0-5.3,1.2-7.1,3.5c-1.8,2.2-2.7,5.1-2.7,8.6v37.8c0,3.1,0.9,5.6,2.7,7.7
	c1.9,1.9,4.3,2.9,7.1,2.9c3.7,0,6.2-1.2,7.5-3.5c1.4-2.3,2.1-5,2.1-8.1V257.2z M258.1,322.9v-97.3h19.6v97.3L258.1,322.9
	L258.1,322.9z M258.1,205.8v-19.6h19.6v19.6H258.1z M292.8,322.9v-97.3h19.6v9.4h0.4c2-3.1,4.5-5.6,7.3-7.5c2.9-2,6.7-3.1,11.1-3.1
	c2.4,0,4.9,0.4,7.3,1.3c2.4,0.8,4.6,2.1,6.5,4c1.9,1.9,3.5,4.4,4.6,7.5c1.2,2.9,1.7,6.6,1.7,10.9v74.7h-19.6v-67.3
	c0-3.6-0.8-6.4-2.5-8.4s-4-3.1-7.1-3.1c-3.7,0-6.3,1.2-7.7,3.5s-2.1,5.6-2.1,10V323h-19.5V322.9z M366.4,322.9v-97.3H386v97.3
	L366.4,322.9L366.4,322.9z M366.4,205.8v-19.6H386v19.6H366.4z M399.3,258.2c0-4,0.2-7.6,0.8-10.9c0.5-3.3,1.5-6.3,2.9-8.8
	c2.3-4.2,5.6-7.6,9.8-10.2c4.3-2.6,9.6-3.8,15.7-3.8c6.2,0,11.3,1.3,15.6,3.8c4.4,2.6,7.7,6,10,10.2c1.4,2.6,2.4,5.5,2.9,8.8
	c0.5,3.3,0.8,7,0.8,10.9v32.1c0,4-0.3,7.6-0.8,10.9c-0.5,3.3-1.5,6.3-2.9,8.8c-2.3,4.2-5.6,7.6-10,10.2c-4.2,2.6-9.4,3.8-15.6,3.8
	c-6.1,0-11.4-1.3-15.7-3.8c-4.2-2.6-7.5-6-9.8-10.2c-1.4-2.6-2.4-5.5-2.9-8.8c-0.5-3.3-0.8-7-0.8-10.9L399.3,258.2L399.3,258.2z
	 M418.9,293.3c0,3.7,0.8,6.5,2.5,8.4c1.8,1.8,4.2,2.7,7.1,2.7c3,0,5.2-0.9,6.9-2.7c1.8-1.9,2.7-4.7,2.7-8.4v-38.2
	c0-3.7-0.9-6.5-2.7-8.3c-1.7-1.9-4-2.9-6.9-2.9s-5.3,1-7.1,2.9c-1.7,1.8-2.5,4.5-2.5,8.3V293.3z M471.1,322.9v-97.3h19.6v9.4h0.4
	c2-3.1,4.5-5.6,7.3-7.5c3-2,6.7-3.1,11.1-3.1c2.4,0,4.9,0.4,7.3,1.3c2.4,0.8,4.6,2.1,6.5,4c1.9,1.9,3.5,4.4,4.6,7.5
	c1.2,2.9,1.7,6.6,1.7,10.9v74.7H510v-67.3c0-3.6-0.8-6.4-2.5-8.4s-4-3.1-7.1-3.1c-3.7,0-6.3,1.2-7.7,3.5c-1.4,2.3-2.1,5.6-2.1,10
	V323h-19.5V322.9z M580.2,252.8c-0.1-3.3-1.2-5.8-3.3-7.5c-1.9-1.7-4.2-2.5-6.7-2.5c-3.1,0-5.4,1-7.1,3.1c-1.7,1.9-2.5,4.2-2.5,6.7
	c0,1.8,0.4,3.6,1.3,5.4c0.9,1.7,3.2,3.2,6.9,4.6l11.5,4.6c7.3,2.8,12.3,6.7,15,11.5c2.8,4.9,4.2,10.2,4.2,15.9
	c0,4.1-0.8,7.9-2.3,11.5c-1.4,3.5-3.4,6.5-6,9.2s-5.6,4.8-9.2,6.3s-7.5,2.3-11.7,2.3c-7.9,0-14.6-2.5-20-7.5c-2.7-2.4-4.9-5.4-6.5-9
	c-1.7-3.7-2.6-8-2.7-12.9h18.4c0.4,2.7,1.3,5.2,2.7,7.5c1.5,2.3,4.2,3.5,7.9,3.5c2.8,0,5.3-0.9,7.5-2.7c2.3-1.9,3.5-4.5,3.5-7.9
	c0-2.7-0.7-5-2.1-6.9c-1.4-1.9-4-3.6-7.7-5l-9.4-3.5c-6.1-2.3-11-5.7-14.6-10.2c-3.4-4.6-5.2-10.2-5.2-16.7c0-4.1,0.8-7.9,2.3-11.3
	c1.5-3.6,3.7-6.7,6.3-9.2c2.6-2.6,5.6-4.5,9-5.8c3.5-1.4,7.2-2.1,11.1-2.1s7.6,0.7,10.9,2.1c3.5,1.4,6.4,3.4,8.8,6
	c2.4,2.6,4.4,5.6,5.8,9.2c1.4,3.5,2.1,7.2,2.1,11.1h-18.2V252.8z"/>
</svg>
