<svg width="1053" height="178" viewBox="0 0 1053 178" xmlns="http://www.w3.org/2000/svg">
  <path d="M387.564 33.552C387.564 28.048 388.524 23.1841 390.444 18.9601C392.364 14.736 394.924 11.216 398.124 8.40005C401.196 5.71205 404.652 3.66405 408.492 2.25605C412.46 0.848045 416.428 0.144043 420.396 0.144043C424.364 0.144043 428.268 0.848045 432.108 2.25605C436.076 3.66405 439.66 5.71205 442.86 8.40005C445.932 11.216 448.428 14.736 450.348 18.9601C452.268 23.1841 453.228 28.048 453.228 33.552V105.744C453.228 111.504 452.268 116.432 450.348 120.528C448.428 124.624 445.932 128.016 442.86 130.704C439.66 133.52 436.076 135.632 432.108 137.04C428.268 138.448 424.364 139.152 420.396 139.152C416.428 139.152 412.46 138.448 408.492 137.04C404.652 135.632 401.196 133.52 398.124 130.704C394.924 128.016 392.364 124.624 390.444 120.528C388.524 116.432 387.564 111.504 387.564 105.744V33.552ZM407.148 105.744C407.148 110.48 408.428 114 410.988 116.304C413.676 118.48 416.812 119.568 420.396 119.568C423.98 119.568 427.052 118.48 429.612 116.304C432.3 114 433.644 110.48 433.644 105.744V33.552C433.644 28.816 432.3 25.36 429.612 23.184C427.052 20.88 423.98 19.728 420.396 19.728C416.812 19.728 413.676 20.88 410.988 23.184C408.428 25.36 407.148 28.816 407.148 33.552V105.744ZM468.314 40.6559V177.36H487.898V129.168H488.282C490.458 132.368 493.018 134.864 495.962 136.656C499.034 138.32 502.49 139.152 506.33 139.152C511.194 139.152 514.906 138.32 517.466 136.656C522.586 133.456 525.53 128.656 526.298 122.256C526.682 119.056 526.875 113.872 526.875 106.704V69.6479C526.875 64.2719 526.618 59.9839 526.106 56.7839C525.594 53.5839 524.762 50.8959 523.61 48.7199C520.282 42.5759 514.586 39.5039 506.522 39.5039C501.658 39.5039 497.946 40.4639 495.386 42.3839C492.826 44.3039 490.33 46.6719 487.898 49.4879V40.6559H468.314ZM504.986 62.7359C506.522 65.1679 507.29 68.3679 507.29 72.3359V108.048C507.29 111.12 506.586 113.808 505.178 116.112C503.898 118.416 501.402 119.568 497.69 119.568C494.874 119.568 492.506 118.608 490.586 116.688C488.794 114.64 487.898 112.08 487.898 109.008V71.1839C487.898 67.5999 488.794 64.7199 490.586 62.5439C492.378 60.2399 494.746 59.0879 497.69 59.0879C501.018 59.0879 503.45 60.3039 504.986 62.7359ZM561.523 177.36H541.939V40.6559H561.523V49.4879C563.955 46.6719 566.451 44.3039 569.011 42.3839C571.571 40.4639 575.283 39.5039 580.147 39.5039C588.211 39.5039 593.907 42.5759 597.235 48.7199C598.387 50.8959 599.219 53.5839 599.731 56.7839C600.243 59.9839 600.499 64.2719 600.499 69.6479V106.704C600.499 113.872 600.307 119.056 599.923 122.256C599.155 128.656 596.211 133.456 591.091 136.656C588.531 138.32 584.819 139.152 579.955 139.152C576.115 139.152 572.659 138.32 569.587 136.656C566.643 134.864 564.083 132.368 561.907 129.168H561.523V177.36ZM580.915 72.3359C580.915 68.3679 580.147 65.1679 578.611 62.7359C577.075 60.3039 574.643 59.0879 571.315 59.0879C568.371 59.0879 566.003 60.2399 564.211 62.5439C562.419 64.7199 561.523 67.5999 561.523 71.1839V109.008C561.523 112.08 562.419 114.64 564.211 116.688C566.131 118.608 568.499 119.568 571.315 119.568C575.027 119.568 577.523 118.416 578.803 116.112C580.211 113.808 580.915 111.12 580.915 108.048V72.3359ZM633.42 96.7199H672.204V69.8399C672.204 61.1359 669.644 53.9039 664.524 48.1439C661.964 45.4559 658.828 43.3439 655.116 41.8079C651.532 40.2719 647.5 39.5039 643.02 39.5039C636.876 39.5039 631.628 40.7839 627.276 43.3439C623.052 45.9039 619.788 49.2959 617.484 53.5199C616.076 56.0799 615.116 59.0239 614.604 62.3519C614.092 65.6799 613.836 69.3279 613.836 73.2959V105.36C613.836 109.328 614.092 112.976 614.604 116.304C615.116 119.632 616.076 122.576 617.484 125.136C619.788 129.36 623.052 132.752 627.276 135.312C631.628 137.872 636.876 139.152 643.02 139.152C647.5 139.152 651.532 138.384 655.116 136.848C658.7 135.312 661.772 133.2 664.332 130.512C669.58 125.264 672.204 118.352 672.204 109.776H652.62C652.364 111.952 651.596 114.128 650.316 116.304C649.164 118.48 646.732 119.568 643.02 119.568C640.076 119.568 637.708 118.736 635.916 117.072C634.252 115.408 633.42 113.04 633.42 109.968V96.7199ZM652.62 81.3599H633.42V70.2239C633.42 66.5119 634.252 63.7599 635.916 61.9679C637.708 60.0479 640.076 59.0879 643.02 59.0879C645.964 59.0879 648.268 60.0479 649.932 61.9679C651.724 63.7599 652.62 66.5119 652.62 70.2239V81.3599ZM685.627 138V40.6559H705.211V51.0239C709.179 47.4399 713.083 44.6239 716.923 42.5759C720.763 40.5279 725.499 39.5039 731.131 39.5039V60.2399C729.211 59.4719 727.227 59.0879 725.179 59.0879C723.131 59.0879 720.891 59.4719 718.459 60.2399C716.155 60.8799 714.043 62.0319 712.123 63.6959C710.075 65.3599 708.411 67.5359 707.131 70.2239C705.851 72.9119 705.211 76.2399 705.211 80.2079V138H685.627ZM738.064 40.6559V138H757.648V72.5279C757.648 68.1759 758.352 64.8479 759.76 62.5439C761.168 60.2399 763.728 59.0879 767.44 59.0879C770.512 59.0879 772.88 60.1119 774.544 62.1599C776.208 64.2079 777.04 67.0239 777.04 70.6079V138H796.624V72.5279C796.624 68.1759 797.328 64.8479 798.736 62.5439C800.144 60.2399 802.704 59.0879 806.416 59.0879C809.488 59.0879 811.856 60.1119 813.52 62.1599C815.184 64.2079 816.016 67.0239 816.016 70.6079V138H835.6V63.3119C835.6 58.9599 834.96 55.3119 833.68 52.3679C832.4 49.2959 830.736 46.7999 828.688 44.8799C826.64 42.9599 824.336 41.6159 821.776 40.8479C819.216 39.9519 816.72 39.5039 814.288 39.5039C809.04 39.5039 804.944 40.4639 802 42.3839C799.056 44.3039 796.368 46.6079 793.936 49.2959C792.144 46.8639 789.84 44.6239 787.024 42.5759C784.208 40.5279 780.688 39.5039 776.464 39.5039C771.984 39.5039 768.272 40.5279 765.328 42.5759C762.512 44.4959 760.08 46.9919 758.032 50.0639H757.648V40.6559H738.064ZM887.745 138V128.016H887.361C884.801 131.6 882.177 134.352 879.489 136.272C876.929 138.192 873.281 139.152 868.545 139.152C866.241 139.152 863.873 138.768 861.441 138C859.137 137.36 856.897 136.08 854.721 134.16C852.545 132.368 850.753 129.808 849.345 126.48C848.065 123.024 847.425 118.608 847.425 113.232C847.425 107.728 847.873 102.928 848.769 98.8319C849.665 94.6079 851.329 91.0879 853.761 88.2719C856.065 85.5839 859.201 83.5999 863.169 82.3199C867.137 80.9119 872.193 80.2079 878.337 80.2079H880.449C881.217 80.2079 881.921 80.2719 882.561 80.3999C883.201 80.5279 883.969 80.5919 884.865 80.5919C885.761 80.5919 886.721 80.6559 887.745 80.7839V70.6079C887.745 67.2799 887.041 64.5279 885.633 62.3519C884.225 60.1759 881.665 59.0879 877.953 59.0879C875.393 59.0879 873.025 59.9199 870.849 61.5839C868.801 63.2479 867.457 65.6799 866.817 68.8799H847.809C848.321 60.1759 851.265 53.1359 856.641 47.7599C859.201 45.1999 862.273 43.2159 865.857 41.8079C869.441 40.2719 873.473 39.5039 877.953 39.5039C882.049 39.5039 885.889 40.1439 889.473 41.4239C893.057 42.7039 896.193 44.6239 898.881 47.1839C901.441 49.7439 903.489 52.9439 905.025 56.7839C906.561 60.6239 907.329 65.1039 907.329 70.2239V138H887.745ZM887.745 96.1439C885.569 95.7599 883.777 95.5679 882.369 95.5679C878.145 95.5679 874.497 96.5919 871.425 98.6399C868.481 100.56 867.009 104.144 867.009 109.392C867.009 113.104 867.905 116.112 869.697 118.416C871.489 120.72 873.985 121.872 877.185 121.872C880.513 121.872 883.073 120.784 884.865 118.608C886.785 116.432 887.745 113.36 887.745 109.392V96.1439ZM920.752 40.6559V138H940.336V72.5279C940.336 68.1759 941.04 64.8479 942.448 62.5439C943.856 60.2399 946.416 59.0879 950.128 59.0879C953.2 59.0879 955.568 60.1119 957.232 62.1599C958.896 64.2079 959.728 67.0239 959.728 70.6079V138H979.312V63.3119C979.312 58.9599 978.736 55.3119 977.584 52.3679C976.432 49.2959 974.896 46.7999 972.976 44.8799C971.056 42.9599 968.88 41.6159 966.448 40.8479C964.016 39.9519 961.584 39.5039 959.152 39.5039C954.672 39.5039 950.96 40.5279 948.016 42.5759C945.2 44.4959 942.768 46.9919 940.72 50.0639H940.336V40.6559H920.752ZM994.377 40.6559V138H1013.96V72.5279C1013.96 68.1759 1014.66 64.8479 1016.07 62.5439C1017.48 60.2399 1020.04 59.0879 1023.75 59.0879C1026.82 59.0879 1029.19 60.1119 1030.86 62.1599C1032.52 64.2079 1033.35 67.0239 1033.35 70.6079V138H1052.94V63.3119C1052.94 58.9599 1052.36 55.3119 1051.21 52.3679C1050.06 49.2959 1048.52 46.7999 1046.6 44.8799C1044.68 42.9599 1042.5 41.6159 1040.07 40.8479C1037.64 39.9519 1035.21 39.5039 1032.78 39.5039C1028.3 39.5039 1024.58 40.5279 1021.64 42.5759C1018.82 44.4959 1016.39 46.9919 1014.34 50.0639H1013.96V40.6559H994.377ZM318.695 60.4319C320.743 62.0959 321.831 64.5919 321.959 67.9199H340.391C340.391 63.9519 339.687 60.2399 338.279 56.7839C336.871 53.1999 334.951 50.1279 332.519 47.5679C330.087 45.0079 327.143 43.0239 323.687 41.6159C320.359 40.2079 316.711 39.5039 312.743 39.5039C308.775 39.5039 305.063 40.2079 301.607 41.6159C298.151 42.8959 295.143 44.8159 292.583 47.3759C289.895 49.9359 287.783 53.0079 286.247 56.5919C284.711 60.0479 283.943 63.8239 283.943 67.9199C283.943 74.4479 285.671 80.0159 289.127 84.6239C292.711 89.1039 297.575 92.4959 303.719 94.7999L313.127 98.2559C316.839 99.6639 319.399 101.328 320.807 103.248C322.215 105.168 322.919 107.472 322.919 110.16C322.919 113.488 321.767 116.112 319.463 118.032C317.287 119.824 314.791 120.72 311.975 120.72C308.263 120.72 305.639 119.568 304.103 117.264C302.695 114.96 301.799 112.464 301.415 109.776H282.983C283.111 114.64 284.007 118.928 285.671 122.64C287.335 126.224 289.511 129.232 292.199 131.664C297.575 136.656 304.231 139.152 312.167 139.152C316.391 139.152 320.295 138.384 323.879 136.848C327.463 135.312 330.535 133.2 333.095 130.512C335.655 127.824 337.639 124.752 339.047 121.296C340.583 117.712 341.351 113.872 341.351 109.776C341.351 104.016 339.943 98.7039 337.127 93.8399C334.439 88.9759 329.447 85.1359 322.151 82.3199L310.631 77.7119C306.919 76.3039 304.615 74.7679 303.719 73.1039C302.823 71.3119 302.375 69.5199 302.375 67.7279C302.375 65.1679 303.207 62.9279 304.871 61.0079C306.535 58.9599 308.903 57.9359 311.975 57.9359C314.535 57.9359 316.775 58.7679 318.695 60.4319ZM253.432 138V128.016H253.048C250.488 131.6 247.864 134.352 245.176 136.272C242.616 138.192 238.968 139.152 234.232 139.152C231.928 139.152 229.56 138.768 227.128 138C224.824 137.36 222.584 136.08 220.408 134.16C218.232 132.368 216.44 129.808 215.032 126.48C213.752 123.024 213.112 118.608 213.112 113.232C213.112 107.728 213.56 102.928 214.456 98.8319C215.352 94.6079 217.016 91.0879 219.448 88.2719C221.752 85.5839 224.888 83.5999 228.856 82.3199C232.824 80.9119 237.88 80.2079 244.024 80.2079H246.136C246.904 80.2079 247.608 80.2719 248.248 80.3999C248.888 80.5279 249.656 80.5919 250.552 80.5919C251.448 80.5919 252.408 80.6559 253.432 80.7839V70.6079C253.432 67.2799 252.728 64.5279 251.32 62.3519C249.912 60.1759 247.352 59.0879 243.64 59.0879C241.08 59.0879 238.712 59.9199 236.536 61.5839C234.488 63.2479 233.144 65.6799 232.504 68.8799H213.496C214.008 60.1759 216.952 53.1359 222.328 47.7599C224.888 45.1999 227.96 43.2159 231.544 41.8079C235.128 40.2719 239.16 39.5039 243.64 39.5039C247.736 39.5039 251.576 40.1439 255.16 41.4239C258.744 42.7039 261.88 44.6239 264.568 47.1839C267.128 49.7439 269.176 52.9439 270.712 56.7839C272.248 60.6239 273.016 65.1039 273.016 70.2239V138H253.432ZM253.432 96.1439C251.256 95.7599 249.464 95.5679 248.056 95.5679C243.832 95.5679 240.184 96.5919 237.112 98.6399C234.168 100.56 232.696 104.144 232.696 109.392C232.696 113.104 233.592 116.112 235.384 118.416C237.176 120.72 239.672 121.872 242.872 121.872C246.2 121.872 248.76 120.784 250.552 118.608C252.472 116.432 253.432 113.36 253.432 109.392V96.1439ZM142.752 1.2959V138H162.336V110.736L171.744 95.9519L189.408 138H210.72L182.688 80.2079L205.92 40.6559H186.336L162.72 83.0879H162.336V1.2959H142.752ZM127.687 40.6558V138H108.103V128.592H107.719C105.671 131.664 103.175 134.224 100.231 136.272C97.4149 138.192 93.767 139.152 89.2869 139.152C86.8549 139.152 84.423 138.768 81.991 138C79.559 137.104 77.3829 135.696 75.463 133.776C73.543 131.856 72.007 129.424 70.8549 126.48C69.7029 123.408 69.127 119.696 69.127 115.344V40.6558H88.711V108.048C88.711 111.632 89.5429 114.448 91.2069 116.496C92.8709 118.544 95.239 119.568 98.311 119.568C102.023 119.568 104.583 118.416 105.991 116.112C107.399 113.808 108.103 110.48 108.103 106.128V40.6558H127.687ZM0.21582 1.2959V138H58.5838V118.416H19.7998V1.2959H0.21582Z"/>
  </svg>
  