<svg width="128" height="128" viewBox="0 0 128 128" fill="none" xmlns="http://www.w3.org/2000/svg">
  <style>
    #muted {
      fill: #030506;
    }
    @media (prefers-color-scheme: dark) {
      #muted {
        fill: #F7F6F0;
      }
    }
  </style>
<path d="M87.3178 0.00257906V0H41.0543H39.938V0.0232454C40.3089 0.00778121 40.681 0 41.0543 0C49.5419 0 57.4279 4.02298 63.9733 10.9147H64.0267C64.0178 10.9241 64.0089 10.9335 64 10.9428C74.9251 22.4653 82.1085 41.9844 82.1085 64.124C82.1085 86.2637 74.9251 105.783 64 117.305C70.5507 124.214 78.4466 128.248 86.9458 128.248C109.619 128.248 128 99.5388 128 64.124C128 28.9032 109.82 0.314625 87.3178 0.00257906Z" id="muted"/>
<path d="M45.8914 64.124C45.8914 41.9844 53.0749 22.4653 64 10.9428C57.4493 4.03392 49.5534 0 41.0543 0C18.3806 0 0 28.7093 0 64.124C0 98.9557 17.7804 127.301 39.938 128.225V128.248H41.0256C41.0352 128.248 41.0447 128.248 41.0543 128.248C41.0638 128.248 41.0734 128.248 41.0829 128.248H86.9145C78.4388 128.238 70.5641 124.217 64.0266 117.333H63.9733C63.9822 117.324 63.9911 117.315 64 117.305C53.0749 105.783 45.8914 86.2637 45.8914 64.124Z" id="orange" fill="#FF7A00"/>
</svg>
