<svg width="1921" height="961" viewBox="0 0 1921 961" fill="none" xmlns="http://www.w3.org/2000/svg">
<rect width="1920" height="960" transform="translate(0.727051 0.680664)" fill="#F6E7D8"/>
<rect x="80.5788" y="81.778" width="1761.65" height="798.653" fill="#F6E7D8" stroke="#273248" stroke-width="16.0377"/>
<mask id="mask0_448_290" style="mask-type:alpha" maskUnits="userSpaceOnUse" x="88" y="89" width="1747" height="784">
<rect x="88.5977" y="89.7969" width="1745.61" height="782.615" fill="#C4C4C4"/>
</mask>
<g mask="url(#mask0_448_290)">
<rect x="88.5977" y="89.7969" width="808.461" height="782.615" fill="#273248"/>
<path d="M538.974 706.861C496.307 730.328 460.75 804.856 448.306 872.412H1322.98C1310.54 804.856 1274.98 730.328 1232.31 706.861C1178.98 677.527 1050.98 640.194 981.643 632.194C969.646 632.194 968.288 523.718 981.643 515.075C1011.87 495.519 1072.31 421.207 1072.31 280.405C1072.31 104.404 957.645 61.7363 885.644 61.7363C813.643 61.7363 698.976 104.404 698.976 280.405C698.976 421.207 759.421 495.519 789.643 515.075C802.999 523.718 801.641 632.194 789.643 632.194C720.309 640.194 592.308 677.527 538.974 706.861Z" fill="#F68989"/>
<path d="M644.88 706.861C602.213 730.328 566.656 804.856 554.211 872.412H1428.89C1416.44 804.856 1380.89 730.328 1338.22 706.861C1284.88 677.527 1156.88 640.194 1087.55 632.194C1075.55 632.194 1074.19 523.718 1087.55 515.075C1117.77 495.519 1178.22 421.207 1178.22 280.405C1178.22 104.404 1063.55 61.7363 991.55 61.7363C919.549 61.7363 804.881 104.404 804.881 280.405C804.881 421.207 865.326 495.519 895.549 515.075C908.905 523.718 907.547 632.194 895.549 632.194C826.215 640.194 698.214 677.527 644.88 706.861Z" fill="#C65D7B"/>
<path d="M761.858 706.861C719.191 730.328 683.635 804.856 671.19 872.412H1545.87C1533.42 804.856 1497.86 730.328 1455.2 706.861C1401.86 677.527 1273.86 640.194 1204.53 632.194C1192.53 632.194 1191.17 523.718 1204.53 515.075C1234.75 495.519 1295.2 421.207 1295.2 280.405C1295.2 104.404 1180.53 61.7363 1108.53 61.7363C1036.53 61.7363 921.86 104.404 921.86 280.405C921.86 421.207 982.305 495.519 1012.53 515.075C1025.88 523.718 1024.53 632.194 1012.53 632.194C943.194 640.194 815.192 677.527 761.858 706.861Z" fill="#874356"/>
<path d="M897.728 706.861C855.061 730.328 819.504 804.856 807.06 872.412H1681.74C1669.29 804.856 1633.73 730.328 1591.07 706.861C1537.73 677.527 1409.73 640.194 1340.4 632.194C1328.4 632.194 1327.04 523.718 1340.4 515.075C1370.62 495.519 1431.07 421.207 1431.07 280.405C1431.07 104.404 1316.4 61.7363 1244.4 61.7363C1172.4 61.7363 1057.73 104.404 1057.73 280.405C1057.73 421.207 1118.17 495.519 1148.4 515.075C1161.75 523.718 1160.39 632.194 1148.4 632.194C1079.06 640.194 951.062 677.527 897.728 706.861Z" fill="#273248"/>
</g>
<path d="M337.647 888.938L337.647 842.985L178.92 842.985L178.92 888.938L337.647 888.938ZM340.311 710.55C340.311 669.481 318.999 639.734 277.93 636.626L277.93 681.913C295.468 684.133 303.904 695.455 303.904 711.438C303.904 733.194 287.698 745.404 259.06 745.404L257.284 745.404C228.425 745.404 212.441 732.528 212.441 712.104C212.441 696.121 221.321 687.241 237.527 685.465L237.527 638.624C195.569 642.398 176.478 671.035 176.478 712.326C176.478 758.724 208.667 793.355 257.506 793.355L259.282 793.355C307.899 793.355 340.311 766.049 340.311 710.55ZM340.311 515.241C340.311 463.959 307.011 430.438 258.172 430.438L256.396 430.438C207.113 430.438 176.7 466.179 176.7 514.575C176.7 562.082 209.111 598.489 257.506 598.489L259.282 598.489C307.011 598.489 340.311 566.522 340.311 515.241ZM304.57 514.353C304.57 536.33 287.92 550.982 259.06 550.982L257.284 550.982C228.425 550.982 212.219 536.996 212.219 514.575C212.219 492.153 228.869 477.945 257.062 477.945L258.838 477.945C287.254 477.945 304.57 491.931 304.57 514.353ZM337.647 381.524L337.647 341.565L237.971 341.565L337.647 283.624L337.647 239.669L178.92 239.669L178.92 279.406L268.384 279.406L178.92 330.243L178.92 381.524L337.647 381.524ZM340.311 124.154C340.311 83.3069 316.557 60.2193 287.476 60.2193C253.066 60.2193 242.633 80.865 238.193 121.046C235.529 140.804 231.533 145.688 222.653 145.688C214.661 145.688 209.111 139.472 209.111 127.262C209.111 114.83 214.883 108.392 226.205 106.839L226.205 64.6592C192.683 67.5452 176.7 89.0788 176.7 127.262C176.7 165.224 197.567 188.755 226.205 188.755C258.172 188.755 271.492 173.659 276.82 128.816C279.706 109.724 282.37 103.731 292.138 103.731C301.462 103.731 307.899 111.056 307.899 124.154C307.899 143.024 298.576 148.13 287.254 149.24L287.254 192.529C321.663 191.197 340.311 168.553 340.311 124.154Z" fill="#F6E7D8"/>
<path d="M1724.09 171.757C1740.41 171.757 1750.81 161.117 1750.81 142.957V140.717C1750.81 122.157 1739.45 112.797 1724.41 112.797C1709.29 112.797 1698.01 122.957 1698.01 141.037V143.437C1698.01 161.437 1708.09 171.757 1724.09 171.757ZM1724.57 159.037C1717.53 159.037 1714.41 153.997 1714.41 143.357V140.957C1714.41 130.397 1717.53 125.197 1724.41 125.197C1731.37 125.197 1734.41 130.477 1734.41 140.957V143.277C1734.41 153.837 1731.61 159.037 1724.57 159.037ZM1762.37 170.797H1808.37V158.557H1789.17L1797.17 150.797C1803.57 144.637 1807.97 138.717 1807.97 130.877C1807.97 120.317 1800.53 112.797 1786.53 112.797C1772.69 112.797 1764.05 120.077 1763.49 134.397H1778.37C1779.09 127.597 1781.65 125.117 1785.73 125.117C1789.81 125.117 1791.81 127.677 1791.81 131.517C1791.81 136.317 1788.05 141.197 1782.37 147.277L1762.37 168.477V170.797Z" fill="#C65D7B"/>
<path d="M135.727 861.204L135.727 855.924L111.967 855.924L135.727 846.376L135.727 844.484L111.967 835.112L135.727 835.112L135.727 829.26L104.267 829.26L104.267 837.004L125.739 845.1L104.267 853.372L104.267 861.204L135.727 861.204ZM136.167 816.381C136.167 812.861 134.891 810.837 132.911 809.341L135.727 809.341L135.727 804.105L120.635 804.105C114.343 804.105 112.231 808.153 112.231 813.301C112.231 818.449 114.475 822.717 119.843 823.157L119.843 818.009C117.555 817.745 116.235 816.381 116.235 813.609C116.235 810.485 117.775 809.429 120.855 809.429L122.043 809.429L122.043 812.289C122.043 818.889 123.979 824.081 129.347 824.081C134.143 824.081 136.167 820.605 136.167 816.381ZM132.339 815.105C132.339 817.745 131.063 818.801 129.127 818.801C126.311 818.801 125.387 816.205 125.387 812.157L125.387 809.429L127.675 809.429C130.623 809.429 132.339 811.849 132.339 815.105ZM135.727 797.783L135.727 792.459L124.419 792.459L135.727 783.835L135.727 777.675L123.275 787.355L112.715 778.423L112.715 784.231L122.835 792.459L102.067 792.459L102.067 797.783L135.727 797.783ZM136.167 764.712C136.167 758.816 133.527 754.9 128.687 754.152L128.687 759.3C130.931 759.696 132.207 761.368 132.207 764.58C132.207 768.54 129.743 770.74 125.387 770.916L125.387 754.064L123.847 754.064C115.619 754.064 112.231 759.212 112.231 764.932C112.231 771.488 116.983 776.372 124.111 776.372L124.463 776.372C131.723 776.372 136.167 771.488 136.167 764.712ZM121.823 770.828C118.259 770.3 116.103 768.144 116.103 764.932C116.103 761.632 117.863 759.608 121.823 759.344L121.823 770.828ZM143.603 735.832L143.603 730.596L112.715 718.056L112.715 723.248L127.543 728.88L112.715 734.996L112.715 740.76L133.395 731.652L143.603 735.832ZM136.167 704.451C136.167 697.675 131.503 692.615 124.331 692.615L123.979 692.615C116.939 692.615 112.231 697.675 112.231 704.407C112.231 711.183 116.983 716.243 124.111 716.243L124.463 716.243C131.459 716.243 136.167 711.227 136.167 704.451ZM132.031 704.407C132.031 708.455 129.083 710.787 124.375 710.787L124.023 710.787C119.271 710.787 116.411 708.367 116.411 704.407C116.411 700.447 119.315 698.071 124.067 698.071L124.375 698.071C129.083 698.071 132.031 700.447 132.031 704.407ZM136.167 679.885C136.167 676.145 134.363 673.725 132.119 672.581L135.727 672.581L135.727 667.257L112.715 667.257L112.715 672.581L126.399 672.581C130.051 672.581 131.899 675.089 131.899 677.949C131.899 681.029 130.315 682.481 126.839 682.481L112.715 682.481L112.715 687.805L127.455 687.805C133.571 687.805 136.167 684.417 136.167 679.885ZM135.727 660.724L135.727 655.4L123.759 655.4C118.875 655.4 117.379 652.584 117.335 647.92L112.363 647.92C112.407 651.792 114.123 653.948 117.027 655.4L112.715 655.4L112.715 660.724L135.727 660.724ZM136.167 623.688C136.167 620.3 134.143 617.352 131.855 616.12L135.727 616.12L135.727 610.796L102.067 610.796L102.067 616.12L116.235 616.12C113.947 617.396 112.231 619.728 112.231 623.468C112.231 629.452 116.895 633.808 124.243 633.808L124.595 633.808C132.075 633.808 136.167 629.452 136.167 623.688ZM131.943 622.368C131.943 625.8 129.523 628.352 124.463 628.352L124.111 628.352C119.139 628.352 116.411 626.064 116.411 622.148C116.411 618.276 118.919 615.944 123.979 615.944L124.331 615.944C129.479 615.944 131.943 618.672 131.943 622.368ZM136.167 594.128C136.167 588.232 133.527 584.316 128.687 583.568L128.687 588.716C130.931 589.112 132.207 590.784 132.207 593.996C132.207 597.956 129.743 600.156 125.387 600.332L125.387 583.48L123.847 583.48C115.619 583.48 112.231 588.628 112.231 594.348C112.231 600.904 116.983 605.788 124.111 605.788L124.463 605.788C131.723 605.788 136.167 600.904 136.167 594.128ZM121.823 600.244C118.259 599.716 116.103 597.56 116.103 594.348C116.103 591.048 117.863 589.024 121.823 588.76L121.823 600.244ZM136.167 570.414C136.167 564.518 133.483 561.218 128.819 561.218C123.935 561.218 122.615 564.43 121.779 569.842C121.163 573.494 120.503 574.594 118.831 574.594C117.203 574.594 116.103 573.23 116.103 570.942C116.103 568.478 117.071 567.29 119.183 566.85L119.183 561.922C113.991 562.494 112.231 566.234 112.231 570.942C112.231 575.254 114.519 579.566 119.139 579.566C123.451 579.566 125.167 577.322 126.135 571.25C126.707 567.862 127.411 566.322 129.303 566.322C131.239 566.322 132.251 567.598 132.251 570.458C132.251 573.582 130.887 574.77 128.555 575.034L128.555 580.05C133.439 579.83 136.167 576.354 136.167 570.414ZM108.931 553.599C108.931 551.839 107.611 550.431 105.895 550.431C104.135 550.431 102.815 551.839 102.815 553.599C102.815 555.359 104.135 556.767 105.895 556.767C107.611 556.767 108.931 555.359 108.931 553.599ZM135.727 556.195L135.727 550.871L112.715 550.871L112.715 556.195L135.727 556.195ZM144.175 534.35C144.175 527.222 140.787 522.69 134.011 522.646L112.715 522.646L112.715 527.97L116.235 527.97C113.947 529.29 112.231 531.578 112.231 535.362C112.231 541.302 117.071 545.702 123.539 545.702L123.847 545.702C130.491 545.702 134.803 541.258 134.803 535.494C134.803 532.106 132.735 529.246 130.535 527.97L133.923 527.97C138.059 527.97 140.127 530.258 140.127 534.394C140.127 537.87 138.807 539.63 136.519 540.07L136.519 545.438C140.919 544.822 144.175 541.566 144.175 534.35ZM130.711 534.174C130.711 537.606 128.071 540.246 123.803 540.246L123.451 540.246C119.271 540.246 116.411 537.958 116.411 533.998C116.411 530.17 119.007 527.794 123.363 527.794L123.671 527.794C128.071 527.794 130.711 530.478 130.711 534.174ZM135.727 516.098L135.727 510.774L122.175 510.774C118.523 510.774 116.675 508.354 116.675 505.362C116.675 502.194 118.259 500.786 121.735 500.786L135.727 500.786L135.727 495.462L121.251 495.462C114.915 495.462 112.231 498.718 112.231 503.338C112.231 507.122 114.123 509.674 116.367 510.774L112.715 510.774L112.715 516.098L135.727 516.098ZM136.167 470.529C136.167 464.633 133.483 461.333 128.819 461.333C123.935 461.333 122.615 464.545 121.779 469.957C121.163 473.609 120.503 474.709 118.831 474.709C117.203 474.709 116.103 473.345 116.103 471.057C116.103 468.593 117.071 467.405 119.183 466.965L119.183 462.037C113.991 462.609 112.231 466.349 112.231 471.057C112.231 475.369 114.519 479.681 119.139 479.681C123.451 479.681 125.167 477.437 126.135 471.365C126.707 467.977 127.411 466.437 129.303 466.437C131.239 466.437 132.251 467.713 132.251 470.573C132.251 473.697 130.887 474.885 128.555 475.149L128.555 480.165C133.439 479.945 136.167 476.469 136.167 470.529ZM143.603 454.449L143.603 449.213L112.715 436.673L112.715 441.865L127.543 447.497L112.715 453.613L112.715 459.377L133.395 450.269L143.603 454.449ZM136.167 424.628C136.167 418.732 133.483 415.432 128.819 415.432C123.935 415.432 122.615 418.644 121.779 424.056C121.163 427.708 120.503 428.808 118.831 428.808C117.203 428.808 116.103 427.444 116.103 425.156C116.103 422.692 117.071 421.504 119.183 421.064L119.183 416.136C113.991 416.708 112.231 420.448 112.231 425.156C112.231 429.468 114.519 433.78 119.139 433.78C123.451 433.78 125.167 431.536 126.135 425.464C126.707 422.076 127.411 420.536 129.303 420.536C131.239 420.536 132.251 421.812 132.251 424.672C132.251 427.796 130.887 428.984 128.555 429.248L128.555 434.264C133.439 434.044 136.167 430.568 136.167 424.628ZM136.123 402.709C136.123 401.081 135.859 399.937 135.551 399.101L131.327 399.101C131.635 399.849 131.767 400.641 131.767 401.697C131.767 403.369 130.843 404.337 128.819 404.337L116.719 404.337L116.719 399.277L112.715 399.277L112.715 404.337L107.655 404.337L107.655 409.661L112.715 409.661L112.715 412.741L116.719 412.741L116.719 409.661L129.303 409.661C133.659 409.661 136.123 407.285 136.123 402.709ZM136.167 383.959C136.167 378.063 133.527 374.147 128.687 373.399L128.687 378.547C130.931 378.943 132.207 380.615 132.207 383.827C132.207 387.787 129.743 389.987 125.387 390.163L125.387 373.311L123.847 373.311C115.619 373.311 112.231 378.459 112.231 384.179C112.231 390.735 116.983 395.619 124.111 395.619L124.463 395.619C131.723 395.619 136.167 390.735 136.167 383.959ZM121.823 390.075C118.259 389.547 116.103 387.391 116.103 384.179C116.103 380.879 117.863 378.855 121.823 378.591L121.823 390.075ZM135.727 368.336L135.727 363.012L121.955 363.012C118.435 363.012 116.675 360.592 116.675 357.952C116.675 355.356 118.127 353.86 121.515 353.86L135.727 353.86L135.727 348.536L121.955 348.536C118.435 348.536 116.675 346.116 116.675 343.476C116.675 340.836 118.127 339.384 121.515 339.384L135.727 339.384L135.727 334.06L121.163 334.06C114.827 334.06 112.231 337.492 112.231 341.716C112.231 344.576 113.507 347.744 116.367 349.504C113.507 350.648 112.231 353.024 112.231 356.016C112.231 359.404 114.079 361.912 116.235 363.012L112.715 363.012L112.715 368.336L135.727 368.336ZM136.167 310.993C136.167 307.473 134.891 305.449 132.911 303.953L135.727 303.953L135.727 298.717L120.635 298.717C114.343 298.717 112.231 302.765 112.231 307.913C112.231 313.061 114.475 317.329 119.843 317.769L119.843 312.621C117.555 312.357 116.235 310.993 116.235 308.221C116.235 305.097 117.775 304.041 120.855 304.041L122.043 304.041L122.043 306.901C122.043 313.501 123.979 318.693 129.347 318.693C134.143 318.693 136.167 315.217 136.167 310.993ZM132.339 309.717C132.339 312.357 131.063 313.413 129.127 313.413C126.311 313.413 125.387 310.817 125.387 306.769L125.387 304.041L127.675 304.041C130.623 304.041 132.339 306.461 132.339 309.717ZM136.167 282.318C136.167 276.07 132.427 272.066 127.147 271.67L127.147 276.554C130.403 276.862 132.075 279.282 132.075 282.098C132.075 286.014 129.435 288.478 124.419 288.478L124.067 288.478C119.315 288.478 116.499 285.882 116.499 282.23C116.499 279.414 117.775 277.39 120.855 276.95L120.855 271.802C114.519 272.418 112.231 277.214 112.231 282.318C112.231 288.742 116.851 293.934 124.155 293.934L124.507 293.934C131.855 293.934 136.167 288.918 136.167 282.318ZM136.167 256.79C136.167 250.542 132.427 246.538 127.147 246.142L127.147 251.026C130.403 251.334 132.075 253.754 132.075 256.57C132.075 260.486 129.435 262.95 124.419 262.95L124.067 262.95C119.315 262.95 116.499 260.354 116.499 256.702C116.499 253.886 117.775 251.862 120.855 251.422L120.855 246.274C114.519 246.89 112.231 251.686 112.231 256.79C112.231 263.214 116.851 268.406 124.155 268.406L124.507 268.406C131.855 268.406 136.167 263.39 136.167 256.79ZM136.167 231.217C136.167 225.321 133.527 221.405 128.687 220.657L128.687 225.805C130.931 226.201 132.207 227.873 132.207 231.085C132.207 235.045 129.743 237.245 125.387 237.421L125.387 220.569L123.847 220.569C115.619 220.569 112.231 225.717 112.231 231.437C112.231 237.993 116.983 242.877 124.111 242.877L124.463 242.877C131.723 242.877 136.167 237.993 136.167 231.217ZM121.823 237.333C118.259 236.805 116.103 234.649 116.103 231.437C116.103 228.137 117.863 226.113 121.823 225.849L121.823 237.333ZM136.167 207.503C136.167 201.607 133.483 198.307 128.819 198.307C123.935 198.307 122.615 201.519 121.779 206.931C121.163 210.583 120.503 211.683 118.831 211.683C117.203 211.683 116.103 210.319 116.103 208.031C116.103 205.567 117.071 204.379 119.183 203.939L119.183 199.011C113.991 199.583 112.231 203.323 112.231 208.031C112.231 212.343 114.519 216.655 119.139 216.655C123.451 216.655 125.167 214.411 126.135 208.339C126.707 204.951 127.411 203.411 129.303 203.411C131.239 203.411 132.251 204.687 132.251 207.547C132.251 210.671 130.887 211.859 128.555 212.123L128.555 217.139C133.439 216.919 136.167 213.443 136.167 207.503ZM136.167 185.498C136.167 179.602 133.483 176.302 128.819 176.302C123.935 176.302 122.615 179.514 121.779 184.926C121.163 188.578 120.503 189.678 118.831 189.678C117.203 189.678 116.103 188.314 116.103 186.026C116.103 183.562 117.071 182.374 119.183 181.934L119.183 177.006C113.991 177.578 112.231 181.318 112.231 186.026C112.231 190.338 114.519 194.65 119.139 194.65C123.451 194.65 125.167 192.406 126.135 186.334C126.707 182.946 127.411 181.406 129.303 181.406C131.239 181.406 132.251 182.682 132.251 185.542C132.251 188.666 130.887 189.854 128.555 190.118L128.555 195.134C133.439 194.914 136.167 191.438 136.167 185.498ZM108.931 168.684C108.931 166.924 107.611 165.516 105.895 165.516C104.135 165.516 102.815 166.924 102.815 168.684C102.815 170.444 104.135 171.852 105.895 171.852C107.611 171.852 108.931 170.444 108.931 168.684ZM135.727 171.28L135.727 165.956L112.715 165.956L112.715 171.28L135.727 171.28ZM136.167 146.398C136.167 140.458 131.679 136.19 124.287 136.19L123.935 136.19C116.499 136.19 112.231 140.634 112.231 146.398C112.231 149.786 114.211 152.646 116.411 153.922L102.067 153.922L102.067 159.246L135.727 159.246L135.727 153.922L132.031 153.922C134.363 152.69 136.167 150.05 136.167 146.398ZM131.943 147.718C131.943 151.59 129.523 154.098 124.375 154.098L124.023 154.098C118.919 154.098 116.411 151.458 116.411 147.762C116.411 144.286 118.919 141.646 124.023 141.646L124.375 141.646C129.303 141.646 131.943 143.802 131.943 147.718ZM135.727 131.051L135.727 125.727L102.067 125.727L102.067 131.051L135.727 131.051ZM136.167 108.897C136.167 103.001 133.527 99.0853 128.687 98.3373L128.687 103.485C130.931 103.881 132.207 105.553 132.207 108.765C132.207 112.725 129.743 114.925 125.387 115.101L125.387 98.2493L123.847 98.2493C115.619 98.2493 112.231 103.397 112.231 109.117C112.231 115.673 116.983 120.557 124.111 120.557L124.463 120.557C131.723 120.557 136.167 115.673 136.167 108.897ZM121.823 115.013C118.259 114.485 116.103 112.329 116.103 109.117C116.103 105.817 117.863 103.793 121.823 103.529L121.823 115.013Z" fill="#F6E7D8"/>
<path d="M1721.52 850.661H1738.8V846.725H1729.9L1734.22 842.501C1736.88 839.941 1738.64 837.445 1738.64 834.405C1738.64 830.277 1735.76 827.461 1730.7 827.461C1725.58 827.461 1722.38 830.341 1722.13 835.621H1726.83C1727.18 832.613 1728.46 831.429 1730.48 831.429C1732.46 831.429 1733.52 832.645 1733.52 834.533C1733.52 836.613 1732.11 838.629 1729.9 840.965L1721.52 849.829V850.661ZM1754.54 851.013C1760.71 851.013 1764.52 846.661 1764.52 839.653V838.597C1764.52 831.493 1760.46 827.461 1754.57 827.461C1748.68 827.461 1744.59 831.653 1744.59 838.693V839.781C1744.59 846.789 1748.46 851.013 1754.54 851.013ZM1754.67 846.949C1751.47 846.949 1749.77 844.549 1749.77 839.749V838.661C1749.77 833.925 1751.4 831.461 1754.6 831.461C1757.77 831.461 1759.37 834.053 1759.37 838.661V839.685C1759.37 844.485 1757.9 846.949 1754.67 846.949ZM1769.54 850.661H1786.82V846.725H1777.93L1782.25 842.501C1784.9 839.941 1786.66 837.445 1786.66 834.405C1786.66 830.277 1783.78 827.461 1778.73 827.461C1773.61 827.461 1770.41 830.341 1770.15 835.621H1774.86C1775.21 832.613 1776.49 831.429 1778.5 831.429C1780.49 831.429 1781.54 832.645 1781.54 834.533C1781.54 836.613 1780.14 838.629 1777.93 840.965L1769.54 849.829V850.661ZM1791.84 850.661H1809.12V846.725H1800.22L1804.54 842.501C1807.2 839.941 1808.96 837.445 1808.96 834.405C1808.96 830.277 1806.08 827.461 1801.02 827.461C1795.9 827.461 1792.7 830.341 1792.45 835.621H1797.15C1797.5 832.613 1798.78 831.429 1800.8 831.429C1802.78 831.429 1803.84 832.645 1803.84 834.533C1803.84 836.613 1802.43 838.629 1800.22 840.965L1791.84 849.829V850.661Z" fill="#874356"/>
</svg>
