<svg width="106" height="30" viewBox="0 0 106 30" xmlns="http://www.w3.org/2000/svg" x="0px" y="0px"
	 xml:space="preserve" role="img" aria-label="logo Lukas Oppermann">
<path d="M8.41599 12V9.80798H3.79199V0.639981H1.10399V12H8.41599ZM9.59286 8.03198C9.59286 10.624 11.3689 12.272 14.3929 12.272C17.4169 12.272 19.2089 10.624 19.2089 8.03198V0.639981H16.5209V7.91998C16.5209 9.24798 15.7369 10.08 14.3929 10.08C13.0649 10.08 12.2809 9.24798 12.2809 7.91998V0.639981H9.59286V8.03198ZM31.6194 12L27.4274 5.26398L31.4114 0.639981H28.3234L24.2914 5.55198V0.639981H21.6034V12H24.2914V8.67198L25.6034 7.15198L28.5474 12H31.6194ZM43.8699 12L39.7419 0.639981H36.6539L32.5259 12H35.2299L36.0939 9.34398H40.2859L41.1499 12H43.8699ZM37.7579 4.27198C37.9179 3.77598 38.0779 3.24798 38.1739 2.67198H38.2059C38.3179 3.24798 38.4619 3.77598 38.6219 4.27198L39.6619 7.43998H36.7179L37.7579 4.27198ZM49.4789 12.272C52.4549 12.272 54.1349 10.784 54.1349 8.62398C54.1349 6.67198 53.0309 5.71198 51.0149 5.26398L49.3669 4.91198C48.1669 4.63998 47.7189 4.27198 47.7189 3.53598C47.7189 2.81598 48.4069 2.36798 49.4789 2.36798C50.7749 2.36798 51.8309 3.00798 52.4069 4.11198L54.1829 2.62398C53.3669 1.10398 51.6869 0.367981 49.6549 0.367981C46.9189 0.367981 45.2229 1.66398 45.2229 3.74398C45.2229 5.64798 46.3749 6.71998 48.3589 7.15198L49.8789 7.47198C51.0309 7.71198 51.5269 8.03198 51.5269 8.87998C51.5269 9.77598 50.6629 10.176 49.5749 10.176C48.0709 10.176 47.0789 9.39198 46.5029 8.22398L44.5029 9.63198C45.2709 11.232 47.0309 12.272 49.4789 12.272ZM6.11199 29.272C9.51999 29.272 11.712 26.984 11.712 23.32C11.712 19.656 9.51999 17.368 6.11199 17.368C2.70399 17.368 0.511993 19.656 0.511993 23.32C0.511993 26.968 2.70399 29.272 6.11199 29.272ZM6.11199 27.16C4.33599 27.16 3.27999 25.704 3.27999 23.32C3.27999 20.92 4.33599 19.48 6.11199 19.48C7.88799 19.48 8.94399 20.92 8.94399 23.32C8.94399 25.72 7.88799 27.16 6.11199 27.16ZM13.6427 17.64V29H16.3307V24.872H18.6188C21.1788 24.872 22.7467 23.464 22.7467 21.208C22.7467 19.048 21.1468 17.64 18.6667 17.64H13.6427ZM16.3307 22.984V19.592H18.0107C19.2267 19.592 19.9307 20.216 19.9307 21.288C19.9307 22.36 19.2267 22.984 18.0107 22.984H16.3307ZM24.369 17.64V29H27.057V24.872H29.345C31.905 24.872 33.473 23.464 33.473 21.208C33.473 19.048 31.873 17.64 29.393 17.64H24.369ZM27.057 22.984V19.592H28.737C29.953 19.592 30.657 20.216 30.657 21.288C30.657 22.36 29.953 22.984 28.737 22.984H27.057ZM37.7832 24.184H42.5992V22.2H37.7832V19.64H42.8712V17.64H35.0952V29H42.9832V27H37.7832V24.184ZM54.4955 29L51.9995 24.248C53.4555 23.752 54.2075 22.552 54.2075 21.128C54.2075 19.048 52.9435 17.64 50.0635 17.64H45.0715V29H47.7595V24.648H49.4075L51.5835 29H54.4955ZM49.5195 19.544C50.8315 19.544 51.3915 20.136 51.3915 21.128C51.3915 22.152 50.8155 22.792 49.5195 22.792H47.7595V19.544H49.5195ZM58.5236 29V21.256C58.5236 20.808 58.4916 20.376 58.4596 19.992H58.4916C58.5236 20.296 58.6356 20.776 58.7316 21.08L61.1156 29H63.3876L65.6916 21.08C65.7876 20.776 65.8996 20.296 65.9316 19.976H65.9636C65.9316 20.408 65.9156 20.824 65.9156 21.256V29H68.3796V17.64H64.6196L62.6196 24.568C62.4436 25.128 62.3636 25.576 62.3316 25.976H62.2996C62.2516 25.576 62.1716 25.144 62.0116 24.6L59.9316 17.64H56.2196V29H58.5236ZM81.2986 29L77.1706 17.64H74.0826L69.9546 29H72.6586L73.5226 26.344H77.7146L78.5786 29H81.2986ZM75.1866 21.272C75.3466 20.776 75.5066 20.248 75.6026 19.672H75.6346C75.7466 20.248 75.8906 20.776 76.0506 21.272L77.0906 24.44H74.1466L75.1866 21.272ZM85.308 29V22.568C85.308 22.008 85.308 21.528 85.292 21.064H85.324C85.5 21.48 85.708 21.928 85.996 22.456L89.772 29H92.652V17.64H90.188V24.136C90.188 24.68 90.188 25.144 90.204 25.592H90.172C90.012 25.176 89.74 24.6 89.484 24.12L85.82 17.64H82.844V29H85.308ZM97.6436 29V22.568C97.6436 22.008 97.6436 21.528 97.6276 21.064H97.6596C97.8356 21.48 98.0436 21.928 98.3316 22.456L102.108 29H104.988V17.64H102.524V24.136C102.524 24.68 102.524 25.144 102.54 25.592H102.508C102.348 25.176 102.076 24.6 101.82 24.12L98.1556 17.64H95.1796V29H97.6436Z"/>
</svg>
