<svg xmlns="http://www.w3.org/2000/svg" viewBox="0 0 359 128">
  <path d="M160.9 78.3h15l-2.2 4.9h-18.5V45.6h5.8l-.1 32.7zm28.5-33.7c5 0 9.2 2.2 10.3 3l-2 4.5c-1.4-.9-4.8-2.6-8.2-2.6-4.1 0-6.7 1.8-6.7 4.9 0 8.1 18.8 3.7 18.8 17.8 0 6.4-5.1 11.1-14.1 11.1h-9.4l2.2-4.9h7c4.9 0 8.2-1.8 8.2-5.7 0-9.6-18.7-4.5-18.7-17.8 0-6.3 5-10.3 12.6-10.3m25.5 12.2l-2.4 26.5h-5.9l4-37.7h5.1L227 69.2l10.9-23.6h5.1l4 37.7h-5.8l-2.5-27.1-10.6 22.9h-2.3l-10.9-22.3zm46.3 17.5l-3.3 9h-6.1l14.9-38h4l14.7 38H279l-3.3-9h-14.5zm7.3-20l-5.6 15.2H274l-5.5-15.2zm66.9 29h-5.5V45.6h4.7l19 26.1V45.6h5.5v37.7h-4l-19.6-27v27zm-20.8-11.6V45.6h5.5v37.7h-4l-19.6-27v27H291V45.6h4.7l18.9 26.1zM131.9 61.1h13.3V66h-13.3v12.4h16v4.9h-21.7V45.6h21.2v4.9H132l-.1 10.6zM5.5 78.8h6.4c5 0 8.5-2.2 8.5-6.3 0-5.1-4.4-7.2-10-7.2H8.7l2-4.4c2.9 0 8-.5 8-5.8 0-2.5-1.6-5-7.1-5h-6l-.1 28.7zM0 45.4h12.2c8.8 0 12.3 4.4 12.3 9.4 0 3.9-2.5 6.5-4.9 7.8 3 1.2 6.7 3.7 6.7 9.5 0 5.9-4.1 11.3-14.2 11.3H0v-38zm109.1 5.1v32.8h-5.7V50.5H92.8v-4.9h26.9v4.9h-10.6zM39.3 61.1h13.3V66H39.3v12.4h16v4.9H33.6V45.6h21.2v4.9H39.4l-.1 10.6zm31.9 3.3h.8c5.5 0 9.6-2 9.6-7.7 0-3.7-2.7-6.6-7.3-6.6h-4.8v33.2h-5.6V45.6h11.8c8.4 0 11.9 5.3 11.9 11.2 0 5.6-3.5 9-7.7 10.5l10.7 16h-7L71.2 64.4z"/>
</svg>
