<svg xmlns="http://www.w3.org/2000/svg" viewBox="0 0 360 130">
  <path fill="currentColor" fill-rule="evenodd" d="M53.493 64.05l-.306.605c-1.147-.253-3.246-1.056-5.445-2.056l-.3.557.9.494c3.196 1.654 4.252 1.997 6.099 1.997 3.699 0 6.501-2.097 7.804-5.798 2.295-.449 5.25-.647 8.745-.647 3 0 5.602.15 8.953.551l-.85 1.049c-1.55-.204-4.404-.402-6.455-.402-2.446 0-3.997.051-4.798.1l-.397.902c2.05-.1 2.795-.1 4.4-.1 2.699 0 4.845.1 6.596.247l-.847 1.1c-3.15-.093-4.6-.147-6.947-.147-1.303 0-2.254.054-3.802.097l-.402.9c1.347-.096 3.197-.147 5.152-.147 1.85 0 4.046.051 5.35.1l-.853 1.105c-.891-.057-2.648-.057-4-.057-2.146 0-4.845.098-6.246.302l-.402.798c2.55-.247 4.147-.348 6.95-.348 1.099 0 1.797 0 3.054.1l-.956 1.15c-1.702-.1-2.246-.1-2.897-.1-4.75 0-7.846.697-10.952 2.449 2.848 2.848 7.598 4.798 11.853 4.798.348 0 .546 0 1.45-.049l-2.058 2.056c-11.294-2.95-13.293-3.756-23.645-9.904-4.095-2.349-7.449-3.948-10.15-4.75l.35-1.249c.654.096 2.05.503 3.356.95l.595-1.352 11.101 4.699zm-16.902 1.007c0 12.345 10.002 22.347 22.347 22.347 12.402 0 22.458-9.953 22.458-22.304 0-12.6-9.906-22.496-22.6-22.496-12.15 0-22.205 10.143-22.205 22.453zm47.401 0C83.992 78.904 72.842 90 58.938 90 45.19 90 34 78.85 34 65.1 34 51.055 45.189 40 59.389 40c13.502-.003 24.603 11.351 24.603 25.057zM318.58 70.2c-1.007.302-1.36.397-2.158.655-.85.146-1.796.35-2.85.646-2.55.65-3.796 1.654-3.796 3.197 0 1.558 1.193 2.452 3.2 2.452 3.796 0 5.604-1.698 5.604-5.25v-1.7zm-15.009-4.847c.052-5.404 4.302-8.65 11.447-8.65 7.454 0 11.096 3.1 11.096 9.394v12.256c0 2.05 0 2.05.654 3.345h-7.294l-.397-1.996c-2.903 2.35-4.603 2.998-7.796 2.998-5.363 0-9.204-3.15-9.204-7.495 0-3.606 2.352-6.153 6.945-7.454.703-.198 3.008-.698 6.951-1.399 1.652-.353 2.35-.901 2.35-2.047 0-1.353-1.404-2.254-3.452-2.254-2.55 0-4.1 1.252-4.1 3.302h-7.2zm-10.946-.152c-.207-2.249-1.157-3.099-3.55-3.099-1.952 0-3.15.75-3.15 2.004 0 1.146 1.146 1.847 3.748 2.246l2.702.503c5.7.947 8.35 3.345 8.35 7.497 0 5.1-4.35 8.348-11.148 8.348-8.049 0-12.45-3.201-12.45-8.994h7.647v.296c0 1.999 1.653 3.253 4.301 3.253 2.298 0 3.696-.852 3.696-2.205 0-1.4-1.303-2.2-4.35-2.75l-2.496-.4c-5.7-.999-8.155-3.05-8.155-6.843 0-5.208 4.346-8.353 11.506-8.353 4.994 0 8.093 1.347 9.698 4.247.7 1.205.796 1.605 1.002 4.25h-7.351zm-33.096-7.498l.252 2.697c1.845-2.35 4.04-3.398 6.942-3.398 3.356 0 6.056 1.448 7.46 3.949.991 1.852 1.192 2.903 1.192 6.851v13.896h-7.848V68.104c0-3.547-1.005-5-3.45-5-2.557 0-3.85 1.698-3.85 5v13.594h-7.85V57.703h7.152zM242.072 70.2c-.996.302-1.298.397-2.099.655-.95.247-1.8.44-2.846.646-2.553.65-3.81 1.654-3.81 3.197 0 1.558 1.203 2.452 3.166 2.452 3.797 0 5.59-1.698 5.59-5.25v-1.7zm-14.952-4.847c0-5.445 4.255-8.65 11.354-8.65 7.452 0 11.148 3.1 11.148 9.394v12.256c0 2.096 0 2.096.649 3.345h-7.243l-.453-1.996c-2.501 2.2-4.65 2.998-7.797 2.998-5.304 0-9.147-3.15-9.147-7.495 0-3.606 2.344-6.153 6.942-7.454.703-.198 3.003-.65 6.947-1.399 1.71-.353 2.354-.901 2.354-2.047 0-1.353-1.404-2.254-3.5-2.254-2.55 0-4.044 1.203-4.101 3.302h-7.153zm-18.499-17V60.4c1.46-2.35 3.503-3.398 6.556-3.398 3.294 0 5.952 1.399 7.395 3.949 1.05 1.852 1.208 2.849 1.208 6.851v13.896h-7.808V68.104c0-3.45-1.048-5-3.451-5-2.596 0-3.9 1.698-3.9 5v13.594h-7.848V48.353h7.848zm-14.398 1.85v7.5h4.453v5.298h-4.453v9.5c.052 3.503.258 3.703 3.25 3.703h1.556v5.494h-5.9c-4.65 0-6.754-2.145-6.754-7.044V62.999h-3.295v-5.296h3.295v-7.5h7.848zm-12.047 3.448h-1.303c-2.903 0-3.65.7-3.65 3.351v.701h4.65v5.296h-4.65v18.7h-7.843v-18.7h-3.402v-5.296h3.402v-.7c0-6.298 2.347-8.65 8.492-8.65h4.304v5.298zm-24.948 28.047l-.247-2.343c-1.955 2.05-4.155 2.998-6.903 2.998-3.4 0-6.149-1.402-7.547-3.797-1.054-1.803-1.203-2.704-1.203-6.656V57.703h7.85v13.896c0 3.506.998 4.956 3.45 4.956 2.596 0 3.9-1.7 3.9-4.956V57.703h7.845v23.995h-7.145zM125.68 48.353v26.752h14.1v6.593h-22.45V48.353h8.35z"/>
</svg>
