<svg xmlns="http://www.w3.org/2000/svg" viewBox="0 0 360 130">
  <path fill="currentColor" fill-rule="nonzero" d="M126.268 109.784c-.6-.379-.095-1.735.854-2.293.462-.272.84-.59.84-.705 0-.116.502-.555 1.115-.976a5.452 5.452 0 001.722-1.96c.579-1.14.666-1.203 1.867-1.368.756-.104 1.521-.397 1.915-.735.598-.513.628-.622.343-1.244-.171-.375-.408-1.452-.526-2.392-.119-.941-.256-1.75-.305-1.8-.049-.048-.698-.008-1.441.09-2.672.355-4.144-.273-5.122-2.184-1.055-2.059-.541-3.517 2.064-5.863 1.902-1.713 1.941-2.137.215-2.33-1.414-.16-2.314-.778-2.927-2.01-.366-.734-.407-1.052-.196-1.514l.267-.584 1.162.648c.639.356 1.726.737 2.415.846 2.943.464 3.79 2.712 1.693 4.495-2.6 2.21-3.29 2.995-3.435 3.909-.33 2.065.993 3.31 3.27 3.075 1.496-.154 2.453-.595 4.24-1.954 1.493-1.136 3.804-2.15 4.918-2.16 1.221-.008 2.86-.694 3.8-1.59 1.158-1.102 1.759-1.38 3.502-1.626 1.228-.174 1.653-.373 2.545-1.193.779-.716 1.555-1.129 2.844-1.512.976-.29 2.605-.964 3.62-1.497 2.053-1.079 3.498-1.255 4.888-.596 1.283.607 5.94 4.423 6.97 5.71.523.654 1.31 1.6 1.75 2.103 1.184 1.353 1.83 2.785 2.08 4.61.312 2.28 1.407 5.614 2.082 6.34.313.337.753 1 .978 1.474.226.474.862 1.188 1.413 1.587.79.571.918.758.601.88-.643.245-1.652-.118-2.223-.802-1.523-1.826-2.214-2.55-2.326-2.44-.068.069.013.29.182.493.168.202.443.843.61 1.424.24.832.546 1.212 1.446 1.795 1.34.868 1.435 1.11.438 1.11-.942 0-1.909-.425-2.924-1.285-.962-.815-1.104-.831-1.978-.219-.455.318-1.267.51-2.524.598-1.02.07-2.267.303-2.772.517-1.162.491-1.785.492-2.277.001-.5-.499-.495-1.44.01-2.21.381-.58.376-.608-.115-.608-.621 0-.494-.547.343-1.48.304-.338.735-.977.958-1.417l.406-.802h-.992c-.545 0-1.49.133-2.099.296-.61.163-1.182.222-1.272.132-.09-.09.03-.572.268-1.07.544-1.144.82-2.961.412-2.71-.156.097-.285.43-.285.74 0 .311-.334 1.026-.743 1.589-.588.811-.898 1.023-1.49 1.023-.83 0-1.208.558-.814 1.204 1.415 2.322 1.659 3.017 1.399 3.99-.289 1.078-.065 1.26.522.423.57-.81.473-1.685-.356-3.235-.408-.762-.742-1.451-.742-1.53 0-.08.303-.11.672-.067 1.008.117 2.17 1.953 2.17 3.426 0 1.523-.982 2.848-2.29 3.091-.508.094-1.861.487-3.008.873-2.786.938-3.239.915-4.233-.222-.445-.509-1.024-.982-1.288-1.051-.51-.134-2.087-2.121-1.862-2.346.073-.073.69-.198 1.372-.279 1.341-.158 1.213-.236 2.812 1.703.532.645.961.924 1.417.924.749-.001 2.21-.815 2.414-1.344.224-.582-.595-1.674-2.037-2.714-.744-.537-1.598-1.37-1.897-1.85l-.544-.872-.124.863-.124.863-1.235-.067c-.68-.036-2.57-.106-4.202-.155-1.631-.049-3.11-.102-3.287-.119-.564-.051-1.097-1.737-.921-2.908.095-.63.063-1.067-.078-1.067-.13 0-.315.664-.41 1.476-.393 3.381-1.904 4.733-5.808 5.196-1.291.153-2.803.443-3.36.644-1.026.371-2.325 1.387-2.325 1.818 0 .344.275.29.591-.117.15-.194.82-.638 1.485-.986 1.006-.526 1.545-.633 3.185-.633 2.778 0 3.768-.354 5.284-1.89.938-.952 1.34-1.215 1.517-.997.306.378-.853 2.602-1.556 2.987a21.43 21.43 0 00-1.236.763c-.637.423-1.087.484-3.164.429l-2.42-.065-1.137.866c-.956.728-1.337.866-2.393.866-1.151 0-1.333.083-2.16.986-.715.78-1.079.986-1.736.983-.458-.002-.983-.1-1.167-.216zm43.355-5.805c.373-.275.414-.42.183-.653-.232-.235-.434-.21-.935.117-.626.41-.646.89-.037.89.17 0 .525-.16.789-.354zm2.333-5.397c0-.874-1.324-2.88-1.902-2.88-.172 0-.54.444-.817.986-.53 1.038-.444 1.24.259.606.382-.345.491-.32 1.193.269.472.396.773.88.773 1.243 0 .327.11.595.247.595.136 0 .247-.369.247-.819zm-9.648-8.84c-.254-.92-.867-1.632-1.155-1.345-.09.09.107.71.438 1.376.673 1.355 1.095 1.336.717-.032zm68.252 19.275c-.828-.903-1.01-.986-2.16-.986-1.057 0-1.438-.138-2.394-.866l-1.137-.866-2.42.065c-2.077.055-2.527-.006-3.164-.429a21.43 21.43 0 00-1.235-.763c-.704-.385-1.863-2.609-1.557-2.987.177-.218.579.045 1.517.997 1.51 1.53 2.507 1.89 5.243 1.89 2.029 0 3.394.448 4.502 1.478.588.546.8.615.8.258 0-.431-1.3-1.447-2.326-1.818-.556-.201-2.052-.491-3.325-.644-4.115-.496-5.399-1.65-5.846-5.254-.097-.78-.282-1.418-.41-1.418-.136 0-.167.448-.074 1.067.176 1.171-.357 2.857-.92 2.908-.177.017-1.657.07-3.288.119-1.631.049-3.522.119-4.202.155l-1.235.067-.124-.863-.124-.863-.544.873c-.3.48-1.153 1.312-1.897 1.849-1.442 1.04-2.261 2.132-2.037 2.714.203.529 1.666 1.343 2.414 1.344.456 0 .885-.28 1.417-.924 1.6-1.939 1.471-1.861 2.813-1.703.68.08 1.298.206 1.371.28.225.224-1.352 2.21-1.862 2.345-.264.07-.843.542-1.288 1.05-.994 1.138-1.447 1.161-4.233.223-1.147-.386-2.5-.779-3.007-.873-1.31-.243-2.291-1.568-2.291-3.09 0-1.474 1.162-3.31 2.17-3.427.37-.043.672-.013.672.067 0 .079-.334.768-.742 1.53-.829 1.55-.925 2.425-.356 3.235.591.843.81.653.516-.448-.186-.693-.188-1.124-.009-1.418.991-1.623 1.62-3.04 1.495-3.367-.088-.23-.446-.384-.895-.384-.592 0-.901-.212-1.49-1.023-.41-.563-.743-1.278-.743-1.588 0-.311-.129-.644-.285-.74-.408-.252-.132 1.565.412 2.709.237.498.358.98.268 1.07-.09.09-.663.03-1.272-.132-.61-.163-1.554-.296-2.1-.296h-.99l.405.802c.223.44.654 1.079.958 1.418.837.932.964 1.48.343 1.48-.49 0-.496.028-.116.607.506.77.511 1.711.01 2.21-.49.49-1.114.49-2.276-.001-.505-.214-1.753-.447-2.772-.517-1.257-.087-2.07-.28-2.523-.598-.875-.612-1.017-.596-1.98.219-1.014.86-1.98 1.285-2.923 1.285-.997 0-.902-.242.438-1.11.9-.583 1.205-.963 1.445-1.795.168-.581.443-1.222.611-1.424.169-.203.25-.424.182-.492-.112-.112-.803.613-2.326 2.44-.57.683-1.58 1.046-2.223.8-.317-.121-.19-.308.6-.879.552-.399 1.188-1.113 1.414-1.587.225-.474.665-1.137.978-1.473.675-.727 1.77-4.06 2.082-6.341.25-1.825.896-3.257 2.08-4.61a75.7 75.7 0 001.75-2.102c1.03-1.288 5.687-5.104 6.97-5.711 1.39-.659 2.835-.483 4.887.596 1.016.533 2.645 1.207 3.62 1.497 1.29.383 2.066.796 2.845 1.512.89.819 1.318 1.02 2.537 1.191 1.723.243 2.625.67 3.612 1.705.744.78 2.18 1.35 4.09 1.62 1.468.209 3.05.93 4.57 2.086 1.742 1.326 2.709 1.768 4.196 1.921 2.277.235 3.6-1.01 3.27-3.075-.146-.914-.836-1.699-3.435-3.909-2.096-1.783-1.25-4.031 1.693-4.495.69-.11 1.776-.49 2.415-.846l1.162-.648.267.584c.211.462.17.78-.196 1.514-.613 1.232-1.513 1.85-2.927 2.01-1.726.193-1.687.617.215 2.33 2.605 2.346 3.119 3.804 2.064 5.863-.978 1.91-2.45 2.539-5.122 2.185-.743-.099-1.392-.14-1.441-.09-.05.048-.186.858-.305 1.799-.118.94-.355 2.017-.526 2.392-.284.622-.255.73.343 1.244.394.338 1.159.631 1.915.735 1.2.165 1.288.229 1.867 1.368a5.452 5.452 0 001.722 1.96c.613.42 1.115.86 1.115.976 0 .115.378.433.84.705.572.336.896.748 1.015 1.288.206.936-.097 1.215-1.328 1.221-.657.003-1.02-.203-1.735-.983zm-39.209-4.92c.08-.13-.141-.424-.492-.654-.501-.327-.703-.352-.935-.117-.23.233-.19.378.183.653.556.409 1.035.454 1.244.118zm-3.083-5.291c0-.363.3-.847.773-1.243.702-.59.81-.614 1.193-.269.703.635.79.432.259-.606-.278-.542-.645-.986-.817-.986-.578 0-1.902 2.006-1.902 2.88 0 .45.111.819.247.819s.247-.268.247-.595zm10.313-10.405c-.29-.289-.902.414-1.154 1.325-.387 1.396-.014 1.444.682.088.352-.685.564-1.321.472-1.413zm-74.51 21.154c-.244-.155-.242-.419.011-1.29.265-.914.42-1.097.925-1.097.5 0 .596.109.543.616-.095.916-.574 1.974-.892 1.97-.154-.003-.418-.092-.587-.2zm110.448-.476a5.772 5.772 0 01-.34-1.295c-.052-.507.044-.616.544-.616.506 0 .66.183.925 1.096.253.872.255 1.136.01 1.29-.546.347-.859.217-1.14-.475zm-2.118-3.04c-.887-.777-.955-1.22-.186-1.205.56.01 1.53.841 1.53 1.311 0 .703-.462.667-1.344-.106zm-106.371.002c.1-.648 1.232-1.347 1.817-1.123.397.152.37.242-.262.901-.837.871-1.674.99-1.555.222zm28.209-.66a64.11 64.11 0 00-.523-1.125c-.055-.11.432-.165 1.082-.123 1.075.069 1.201.142 1.377.801.231.87-.107 1.371-.929 1.371-.435 0-.692-.236-1.007-.925zm49.392.601c-.165-.198-.194-.603-.075-1.048.175-.659.301-.732 1.376-.801.65-.042 1.137.013 1.082.123-.055.11-.29.616-.523 1.124-.315.69-.572.925-1.007.925-.321 0-.705-.145-.853-.323zm30.732-39.607c-4.828-.785-8.43-3.068-10.066-6.38l-.809-1.64-.07-9.437-.07-9.438h8.42v7.956c0 7.9.004 7.965.587 9.062 1.559 2.939 5.459 3.616 8 1.39 1.733-1.518 1.782-1.804 1.788-10.579l.005-7.829h8.42l-.07 9.432-.07 9.432-.682 1.386c-2.034 4.131-6.276 6.59-11.676 6.765-1.36.044-3.027-.01-3.707-.12zm-110.479-.912c-5.356-.831-9.906-5.159-11.624-11.056-.49-1.678-.384-4.69.245-7.025 1.327-4.922 5.053-8.471 10.267-9.78 2.232-.56 6.666-.367 8.898.386 3.34 1.127 5.86 3.358 7.276 6.445.861 1.877 1.411 4.748 1.324 6.913l-.073 1.82-9.578.064-9.577.065.005.675c.023 2.84 3.81 5.431 6.956 4.758 1.795-.384 2.786-.91 3.78-2.008l.867-.957 3.454 1.517 3.453 1.517-.422.74c-1.34 2.352-4.485 4.607-7.604 5.454-1.462.396-6.235.691-7.647.472zm7.786-17.979c0-1.648-1.892-3.763-3.858-4.312-2.972-.83-6.215 1.129-6.689 4.041l-.146.898H131.67v-.627zm22.985 17.685c-2.438-.816-4.045-1.807-5.829-3.592-2.048-2.052-3.107-4.028-3.676-6.86-1.066-5.31.055-9.51 3.444-12.907 3.063-3.07 5.777-4.184 9.74-4 2.782.128 4.543.686 6.694 2.119.805.536 1.525.914 1.6.839.076-.075.139-4.03.14-8.788 0-4.758.072-9.4.159-10.316l.157-1.664h8.085V64.879h-8.65v-1.357c0-1.474-.168-1.632-.889-.837-2.001 2.207-7.849 3.53-10.975 2.484zm8.35-7.584c4.867-2.42 4.917-9.718.082-12.238-4.94-2.575-10.456 2.428-8.83 8.008 1.168 4.01 5.235 5.976 8.747 4.23zm92.55-14.59l.063-22.379 4.14-.067 4.14-.068V65.372h-8.406l.063-22.378zm14.769-.063V20.493H278.727V65.372H270.324v-22.44zm-73.467 22.01l-9.083-.07V22.427l9.577.1c8.35.086 9.752.155 10.937.54 4.244 1.376 6.305 3.411 7.58 7.484.522 1.668.619 2.376.524 3.85-.142 2.21-1.13 4.485-2.632 6.06-.563.59-1.021 1.138-1.018 1.218.002.08.579.478 1.281.885 2.068 1.198 4.281 3.52 5.2 5.456.729 1.534.803 1.904.79 3.914-.019 2.75-.413 4.45-1.53 6.6-1.55 2.978-4.525 5.179-8.06 5.962-2.186.483-3.464.525-13.566.448zm10.76-7.794c1.072-.45 2.323-1.773 2.695-2.852.424-1.23.367-3.686-.107-4.582-.482-.915-1.54-1.913-2.584-2.438-.93-.467-5.376-.999-6.914-.826l-1.07.12v-7.264l1.792-.152c2.396-.204 3.89-.748 4.897-1.785.751-.774.844-1.026.93-2.54.116-2.065-.465-3.395-1.864-4.263-.862-.534-1.247-.586-4.951-.666l-4.017-.087V57.48h5.199c3.81 0 5.41-.089 5.993-.333zm-106.462 6.559c-.403-.644-2.488-3.931-4.634-7.304l-3.902-6.134v-9.767l1.421-.147c1.814-.189 3.915-.79 4.946-1.415 2.616-1.588 2.749-6.056.244-8.25-1.41-1.236-3.068-1.665-6.487-1.678L89.777 29l-.064 17.693-.063 17.692H81l.063-21.144.063-21.145 8.774-.076c5.976-.051 9.208.016 10.134.21 3.662.769 6.81 3.284 8.616 6.885 3.006 5.991 1.481 11.683-4.12 15.385-.91.6-2.317 1.37-3.128 1.71-.811.339-1.504.711-1.54.827-.037.116 2.712 4.094 6.108 8.841 3.396 4.747 6.174 8.714 6.174 8.816 0 .101-2.307.184-5.128.184h-5.129l-.732-1.171z"/>
</svg>
