<svg xmlns="http://www.w3.org/2000/svg" viewBox="0 0 360 130">
  <g fill="currentColor" fill-rule="nonzero">
    <path d="M120.094 54.1l6.618 16.763 6.403-16.762h6.619l-10.252 25.252h-5.683L113.187 54.1zM141.82 59.568c1.151-2.158 2.698-3.74 4.568-4.676a13.023 13.023 0 015.864-1.403c2.842 0 5.216.756 7.158 2.302 1.943 1.511 3.237 3.274 3.885 5.36.683 2.158 1.043 3.993 1.043 5.504 0 2.554-.575 4.928-1.726 7.158-.864 1.69-2.015 3.058-3.418 4.029-1.403.97-2.734 1.582-3.957 1.834-1.223.216-2.23.36-2.985.36-2.015 0-3.813-.396-5.324-1.151a11.245 11.245 0 01-3.777-3.058 13.044 13.044 0 01-2.266-4.244 15.923 15.923 0 01-.756-4.856c0-2.662.576-5 1.691-7.159zm5.072 10.072c.252.936.612 1.763 1.08 2.446a5.28 5.28 0 001.798 1.655c.72.396 1.547.612 2.482.612h.324c1.007 0 1.834-.252 2.518-.792.755-.611 1.33-1.33 1.798-2.158.432-.827.755-1.69.935-2.59.108-.648.18-1.187.18-1.655 0-.18 0-.36-.036-.503 0-1.907-.395-3.49-1.187-4.784-.791-1.295-1.619-2.087-2.518-2.447-.827-.323-1.439-.467-1.906-.431h-.144c-1.475 0-2.698.54-3.67 1.583a6.896 6.896 0 00-1.618 2.913 12.188 12.188 0 00-.432 3.166c0 1.043.144 2.05.396 2.985zM169.194 59.568c.792-1.654 1.907-2.913 3.346-3.849 1.438-.935 2.77-1.546 4.028-1.834 1.151-.288 2.087-.396 2.806-.396h.216c1.223 0 2.662.252 4.316.756v-9.82h6.44v34.963h-5.936l-.252-1.942c-.611.683-1.403 1.259-2.374 1.763-.971.503-2.122.755-3.453.755-1.727 0-3.273-.36-4.604-1.115a10.54 10.54 0 01-3.346-2.95c-.899-1.223-1.582-2.662-2.05-4.244a17.938 17.938 0 01-.72-5.036c-.035-2.698.504-5.036 1.583-7.05zm5.072 9.928a7.578 7.578 0 001.043 2.518 5.496 5.496 0 001.799 1.727c.72.432 1.583.647 2.554.647.791 0 1.619-.215 2.446-.647.827-.432 1.439-.935 1.798-1.547V59.712c-1.366-.503-2.553-.755-3.525-.755-1.798 0-3.273.575-4.388 1.762-1.08 1.152-1.727 2.303-1.907 3.418-.144.791-.215 1.439-.215 1.906 0 .144 0 .288.035.396 0 1.079.108 2.086.36 3.057zM194.806 68.381a7.995 7.995 0 012.266-2.518 11.37 11.37 0 012.986-1.582c1.043-.36 2.05-.612 2.913-.72.504-.072 2.23-.288 5.252-.647v-.36c0-1.403-.36-2.41-1.08-2.986-.719-.575-1.69-.899-2.985-.899a8.517 8.517 0 00-3.633.827c-1.15.54-2.014 1.08-2.626 1.583l-2.158-4.568c.72-.72 2.086-1.44 4.1-2.087 2.087-.683 3.886-1.007 5.396-1.007 1.62 0 3.022.252 4.209.756 1.187.503 2.194 1.187 2.986 2.086a8.186 8.186 0 011.726 3.094c.36 1.187.54 2.41.54 3.74v16.26h-6.007l-.252-1.907c-.684.755-1.583 1.367-2.662 1.835a9.514 9.514 0 01-3.561.683c-1.08 0-2.122-.18-3.094-.54-1.007-.36-1.87-.899-2.662-1.582a7.81 7.81 0 01-1.87-2.518c-.468-1.007-.72-2.123-.72-3.382.072-1.366.36-2.554.936-3.56zm6.403 5.432c.611.504 1.474.755 2.626.755.827 0 1.654-.18 2.446-.54.79-.359 1.474-.79 2.014-1.33v-5.144c-2.122.252-3.561.432-4.245.54-1.403.287-2.374.755-2.913 1.438-.54.684-.828 1.44-.828 2.23-.036.864.252 1.511.9 2.05zM218.187 54.1h3.345v-1.366c0-2.446.504-4.389 1.511-5.828.971-1.474 2.122-2.338 3.453-2.661 1.26-.324 2.375-.504 3.346-.54 1.582 0 2.877.144 3.92.432 1.044.287 1.655.503 1.835.611l-.755 5.396c-.216-.108-.612-.252-1.223-.432-.612-.18-1.44-.288-2.446-.288-.9 0-1.655.252-2.267.792-.611.54-.935 1.403-.935 2.662v1.187h5.468v5.252h-5.396v20.036h-6.51V59.317h-3.346V54.1zM236.353 59.568c1.15-2.158 2.697-3.74 4.568-4.676a13.023 13.023 0 015.863-1.403c2.842 0 5.216.756 7.158 2.302 1.943 1.511 3.238 3.274 3.885 5.36.684 2.158 1.044 3.993 1.044 5.504 0 2.554-.576 4.928-1.727 7.158-.863 1.69-2.015 3.058-3.417 4.029-1.403.97-2.734 1.582-3.957 1.834-1.223.216-2.23.36-2.986.36-2.014 0-3.813-.396-5.324-1.151a11.245 11.245 0 01-3.777-3.058 13.044 13.044 0 01-2.266-4.244 15.923 15.923 0 01-.755-4.856c.036-2.662.575-5 1.69-7.159zm5.107 10.072c.252.936.612 1.763 1.08 2.446a5.28 5.28 0 001.798 1.655c.72.396 1.547.612 2.482.612h.324c1.007 0 1.834-.252 2.518-.792.755-.611 1.33-1.33 1.798-2.158.468-.827.756-1.69.936-2.59.108-.648.18-1.187.18-1.655 0-.18 0-.36-.036-.503 0-1.907-.396-3.49-1.187-4.784-.792-1.295-1.62-2.087-2.518-2.447-.828-.323-1.44-.467-1.907-.431h-.144c-1.475 0-2.698.54-3.669 1.583a6.896 6.896 0 00-1.619 2.913 12.188 12.188 0 00-.431 3.166c0 1.043.144 2.05.395 2.985zM262.647 54.1h5.9l.324 2.015a11.863 11.863 0 013.417-1.942 11.147 11.147 0 013.849-.684c2.014 0 3.777.468 5.18 1.367 1.438.9 2.446 2.266 3.021 4.029.576 1.762.863 3.633.863 5.575v14.964h-6.51V65c0-1.942-.396-3.417-1.187-4.46-.792-1.044-1.907-1.583-3.382-1.583a5.178 5.178 0 00-2.805.791c-.864.54-1.62 1.115-2.23 1.727v17.913h-6.511V54.101h.071zM289.95 61.08c.611-1.656 1.438-3.022 2.518-4.138a11.268 11.268 0 013.74-2.59c1.404-.611 2.914-.899 4.533-.899 2.842 0 5.144.792 6.942 2.338 1.799 1.583 2.986 3.418 3.49 5.576.54 2.086.791 4.029.791 5.827v1.151h-16.367c.144 2.123.791 3.67 1.979 4.605 1.187.935 2.733 1.403 4.604 1.403 1.655 0 3.13-.252 4.388-.792 1.26-.503 2.123-1.007 2.59-1.475l1.727 5.288c-.756.576-1.51.971-2.194 1.187-.432.216-1.475.468-3.094.792-1.619.36-3.021.54-4.316.54-1.655 0-3.202-.253-4.713-.792-1.51-.54-2.805-1.331-3.92-2.446-1.116-1.115-2.015-2.482-2.662-4.101-.648-1.655-.972-3.597-.972-5.9.036-2.05.324-3.956.936-5.575zm15.395 2.625c-.108-1.439-.503-2.518-1.259-3.31-.72-.755-1.403-1.258-2.086-1.438-.647-.18-1.08-.288-1.33-.288-1.116 0-2.195.432-3.202 1.26-1.008.826-1.583 2.085-1.763 3.776h9.64zM82.83 42.463c-4.599.653-8.16 4.94-8.248 10.163 6.365 1.172 11.172 5.445 11.172 13.071 0 7.36-6.113 13.309-13.754 13.309-7.596.015-13.754-6.662-13.754-15.312 0-11.928 10.594-21.825 23.991-21.513A25.076 25.076 0 0072 40c-13.798 0-25 11.187-25 25s11.202 25 25 25 25-11.187 25-25c0-9.926-5.786-18.501-14.17-22.537z"/>
  </g>
</svg>
