<svg xmlns="http://www.w3.org/2000/svg" viewBox="0 0 360 130">
  <g fill="currentColor" fill-rule="evenodd">
    <path fill-opacity=".25" d="M248.757 37.132c-.07-.264-.14-.527-.14-.79 0-1.58-1.18-2.501-2.151-3.489-1.042-1.053-2.083-1.382-3.75-.724-3.055 1.053-6.04 2.238-8.956 3.489-.417.197-.834.395-.209.855.695.527.14.79-.347.922-.625.132-1.25.132-1.875-.066-.833-.263-1.666 0-2.013.724-.417.987-.903 1.185-1.875.79-.416-.132-.763.132-1.11.263-.209.658.624.46.763.856.347.395.347.658-.208.79-.486 0-.972 0-1.458.066-.139.065-.347.197-.347.197-1.18-1.448-2.57.197-3.888-.132-.695-.131-1.39-.131-1.875-.724-.833-1.25-1.805-2.5-2.43-3.883-.556-1.119-1.528-1.711-2.5-2.238-1.11-.658-2.36-1.185-3.263-2.172-.625-.658-1.736-1.119-2.5-.922-.902.198-1.319-.065-1.874-.526-1.528-1.317-4.027-1.514-5.624-.46-.347.197-.694.526-1.042.197-.347-.33 0-.659.278-.922.139-.132.417-.263.208-.526-1.458-.198-3.055-.724-4.304.263-.833.658-1.875.46-2.778.921-.763.395-1.25-.526-1.805-.921-.555-.395.07-.79.14-1.185.207-.79 1.318-1.185 1.18-1.975-.278-1.448.555-1.316 1.527-1.118-.556-1.12-1.042-2.107-2.43-1.514a6.745 6.745 0 00-1.736 1.053 279.958 279.958 0 00-10.623 9.412c-2.569 2.37-4.652 5.2-7.499 7.306-1.25.922-1.805 2.699-3.749 2.699-.07 0-.208.197-.208.329-.07 1.25-.486 1.25-1.18.329-.278-.395-.486-.132-.764-.132-.764 0-1.528 0-2.36-.131-1.042-.198-2.014-.132-2.084 1.25-.07.593-.555.856-1.041 1.053-.278.132-.556.198-.833-.065-.209-.198-.07-.395.069-.593.208-.329.625-.592.278-.987-.278-.263-.764-.198-1.111-.066-1.389.724-3.125 0-4.444 1.053-.208.198-.416-.066-.694-.131-1.805-.395-3.263.263-4.374 1.58-.486.592-.833.263-1.25 0-.833-.659-1.458-.659-2.152.263-.209.329-.903 1.448-1.111-.066-.07-.33-.347-.461-.486-.264-.764.79-2.014.527-2.778 1.449-.486.526-1.25.855-1.388-.395-.347-.461-.764-.264-1.18-.264-.903.79-1.736 1.646-3.194.856-.348-.197-1.32-.197-.556.658.139.132.139.33 0 .527-.208.197-.486.131-.625-.066-.277-.46-.486-.198-.833-.066-2.083.592-4.027 1.448-6.11 1.909-.694.132-1.458.46-1.597 1.25-.07.659.486 1.054 1.111 1.317.208.066.347.132.486.263 1.597 1.975 4.097 2.37 6.249 3.423 1.041.46 1.736-.593 2.291-.46.625.197.625 1.513 1.667 1.645.208 0 .416.065.555.197.139.132.417.395.417.527-.348 1.514-.556 3.027-.834 4.541-.208 1.185-.277 1.909.625 2.699.486.395.903.856 1.458 1.185.347.263.486.592.14.921-.348.33-.765.198-.973-.131-.625-1.12-.972-.395-1.388.197-.14.395-.348.724-.14 1.185.209.46-.069.987-.694.987s-.625-.527-.694-.987c-.07-.33.625-.922-.139-.988-.694-.065-.833.527-.694 1.054.208.79-.625.658-.903 1.053.14.131.278.263.347.395.278.329.695.724.14 1.053-.487.329-.764-.198-.973-.527-.07-.131-.139-.263-.208-.329-.625-.658-1.18-1.185-1.736.132-.486.987-1.18 1.909-2.777 1.316-.417-.132-2.43-.658-1.944 1.317.139.46-.278.658-.764.592-.625-.066-1.11.132-1.597.526-.347.264-.625.395-.902-.131-.417-.724-.764-.263-1.32 0-.902.395-1.458 2.435-2.985.658-.139 1.448-.139 1.448-1.389 1.316-.07 0-.208 0-.278.066-.624 1.053-2.013.593-2.846 1.185.555 0 1.041.066 1.041.724 0 .263-.208.395-.486.395-.833-.066-.555-.658-.625-1.053-1.041.658-2.29.526-3.124 1.843-.764 1.185-.764 2.106-.208 3.028.555.921 1.666 1.316 2.777 1.513.347.066.694-.065.833-.46.278-.922.417-.922.903-.066.555.987 1.805 1.053 2.708.329.833-.592 1.527-.395 1.944.46.277.527.763.593.972.132.555-1.119 1.805-1.316 2.707-1.843.764-.46 1.18-.329 1.39.461.138.46.485.593.902.724 1.666.724 2.569-.592 3.68-1.185.069-.79-.695-.46-1.042-.658-.278-.197-.486-.395-.278-.658.14-.197.417-.33.625-.197.625.46 1.25.592 2.014.592.555 0 .277.79.555 1.119.625.131.347-.922 1.042-.724.972-.132 2.083-.066 2.36-1.382.14-.461.625-.659 1.18-.395.556.197.626.526.417.987-.07.197-.277.395-.139.527 1.25-.132 2.222-.856 3.472-.79.764 0 1.666-.066 1.805-1.317.07-.658.833-1.119 1.805-.921.972.131 1.528.724 2.083 1.316.833.922 2.014 2.37 3.055 1.975 1.944-.724 1.667.131 1.805 1.316.07.856.07 1.185-.902 1.12-.208 0-.556.197-.556.328-.347 1.448-1.666 1.646-2.846 2.107-.695.263-1.18.658-1.042 1.448.209 1.25-.486 1.053-1.388.855-.556-.131-1.25-.987-1.667-.329-.486.724.625.987 1.042 1.382.139.132.347.33.555.461.486.33.486.79.14 1.185-.417.46-.904 1.053-.279 1.58.695.526 1.389 1.382 2.5 1.119.764-.198 1.32-.132 1.875.329.347.263.694.526 1.18.395 2.777-.461 5.554-1.12 8.332-1.448 1.319-.132 2.43-1.12 3.749-.922 1.25.132 2.36.263 3.61 0 .486-.132 1.25-.33 1.597.197s-.486.659-.694 1.054c-.07.131-.278.395-.208.46.486 1.448-.764 2.83-.278 4.279.139.46.07.921-.07 1.382-.347 1.514-.208 1.777 1.459 1.711 2.777-.066 5.346-.921 7.498-2.633.347-.329.764-.592 1.25-.724.555-.131 1.041 0 1.597-.065.347-.066.208-1.12.902-.593.556.46-.763.658-.347 1.25 0 .067.07.067.07.132.972 1.251 2.152 2.436 2.846 3.884.417.921 1.32 1.645 2.639 1.645 1.041 0 2.083.264 3.124.461.833.132 1.528-.132 2.083-.79.486-.658 1.111-.855 1.944-.921 1.18-.132 2.291-.461 2.708-1.777.07-.198.208-.461.417-.527 1.319-.197.902-2.106 2.43-2.106 0 0 .07-.33.07-.527 0-.526.416-.592.693-.855.764-.724 2.57-1.12 1.39-2.83-.14-.198-.07-.593.138-.79.347-.33.625-.066.903.131.277.198.833.395.694-.066-.347-1.185-.07-1.843 1.041-2.303.278-.132.07-.461 0-.724-.208-1.12.486-2.04 1.667-2.304 1.041-.198 2.083-.527 3.124-.658 2.222-.264 4.166-1.778 6.457-1.514.972.131 1.875-.198 2.847-.264.694-.065.972-1.053 1.389-.855 1.11.526 1.944-.33 2.916-.395 1.041-.066 2.569-.593 2.638-1.382.07-.856.208-1.91.07-2.699-.348-1.646-.695-3.489-2.43-4.542-.278-.131-.695-.263-.556-.724.208-.46.694-.46.972-.197.833.526 1.389.197 2.083-.263 1.11-.724 2.222-1.778 3.819-1.317.208.066.625-.131.763-.329.834-1.58 2.43-1.711 3.958-1.777.972-.066 1.736-.395 2.569-.856.972-.526 1.597-.987 1.32-2.106 0-.132.069-.263.138-.395 1.32-1.119 2.36-2.567 3.75-3.488 1.804-1.251 2.915-2.83 3.957-4.608.555-.855.833-1.843-.07-2.764-.624-.593-1.041-1.317-1.18-2.172-.07-.33-.208-.659-.625-.659-.486 0-.486.33-.486.659-.07.987-.764.921-1.041.329-.764-1.712-2.5-1.12-3.61-1.12-1.598 0-3.195.988-4.93.922-.486 0-1.042.264-1.111.922-.07.658-.486.855-.972.395-.833-.724-1.528-.461-2.43-.132-1.528.527-3.055.922-4.583 1.382-.278.066-.625.132-.764-.197-.069-.132 0-.46.14-.46 1.11-.462 1.388-1.91 2.985-1.976 1.388-.065 2.638-.987 3.471-2.106.903-1.185 2.083-1.645 3.472-1.909.833-.131 1.25-.658 1.597-1.316.278-.527.486-1.119.764-1.646.763-1.71 1.18-3.356-.278-4.936-.278-.33-.833-.79-.278-1.185.417-.329.764.132 1.111.46.417.33 1.042 1.054 1.389.33.486-1.119 1.874-.46 2.36-1.316.14-.198.625 0 .695.395.07.329.347.46.625.329.416-.132.208-.461.069-.724-.278-.79.07-.856.833-.856 1.042 0 2.153-.197 3.055-.658.764-.395.625-1.712 1.805-2.106.278-.066.486-.593 1.111-.527 1.667-.198 2.5-1.25 2.014-2.435zm-97.204 10.4c.278-.067.416.197.416.46-.069.395-.347.527-.694.592-.278 0-.486-.131-.416-.46 0-.461.347-.593.694-.593zm-19.65 26.327c.279 0 .417.132.417.461 0 .263-.208.395-.486.33-.208 0-.347-.132-.347-.33-.07-.329.14-.46.417-.46zm-5.97 9.084c-.347 0-.556-.198-.556-.527-.07-.329.14-.527.486-.527.347 0 .556.132.556.461 0 .33-.07.593-.486.593zm9.026-.264c-.556 0-.556-.395-.625-.79-.07-.526.347-.526.764-.526.416 0 .625.132.625.592 0 .395-.209.724-.764.724zm8.123-7.24c-1.597.987-1.597.922-.347 2.172.486.46.625.987-.139 1.317-.277.131-.625.131-.625.592 0 .987-.555.658-.972.33-.694-.593-1.11-.462-1.666.197-.486.592-1.11.724-2.014.329-1.458-.527-3.124-1.054-4.651.131-.278.198-.625.198-.972.198-1.39-.132-2.708-.066-3.472 1.382-.208.395-.833.46-.972.132-.764-1.778-2.291-.461-3.402-.79-.347-.132-.972.395-1.18-.264-.14-.658.416-.855.972-.987 1.944-.395 3.402-1.843 5.485-2.106.833-.066 1.527-.987 2.638-.46.417.197.972-.198 1.25-.593.972-1.185 2.291-1.514 3.749-1.909 1.32-.395 2.5-1.316 3.819-1.975.833-.46 1.666-.79 1.666-1.908 0-.264-.139-.988.556-.922.694.066.555.658.624 1.053v.395c.07.856-.763 1.777.417 2.633.486.263-.278.79-.764 1.053zm-1.944-9.807c0-.395.278-.658.764-.724.278 0 .417.197.347.395 0 .46-.208.658-.625.658-.277.066-.486 0-.486-.33zm11.942-13.493c-1.319.131-2.5.46-3.263 1.645-.139.263-.625.527-.833.46-1.597-.591-2.5.396-3.472 1.251-.972.856-1.944.79-2.777-.131-.278-.33-.694-.527-1.18-.33-.208.264 0 .396.139.593.208.198.416.46.208.724-.208.33-.625.263-.903.132-1.25-.46-2.43-.922-3.54.329-.278.329-1.875-.987-1.875-1.711 0-1.712-.764-1.185-1.597-.527-.695.527-1.528.527-2.36.33-.348-.067-.626-.264-.626-.66 0-.46.347-.526.695-.526.624.066 1.11-.197 1.527-.592.625-.527 1.458-.658 2.291-.79 1.875-.263 3.819-.263 5.416-1.514a.538.538 0 01.278-.131c2.707.987 5.346-1.185 8.054-.264.555.198.694.132.694-.395-.417 0-.903.132-.833-.526 0-.263.07-.46.347-.46.764.065.417.591.486.986 1.875-.79 3.333-.329 3.819 1.251.07.46 0 .79-.695.856zm4.513-.461c-.624.526-.694-.395-1.11-.527-.14-.065-.417-.131-.556-.065-.625.263-1.25.394-1.597-.33-.416-.79.694-.658.903-1.184-.556-.066-1.458.263-1.18-.79.069-.33.416-.527.763-.46.625.13.625.591.625 1.052.347-.131.764-.197 1.111-.329.07-.263.07-.592-.278-.658-1.388-.33-.694-1.382-.833-2.106-.07-.33.208-.461.556-.461.347 0 .624.132.555.46-.139.79.417 1.515.347 2.239.417 0 .833.065.694.592-.069.329-.208.724-.069 1.053.208.527.486 1.119.07 1.514zm4.236-4.081c-.347-.197-.209-.658 0-.658.902.066.139-1.843 1.527-1.185.278.198.278.395 0 .527-.347.263-.625.592-.694 1.119-.07.395-.556.395-.833.197zm4.513 39.492c-.695.066-1.32.198-2.014.33-.763 0-1.527-.132-1.736-.922-.277-.922 1.042-.987 1.18-1.777.973.658 1.945.724 2.917 0 .417.526.972.987.903 1.645-.07.724-.695.658-1.25.724zm53.6-23.827c.07-.526.348-1.053 1.042-1.119.695 0 .764.527.833.922.07.592-.416.724-1.041.724-.278-.066-.903.132-.833-.527zm-6.387-27.315c.278-.198.556 0 .764.197 1.18 1.185 2.222 2.37 3.055 3.818.139.329.139.856-.208.79-1.111-.132-1.806.987-2.847.855-.486-.065-.625-.526-.625-.987v-1.843c.07-.526-.07-1.382-.278-2.238 0-.131.07-.46.14-.592zm-1.944 19.812c.278 0 .625 0 .625.395 0 .263-.208.395-.486.395s-.625-.066-.625-.395c0-.264.208-.395.486-.395zm-1.389-19.088c1.111 0 .486.987.764 1.514.278.526-.07.921-.694.921-.972.066-.903-.79-1.111-1.316-.139-.724.486-1.12 1.041-1.12zm-11.942-6.714c.278 0 .417.132.486.395 0 .33-.139.527-.486.592-.347 0-.555-.131-.555-.46.07-.33.277-.527.555-.527zm-4.513 1.646c.278 0 .625.065.556.46-.07.395-.348.659-.764.659-.347 0-.486-.198-.486-.527-.139-.527.278-.658.694-.592zm-1.597-1.12c.278 0 .417.132.486.396 0 .263-.139.395-.416.395-.278 0-.417-.198-.417-.461 0-.198.139-.263.347-.33zm-2.708 2.37c.07-.46.417-.724.903-.724.347 0 .486.198.486.527-.07.46-.278.79-.833.79-.486.065-.625-.198-.556-.593zm-14.51 23.367c.763-.33 1.388-.856 2.082-1.251.209-.132.556-.066.556.395 0 .526-1.875 1.843-2.43 1.711-.486-.197-.486-.724-.209-.855zm-2.778 2.567c-.347.065-.625-.132-.625-.461 0-.856.694-.593 1.111-.658v-.264c0-.46-.07-1.053.555-1.25.348-.132.695 0 .695.263.139.592.416 1.25-.07 1.645-.416.395-.833-.263-1.25-.394.07.46.348.987-.416 1.119zm.486-8.162c.694.197 1.389.46 1.528 1.25.069.33-.278.659-.486.461-.695-.658-2.083.46-2.292-.79-.139-.592.625-.79 1.25-.921zm-2.777 5.726c.486-.066.764.263.694.658-.07.527-.486.724-.903.856-.486-.066-.763-.263-.763-.658.139-.395.416-.79.972-.856zm-.833 27.25c.486-.987 1.18-1.909 2.152-2.567.278-.198.625-.198.764.066.208.526.277 1.119 1.11.526.209-.197.626.066.764.461.07.263.07.658-.208.724-.833.132-.417.921-.903 1.25-.624.659-.902 1.58-2.221 1.383-1.32-.198-1.944-.658-1.458-1.843zm9.72 12.9c-.417.461-.833.988-1.32 1.251-2.152.988-3.957 2.436-6.179 3.291a.791.791 0 01-.347.066c-2.152-.197-3.124-.921-2.013-2.764.694-1.185 1.25-2.502 1.944-3.752.486-.856 1.805-1.053 2.777-.395 1.389.921 2.777 1.777 4.583 1.119.208-.066.486-.066.624.197.209.264.14.659-.069.988zm1.736-43.31c-.209 0-.347-.065-.417-.263-.07-.197 0-.394.208-.394.278-.066.486.065.486.329.07.131-.069.263-.277.329zm.625-4.08c-.348.197-.764.263-1.042.658-.208.33-.555.856-.972.527-.416-.33-.278-.988.139-1.383.555-.46.625-1.382 1.458-1.513.417 0 .625.131.694.395.07.526.209.987-.277 1.316zm17.705 43.441c-1.111 1.975-2.639 3.686-3.889 5.595-1.041 1.58-3.124 2.436-4.651 3.686-1.597 1.317-3.472 1.382-5.347 1.646-1.25.131-1.944-.527-2.29-1.514-.695-1.777-.556-3.818.277-5.398.625-1.184 2.013-2.37 3.819-2.435 2.013-.066 3.68-.46 4.999-2.04.347-.395.902-.79 1.527-.79 1.597.066 3.194-.33 4.721-.46.556.197 1.18-.396 1.528.262.07.659-.417.988-.694 1.448zM184.81 49.177c0-.264.208-.33.416-.264s.347.198.347.395c0 .264-.208.264-.347.264-.347 0-.416-.198-.416-.395zm5.901 34.555c.278 0 .486.132.417.593-.14.46-.695.526-1.18.79-.348.197-.764.46-1.18.197-.14-.066-.14-.395-.14-.46.625-.461 1.25-.988 2.083-1.12zm7.499 5.266c0-.263.139-.395.416-.46.209 0 .348.065.417.328 0 .264-.139.461-.417.461-.208 0-.347-.131-.416-.329zm1.874-.79c-.208 0-.416-.197-.347-.329.417-.46.556-1.185 1.32-1.25.277-.066.347.263.277.526-.208.527-.555.987-1.25 1.053zm.903-37.912c-.417 0-.694-.198-.694-.659 0-.46.208-.79.972-.79.277 0 .486.198.486.659-.07.46-.209.79-.764.79zm1.11-13.625c-.277.197-.624.066-.971 0a13.22 13.22 0 01-3.541-.856c-1.458-.526-3.68.79-4.583 2.436-.624 1.118-1.874 1.58-2.36 2.83-.209.592-1.18 1.185-1.944.131-.14-.197-.556-.263-.834-.197-1.944.46-4.027 0-5.901.921-.347.198-.764.264-1.111.066-.556-.263-.972-.197-1.458.264-.278.329-.694.46-.972 0-.208-.33-.07-.659.278-.79 1.041-.461 1.596-1.58 2.916-1.712.972-.131.763-1.184 1.11-1.777.348-.658.348-1.316 1.528-1.119.764.132 1.458-.921 1.944-1.514.556-.658 1.666-.724 2.014-1.645.07-.198.694-.066 1.041.197.903.659 1.875 1.383 2.847 0 .278-.395.902-.263 1.388-.197.348.066.625.197.972.263 1.18.198 1.32-1.448 2.014-1.316.972.197 1.666.395 2.291-.395.209-.132.417-.263.556-.395.208-.198.347-.46.694-.33.208.067.278.264.208.462-.139.46-.555.329-.833.329.07.395-.208.921.556.855.555-.065 1.25-.065 1.666-.395 2.291-1.908 4.443-.263 6.665.198.278.066.417.197.417.46 0 .264-.208.396-.486.461-2.291.33-4.305 1.383-6.11 2.765zm19.303 44.1c.694.921.07 1.645-.625 2.303-.347.33-.833.658-1.32.856-1.735.658-3.47 1.25-5.207 1.909-1.388-.198-2.569.395-3.818.79-1.389.394-2.847.526-4.166.987-.347.132-.764.197-1.042-.198-.277-.46-.555-1.184-.139-1.382 1.667-.855.695-2.172.556-3.093-.208-1.448 1.11-1.58 1.597-2.37.416-.592.972-.066 1.527.198.486.263 1.111.263 1.528.658.486.46 1.18 1.185 1.458-.264.07-.263.347-.263.555-.263 1.389-.131 2.778 0 3.958-.921.903-.79 4.513-.066 5.138.79zm4.096-19.483c.903-.198 1.736-.198 2.639-.198 1.25 0 2.29-.329 3.055-1.25.625-.724 1.388-.593 2.083-.066.972.724 1.458.395 1.874-.527.486-1.053 1.111-1.448 2.153-.526.833.724 1.874.855 2.985.987.556.066 1.18.132 1.389.658.277.593-.347.856-.695 1.25-1.041 1.317-2.846 1.778-3.818 3.226-.209.33-1.18.263-1.875.395-.555 0-.972-.33-1.32-.79-.763-.921-1.527-1.843-2.985-1.185-.486.198-.972.066-1.388-.197-1.111-.724-2.292-.593-3.402-.066-.556.263-1.25.197-1.458-.46-.348-.79.069-1.054.763-1.251zm-2.152.329c.486.066.903.131.903.658 0 .592-.487.856-1.042.921-.486.066-.903-.197-.903-.658 0-.592.417-.855 1.042-.921zm1.041 4.607c2.153-.395 4.236-.066 6.388-.395.972-.131 2.014.198 2.014 1.58.138.856-.625 1.185-1.32 1.646-.625.394-1.11 1.382-1.944.131-.277-.395-.694 0-.833.395-.555 1.382-1.18 2.567-3.055 1.514-.07-.066-.347 0-.416.066-1.528 1.711-3.68 2.106-5.833 2.435-2.985.46-5.901 1.514-9.026 1.514-.416 0-.972.263-1.11-.33-.14-.394.208-.789.555-1.118 1.736-1.843 3.471-3.62 5.207-5.463 1.042-1.12 1.875-1.975 3.819-1.777 1.666.329 3.75.197 5.554-.198zm7.36-18.364c-1.041.724-1.875 1.712-3.124 2.172-.764.264-1.25.264-1.736-.46-.278-.461-.625-.856-.903-1.25-.208-.396-.694-.725-.416-1.252.277-.46.833-.131 1.18-.197.555.066.972.066 1.458.527.625.592 1.32-.461 1.597-.988.278-.526.417-.724 1.041-.658.625.066 1.111.263 1.39.856.138.526 0 .921-.487 1.25z"/>
    <path fill-rule="nonzero" d="M160 53.33c0-.198.139-.33.347-.33h4.444c.208 0 .347.132.347.33V71.1c0 .132.07.198.208.198H175.9c.208 0 .347.132.347.33v3.685c0 .198-.139.33-.347.33h-15.553c-.208 0-.347-.132-.347-.33V53.33zm-13.057 22.312c-.208 0-.347-.131-.347-.329V57.542c0-.132-.07-.198-.208-.198h-6.04c-.21 0-.348-.131-.348-.329v-3.686c0-.197.139-.329.347-.329h17.705c.208 0 .347.132.347.33v3.685c0 .198-.139.33-.347.33h-6.04c-.14 0-.209.065-.209.197v17.771c0 .198-.139.33-.347.33h-4.513zM177 63.716c0-3.357.139-4.673.694-6.187 1.25-3.686 4.513-5.529 8.818-5.529 4.444 0 7.43 2.106 8.54 4.87.139.198.07.396-.139.527l-3.749 1.514c-.278.066-.417 0-.486-.197-.972-1.514-2.152-2.37-4.096-2.37-2.014 0-3.333.987-3.82 2.567-.277.79-.416 1.843-.416 4.87 0 2.963.14 4.082.417 4.872.555 1.58 1.805 2.5 3.888 2.5 1.805 0 3.333-.855 3.819-2.369.208-.592.277-1.25.277-2.238 0-.131-.069-.197-.208-.197h-3.263c-.208 0-.347-.132-.347-.33v-3.224c0-.198.139-.33.347-.33h8.262c.208 0 .347.132.347.33v1.843c0 1.974-.208 3.883-.625 5.134-1.18 3.62-4.513 5.66-8.748 5.66-4.235 0-7.568-1.843-8.818-5.529-.555-1.58-.694-2.83-.694-6.187zm21 0c0-3.357.139-4.673.694-6.187 1.25-3.686 4.513-5.529 8.818-5.529 4.444 0 7.43 2.106 8.54 4.87.139.198.07.396-.139.527l-3.749 1.514c-.278.066-.417 0-.486-.197-.972-1.514-2.152-2.37-4.096-2.37-2.014 0-3.333.987-3.82 2.567-.277.79-.416 1.843-.416 4.87 0 2.963.14 4.082.417 4.872.555 1.58 1.805 2.5 3.888 2.5 1.805 0 3.333-.855 3.819-2.369.208-.592.277-1.25.277-2.238 0-.131-.069-.197-.208-.197h-3.263c-.208 0-.347-.132-.347-.33v-3.224c0-.198.139-.33.347-.33h8.262c.208 0 .347.132.347.33v1.843c0 1.974-.208 3.883-.625 5.134-1.18 3.62-4.513 5.66-8.748 5.66-4.235 0-7.568-1.843-8.818-5.529-.555-1.58-.694-2.83-.694-6.187z"/>
  </g>
</svg>
