<svg xmlns="http://www.w3.org/2000/svg" viewBox="0 0 360 130">
  <path fill="currentColor" fill-rule="nonzero" d="M50.255 48.004c-7.146 0-7.341.446-6.995 2.58h2.382c2.232 0 2.73.3 2.73 2.232v23.421c0 3.325-.944 3.674-6.253 3.971-.159.645-.159 1.44 0 1.935h18.646c14.187 0 20.043-6.85 20.043-17.072C80.808 54.453 74.598 48 60.305 48l-10.05.004zm4.316 27.889V50.932h5.113c9.528 0 14.488 5.554 14.488 15.086 0 10.685-5.408 13.409-13.892 13.409-4.617 0-5.707-.495-5.707-3.52l-.002-.014zm48.236-27.542c-2.335 0-2.977.796-4.617 4.617l-9.824 23.273c-1.34 3.17-1.786 3.467-5.607 3.966-.15.645-.15 1.44 0 1.934H96.95c1.239 0 1.587-.796 1.239-2.233h-4.264c-2.73 0-2.73-.743-1.592-3.672l2.035-5.413h12.804l3.125 7.494c.549 1.291 0 1.737-5.407 1.886-.15.654-.15 1.45 0 1.945h16.076c1.292 0 1.592-.796 1.292-2.23h-1.133c-2.53 0-3.078-.442-3.626-1.733l-11.463-26.146c-.796-1.735-1.132-2.566-1.291-3.662l-1.94-.026zm-2.185 6.846l5.41 12.907h-10.57l5.16-12.907zM127.666 49c-2.083 0-2.38.94-2.083 2.229h2.382c2.282 0 2.728.3 2.728 2.087v23.718c0 2.034-.955 2.53-4.918 3.175-.212.647-.212 1.441 0 1.936h15.072c1.486 0 1.628-.796 1.292-2.231h-2.672c-2.087 0-2.582-.348-2.582-2.083V54.256c0-2.084.637-3.025 4.953-3.326.141-.495.141-1.486 0-1.934L127.666 49zm59.598 0l-11.463 23.867-12.458-23.87h-10.02c-2.07 0-2.371 1.08-2.07 2.23 4.917.14 5.218.69 5.059 2.281l-2.035 23.316c-.141 2.087-.601 3.078-6.05 3.378a4.432 4.432 0 000 1.928h16.275c1.398 0 1.592-.796 1.239-2.229h-2.672c-5.253 0-5.253-.496-5.112-2.44l1.592-22.29 13.71 27.084c1.132 0 1.539-.3 2.441-2.088l11.918-25.013 2.229 21.635c.248 2.422-.446 2.972-4.612 3.218l-2.682.141a3.255 3.255 0 000 1.928h17.513c1.393 0 1.54-.796 1.393-2.23-3.821-.495-4.618-.636-4.766-2.228L194.305 53.4c-.145-1.433.154-2.23 4.758-2.53a3.048 3.048 0 000-1.93L187.264 49zm23.719 0c-2.084 0-2.381.94-2.084 2.229h2.38c2.086 0 2.73.3 2.73 2.087V76.04c0 3.225-1.092 3.87-5.906 4.167-.159.647-.106 1.289 0 1.936h24.2c.637-3.078 1.54-5.954 2.582-8.933.512-1.48-.142-2.087-1.486-2.087l-.159.005-1.398 3.076c-2.089 4.467-2.584 4.716-6.263 4.716h-3.184c-1.398 0-2.247-.447-2.247-2.087V54.902c0-3.225.99-3.673 6.198-3.972.141-.495.141-1.486 0-1.933l-15.363.002zm32.155 0c-2.183 0-2.381.94-2.183 2.229h2.37c2.23 0 2.672.3 2.672 2.087V76.24c0 3.322-.956 3.67-6.21 3.968a3.282 3.282 0 000 1.935h27.385c.636-3.078 1.592-6.103 2.582-8.935.478-1.432-.159-2.088-1.486-2.088l-.159.005-1.397 3.075c-2.087 4.465-2.582 4.715-6.263 4.715h-4.263c-3.377 0-3.82-.743-3.82-2.53V67.65h5.206c1.292 0 1.937.448 2.583 4.316a2.1 2.1 0 00.854.169c.33 0 .648-.053.885-.16a108.94 108.94 0 010-9.764c.101-1.54-.442-1.876-1.433-1.876h-.595l-.336 2.53c-.155 1.29-.453 1.786-1.94 1.786h-5.21v-12.75h7.943c2.728 0 3.768.796 4.61 3.82l.656 2.23c.124.018.23.018.341.018 1.327 0 1.823-.832 1.592-2.247-.342-2.123-.637-4.458-.787-6.687l-23.597-.036zm35.529-.151c-2.035.148-2.383 1.091-2.035 2.38h2.381c2.035 0 2.732.301 2.732 2.247v22.927c0 3.025-.994 3.52-5.312 3.82-.149.655-.098 1.398 0 1.946h15.631c1.441 0 1.59-.796 1.441-2.229h-2.528c-2.582 0-3.028-.495-3.028-1.928v-7.288h3.326c3.025 0 3.126.16 4.366 2.388 1.292 2.282 3.078 4.281 4.717 5.714C304.028 82.01 307.055 83 311.67 83c5.27 0 6.51-1.291 6.067-3.025-4.316 0-6.492-.442-13.037-5.714-1.876-1.539-5.609-4.953-5.609-4.953 4.123-1.734 6.705-5.113 6.705-9.27 0-6.793-5.254-11.304-14.788-11.304-6.935 0-9.925 0-12.295.195l-.047-.081zm9.334 2.76h1.695c5.609 0 9.571 2.088 9.571 8.781 0 6.694-3.966 7.495-8.88 7.495h-2.383l-.003-16.276z"/>
</svg>
