<svg xmlns="http://www.w3.org/2000/svg" viewBox="0 0 360 130">
  <path fill="currentColor" fill-rule="nonzero" d="M79.626 62.174c.431 0 .917.054 1.403.109v-6.25c-3.777 0-5.396.815-7.177 3.532h-.108v-2.717H67v22.826h6.744V67.446c0-3.153 1.997-5.272 5.882-5.272zm11.384 3.913c.54-2.174 2.158-4.348 5.396-4.348 3.237 0 4.856 2.174 5.395 4.348h-10.79zm0 4.348h17.536v-2.717c0-6.25-5.072-11.685-12.14-11.685-7.554 0-12.41 5.163-12.41 12.228 0 7.065 4.856 12.229 12.41 12.229 5.395 0 8.633-1.36 11.385-5.219l-5.072-2.663c-1.997 2.174-3.615 2.718-6.313 2.718-2.698 0-4.856-2.174-5.396-4.891zm23.74-5.978h7.015v-7.61h-7.014v7.61zm0 15.217h7.015v-7.609h-7.014v7.609zm32.374-11.413c0 3.804-2.698 5.979-5.396 5.979-3.237 0-5.665-2.175-5.665-5.98 0-3.803 2.428-5.977 5.665-5.977 2.698 0 5.396 2.174 5.396 5.978zm7.014 0c0-7.609-4.856-12.228-10.252-12.228-3.237 0-5.935.815-7.715 2.989h-.108v-2.174h-6.745V90h6.745V77.5h.108c1.78 2.174 4.478 2.99 7.715 2.99 5.396 0 10.252-4.62 10.252-12.23zm20.503 11.413h6.745V56.848h-6.745v12.5c0 2.717-1.888 4.891-4.586 4.891-3.238 0-4.317-1.63-4.317-4.891v-12.5h-6.744v14.674c0 5.978 2.967 8.967 8.255 8.967 2.806 0 5.504-.815 7.284-2.99h.108v2.175zm31.025-11.413c0 3.804-2.698 5.979-5.396 5.979-3.237 0-5.665-2.175-5.665-5.98 0-3.803 2.428-5.977 5.665-5.977 2.698 0 5.396 2.174 5.396 5.978zm7.014 0c0-7.609-4.856-12.228-10.252-12.228-3.237 0-5.935.815-7.715 2.989h-.108V40h-6.745v39.674h6.745V77.5h.108c1.78 2.174 4.478 2.99 7.715 2.99 5.396 0 10.252-4.62 10.252-12.23zm5.125 11.413h6.745V40h-6.745v39.674zm13.22-27.174h6.744v-7.608h-6.745V52.5zm0 27.174h6.744V56.848h-6.745v22.826zm18.884-11.413c0-3.804 2.212-6.522 5.395-6.522 2.968 0 4.317 1.087 5.936 2.718l3.507-4.348c-2.428-2.717-5.126-4.076-9.443-4.076-7.554 0-12.41 5.163-12.41 12.228 0 7.065 4.856 12.229 12.41 12.229 4.317 0 7.015-1.36 10.252-4.62l-4.316-4.348c-1.62 2.174-3.238 3.26-5.936 3.26-2.967 0-5.395-2.717-5.395-6.521zm36.42 0c0 3.804-2.428 5.979-5.666 5.979-2.698 0-5.395-2.175-5.395-5.98 0-3.803 2.697-5.977 5.395-5.977 3.237 0 5.665 2.174 5.665 5.978zm0 11.413h6.744V56.848h-6.745v2.174h-.107c-1.78-2.174-4.479-2.99-7.716-2.99-5.396 0-10.252 4.62-10.252 12.229 0 7.609 4.856 12.228 10.252 12.228 3.237 0 5.935-.815 7.716-2.99h.107v2.175z"/>
</svg>
