<svg xmlns="http://www.w3.org/2000/svg" viewBox="0 0 359 128">
  <path fill="currentColor" fill-rule="evenodd" d="M80.623 75.279c-2.926-3.035-4.538-7.041-4.538-11.288a16.18 16.18 0 014.538-11.284l.084-.084-.02.117a24.427 24.427 0 00-.288 3.833v14.84c0 1.348.097 2.637.288 3.834l.02.117-.084-.085zm2.782-7.63v-7.313c0-.385.306-.699.681-.699h15.827c.376 0 .682.314.682.699v7.314a.694.694 0 01-.682.7H84.086a.694.694 0 01-.68-.7zm19.906 7.598c.193-1.194.29-2.483.29-3.835v-14.84c0-1.348-.097-2.638-.29-3.832l-.018-.117.083.084a16.177 16.177 0 014.54 11.284c0 4.247-1.613 8.253-4.54 11.288l-.083.085.018-.117zM67 64c0-13.807 11.193-25 25-25 13.808 0 25 11.193 25 25s-11.192 25-25 25c-13.807 0-25-11.193-25-25zm2.73 0c0 12.28 9.99 22.27 22.27 22.27s22.27-9.99 22.27-22.27S104.28 41.73 92 41.73 69.73 51.72 69.73 64zm30.867-16.076v8.34c0 .11 0 .291-.488.291H83.893c-.488 0-.488-.174-.488-.291v-8.34a.471.471 0 00-.71-.407c-.207.126-.295.166-.5.292-5.756 3.538-9.116 9.514-9.116 16.182 0 6.67 3.472 12.769 9.114 16.187l.502.305a.472.472 0 00.71-.407V71.72c0-.115 0-.288.488-.288h16.216c.488 0 .488.173.488.288v8.356a.472.472 0 00.71.407c.222-.134.28-.17.499-.305 5.738-3.517 9.117-9.516 9.117-16.187 0-6.668-3.395-12.66-9.115-16.184-.186-.114-.313-.176-.5-.29a.472.472 0 00-.71.406zm59.787 22.442c0-1.902-1.402-3.219-4.354-3.219h-5.902v6.49h6.048c2.467 0 4.208-.88 4.208-3.27zm-1.064-12.879c0-1.855-1.258-3.124-3.144-3.124h-6.048v6.148h5.902c2.13 0 3.29-1.56 3.29-3.024zm9.87 13.806c0 5.563-5.129 9.222-10.306 9.222H142v-33.03h15.481c5.95 0 10.257 2.975 10.257 9.074 0 5.221-4.548 6.782-4.548 6.782 0 .05 6 1.415 6 7.952zm24.932-7.317c0-5.172-2.37-9.368-7.062-9.368-4.693 0-7.015 4.196-7.015 9.368 0 5.22 2.322 9.415 7.015 9.415 4.692 0 7.062-4.195 7.062-9.415zm8.128 0c0 9.709-5.564 17.32-15.19 17.32-9.58 0-15.192-7.611-15.192-17.32 0-9.66 5.612-17.322 15.191-17.322 9.627 0 15.191 7.661 15.191 17.322zm28.03 6.537c0 7.27-6.58 10.783-12.772 10.783-7.16 0-10.836-2.733-13.74-6.196l5.274-5.173c2.226 2.83 5.129 4.246 8.37 4.246 2.66 0 4.451-1.318 4.451-3.27 0-2.098-1.582-2.75-5.903-3.66L214.8 67c-5.207-1.093-9.483-4.05-9.483-9.952 0-6.49 5.273-10.394 12.24-10.394 5.903 0 9.724 2.537 12.046 5.172l-5.127 5.075c-1.598-1.707-4.017-3.074-6.775-3.074-1.886 0-4.014.878-4.014 3.074 0 2 2.216 2.726 5.03 3.318l1.162.244c4.71.99 10.401 2.44 10.401 10.05zm31.078 3.61c-3.386 4.88-6.531 7.173-13.06 7.173-9.292 0-15.29-7.71-15.29-17.516 0-9.319 5.419-17.076 15.385-17.076 5.466 0 9.385 2.146 12.724 7.172l-6.677 4.44c-1.354-2.342-3.096-3.708-6-3.708-3.676 0-7.208 3.286-7.208 9.172 0 6.596 3.822 9.611 7.45 9.611 3.145 0 4.596-1.56 5.951-3.805l6.725 4.538zm30.643 6.392h-8.709V67.49h-10.014v13.026h-8.66v-33.03h8.66v12.148h10.014V47.484h8.709v33.031z"/>
</svg>
