<svg xmlns="http://www.w3.org/2000/svg" viewBox="0 0 360 130">
  <path fill="currentColor" fill-rule="evenodd" d="M150.99 78.946c0 6.639 1.142 7.709 8.28 7.78v2.784h-24.266v-2.783c7.136-.072 8.278-1.142 8.278-7.781v-36.47c-8.207.144-12.99 5.568-13.703 15.487l-2.641-.427.5-17.413h39.397l.498 17.413-2.641.427c-.713-9.92-5.566-15.343-13.702-15.486v36.469zM67 72.882v-9.993h9.992v9.993H67zm29.968 0v-9.993h9.992v9.993h-9.992zm29.968 0v-9.993h9.992v9.993h-9.992zm30.329 0v-9.993h9.99v9.993h-9.99zm32.503-16.173c0 2.318.367 2.745 2.501 2.745 4.39 0 6.069-2.5 6.069-9.117 0-6.434-1.74-9.057-6.008-9.057-1.13 0-1.829.213-2.195.61-.305.366-.367.732-.367 2.013v12.806zm-2.805-12.53c0-1.587-.091-2.167-.457-2.533-.273-.274-.913-.457-1.615-.457h-.396v-.976h7.225c3.355 0 5.702.976 7.501 3.14 1.555 1.86 2.38 4.24 2.38 6.984 0 3.141-1.04 5.855-2.96 7.714-1.706 1.706-3.963 2.5-6.92 2.5h-7.226v-.974h.396c.702 0 1.342-.185 1.615-.457.366-.369.457-.946.457-2.532v-12.41zm25 8.2c.03-3.262-.978-5.214-2.684-5.214-1.706 0-2.773 2.013-2.806 5.213h5.49zm-5.518 1.067c.028 4.452 1.069 6.344 3.473 6.344 1.647 0 2.715-.886 3.781-3.142l.916.487c-1.31 2.655-2.897 3.845-5.182 3.845-3.538 0-5.826-2.929-5.826-7.534 0-4.268 2.318-7.347 5.518-7.347 3.325 0 5.52 2.835 5.674 7.347h-8.354zm19.967 3.965c-1.035 2.379-2.438 3.444-4.42 3.444-1.342 0-2.378-.518-2.957-1.494-.581-.974-.763-1.92-.763-4.207V49.91c0-2.011-.276-2.44-1.555-2.44h-.336v-.944l4.453-.213v9.635c0 1.312.09 1.921.367 2.501.24.611.852 1.006 1.522 1.006 1.036 0 2.012-.67 2.654-1.892.579-1.035.792-2.133.792-3.87v-3.783c0-2.011-.275-2.44-1.555-2.44h-.459v-.944l4.576-.213v10.823c0 2.012.273 2.472 1.555 2.472h.335v.943l-4.21.216V57.41zm9.757-1.403c0 1.251.06 1.799.214 2.379.212.733.793 1.19 1.492 1.19 1.158 0 1.86-1.25 1.86-3.418v-.426h1.007v.58c0 2.988-1.222 4.542-3.63 4.542-1.157 0-2.104-.366-2.652-1.036-.669-.792-.853-1.677-.853-3.811v-8.446h-2.195v-.854c2.652-.64 3.535-1.86 3.904-5.458h.853v5.275h4.117v1.037h-4.117v8.446zm14.545-5.06h-.917c-.516-2.593-1.675-3.844-3.569-3.844-1.31 0-2.283.915-2.283 2.134 0 1.16.608 1.71 2.531 2.32 1.95.638 2.774 1.005 3.445 1.524 1.097.853 1.617 1.92 1.617 3.291 0 2.623-1.891 4.482-4.576 4.482-1.218 0-1.922-.244-3.414-1.128a.754.754 0 00-.334-.12c-.215 0-.397.212-.518.608l-.094.335h-.853V55.4h.853c.397 1.43.702 2.195 1.19 2.833.761 1.038 1.92 1.647 3.17 1.647 1.402 0 2.44-1.066 2.44-2.47 0-.883-.458-1.677-1.25-2.165-.672-.425-.701-.425-2.682-1.098-2.442-.792-3.57-2.101-3.57-4.085 0-2.257 1.676-3.843 4.118-3.843.976 0 2.01.306 2.866.823.183.093.333.154.456.154.185 0 .367-.245.457-.671h.917v4.422zm13.382 6.036c-1.097 2.743-2.652 3.996-5 3.996-3.505 0-5.916-3.05-5.916-7.502 0-4.33 2.562-7.38 6.22-7.38 2.53 0 4.512 1.739 4.512 3.936 0 1.125-.733 1.92-1.738 1.92-.882 0-1.554-.703-1.554-1.648 0-.853.61-1.556 1.432-1.556.122 0 .184 0 .308.093-.458-1.068-1.465-1.678-2.686-1.678-2.347 0-3.536 2.102-3.536 6.313 0 4.299 1.128 6.34 3.445 6.34 1.525 0 2.684-1.034 3.537-3.23l.976.396zm10.946-5.52c0-1.766-.09-2.47-.457-3.019-.335-.608-.884-.914-1.525-.914-1.007 0-1.95.671-2.53 1.83-.548 1.129-.763 2.318-.763 4.42v3.354c0 2.045.274 2.472 1.554 2.472h.488v.943h-6.645v-.943h.486c1.281 0 1.556-.46 1.556-2.472V43.598c0-2.012-.275-2.44-1.556-2.44h-.335v-.945l4.452-.213v9.053c.974-1.978 2.166-2.834 3.934-2.834 1.28 0 2.317.459 2.927 1.312.76 1.067.975 2.043.975 4.696v4.908c0 2.045.276 2.472 1.555 2.472h.336v.943h-4.452v-9.086zm14.262.914c.031-3.261-.973-5.213-2.683-5.213-1.707 0-2.776 2.013-2.802 5.213h5.485zm-5.519 1.068c.034 4.452 1.067 6.344 3.478 6.344 1.645 0 2.712-.886 3.78-3.142l.914.487c-1.309 2.655-2.895 3.845-5.184 3.845-3.536 0-5.822-2.929-5.822-7.534 0-4.268 2.318-7.347 5.52-7.347 3.324 0 5.52 2.835 5.668 7.347h-8.354zm-90.54 32.163c0 1.616.09 2.167.46 2.53.302.275.913.458 1.612.458h.704v.975h-8.354v-.975h.698c.703 0 1.31-.183 1.619-.457.364-.364.457-.915.457-2.531V70.213h-.641c-1.8 0-3.262.973-3.964 2.652-.396.912-.58 1.829-.732 3.475l-.885-.06.153-7.045h15.033l.122 7.045-.915.06c-.579-4.452-1.953-6.127-4.907-6.127h-.46v15.396zm16.063-4.207c.028-3.263-.98-5.217-2.686-5.217-1.707 0-2.773 2.014-2.804 5.217h5.49zm-5.52 1.068c.03 4.45 1.067 6.341 3.474 6.341 1.65 0 2.714-.884 3.781-3.14l.917.487C210.647 88.81 209.061 90 206.776 90c-3.538 0-5.826-2.93-5.826-7.53 0-4.27 2.318-7.349 5.518-7.349 3.324 0 5.52 2.834 5.673 7.35h-8.353zm14.45 3.688c0 2.043.273 2.47 1.555 2.47h.489v.944h-6.65v-.944h.49c1.277 0 1.554-.427 1.554-2.47V72.619c0-2.01-.277-2.437-1.555-2.437h-.334v-.947l4.451-.214v17.137zm11.828-4.756c.03-3.263-.977-5.217-2.685-5.217-1.707 0-2.773 2.014-2.804 5.217h5.49zm-5.518 1.068c.029 4.45 1.066 6.341 3.474 6.341 1.649 0 2.715-.884 3.783-3.14l.915.487C231.41 88.81 229.822 90 227.535 90c-3.538 0-5.822-2.93-5.822-7.53 0-4.27 2.316-7.349 5.516-7.349 3.325 0 5.52 2.834 5.672 7.35h-8.353zm20.06 7.102l-4.39-7.074-1.219 1.067v2.593c0 2.043.272 2.47 1.553 2.47h.58v.944h-6.74v-.944h.49c1.28 0 1.553-.456 1.553-2.47V72.619c0-2.01-.273-2.437-1.553-2.437h-.335v-.947l4.452-.214v13.081l4.116-3.535c.549-.488.883-1.008.883-1.404 0-.458-.396-.672-1.313-.672h-.456v-.944h6.006v.944h-.304c-.885 0-1.28.214-2.532 1.344l-3.351 2.988 3.687 5.886c.917 1.463 1.496 1.92 2.47 1.92h.243v.943h-3.84zm8.807-11.647c-.486 1.098-.702 2.53-.702 4.573 0 4.392 1.038 6.526 3.204 6.526 2.162 0 3.23-2.134 3.23-6.465 0-2.103-.212-3.568-.698-4.634-.521-1.159-1.465-1.83-2.562-1.83-1.008 0-1.985.733-2.472 1.83zm8.693 4.634c0 4.452-2.472 7.441-6.191 7.441-3.69 0-6.16-2.99-6.16-7.408 0-4.545 2.47-7.47 6.25-7.47 3.63 0 6.101 3.017 6.101 7.437zm18.076-1.553c0-1.953-.124-2.96-.397-3.508-.335-.609-.883-.944-1.554-.944-.854 0-1.618.548-2.135 1.525-.518.974-.642 1.737-.642 4.269v3.81c0 2.043.276 2.47 1.555 2.47h.43v.944h-4.546v-8.109c0-2.592-.06-3.202-.427-3.904-.332-.641-.883-1.005-1.585-1.005-.854 0-1.615.548-2.104 1.525-.488 1.005-.61 1.888-.61 4.269v3.81c0 2.074.246 2.47 1.555 2.47h.428v.944h-6.584v-.944h.486c1.25 0 1.555-.488 1.555-2.47v-7.226c0-1.95-.306-2.441-1.555-2.441h-.336v-.944l4.268-.214v2.502c.58-1.555 2.014-2.592 3.569-2.592 1.707 0 2.804.852 3.568 2.776.882-1.893 2.102-2.776 3.781-2.776 1.31 0 2.468.607 3.077 1.615.58.885.764 1.891.764 3.813v5.487c0 2.014.276 2.47 1.555 2.47h.333v.944h-4.449v-8.566z"/>
</svg>
