<svg xmlns="http://www.w3.org/2000/svg" viewBox="0 0 360 130">
  <path fill="currentColor" fill-rule="nonzero" d="M150.502 79.6l5.5 14.1h-1.4l-1.7-4.4h-6.4l-1.7 4.4h-1.4l5.6-14.1h1.5zm1.9 8.6l-2.8-7.2-2.8 7.2h5.6zm6.2-4.7v1.8c.2-.6.7-1.1 1.3-1.5.6-.4 1.3-.6 2-.6s1.3.1 1.8.3c.5.2.9.4 1.2.8.3.3.5.7.6 1.2.1.5.2 1 .2 1.6v6.5h-1.2v-6.3c0-.4 0-.8-.1-1.2-.1-.4-.2-.7-.4-1-.2-.3-.5-.5-.8-.7-.3-.2-.8-.2-1.3-.2s-.9.1-1.3.3c-.4.2-.7.4-1 .7-.3.3-.5.7-.6 1.1-.2.4-.2.9-.2 1.4v5.9h-1.2V83.5h1zm17.3-3.9v14.1h-1.3V79.6h1.3zm9.3 0c.6 0 1.2.1 1.7.2s1 .3 1.4.6c.4.3.7.6 1 1.1.2.4.4 1 .4 1.6 0 .4-.1.7-.2 1.1-.1.3-.3.7-.5.9-.2.3-.5.5-.8.7-.3.2-.6.3-1 .4.9.1 1.6.5 2.2 1.1.5.6.8 1.4.8 2.3 0 .2 0 .5-.1.8 0 .3-.1.6-.2.9-.1.3-.3.6-.5.9-.2.3-.5.5-.9.8-.4.2-.8.4-1.4.5-.5.1-1.2.2-2 .2h-6V79.6h6.1zm0 6.2c.5 0 1-.1 1.4-.2.4-.1.7-.3 1-.5.3-.2.5-.5.6-.8.1-.3.2-.6.2-.9 0-1.8-1.1-2.6-3.2-2.6h-4.6v5h4.6zm0 6.7c.5 0 1 0 1.4-.1.4-.1.8-.2 1.2-.5.3-.2.6-.5.8-.9.2-.4.3-.8.3-1.4 0-.9-.3-1.6-1-2-.6-.5-1.5-.7-2.7-.7h-4.6v5.6h4.6zm9.5-12.9l4.7 12.3 4.8-12.3h2v14.1h-1.3V81.5l-4.9 12.2h-1.3l-4.6-12.2v12.2h-1.3V79.6h1.9zm30.3 2.8c-.3-.4-.6-.8-1-1.1-.4-.3-.8-.5-1.3-.7-.5-.1-1-.2-1.5-.2-.9 0-1.7.2-2.4.5-.7.4-1.2.8-1.6 1.4-.4.6-.7 1.2-.9 2-.2.7-.3 1.5-.3 2.3 0 .8.1 1.5.3 2.3.2.7.5 1.4.9 2 .4.6 1 1.1 1.6 1.4.7.3 1.5.5 2.4.5.7 0 1.3-.1 1.8-.4.5-.2 1-.6 1.4-1 .4-.4.7-.9.9-1.4.2-.5.4-1.1.4-1.8h1.3c-.1.9-.3 1.7-.6 2.3-.3.7-.7 1.3-1.2 1.8s-1.1.9-1.8 1.1c-.7.3-1.4.4-2.3.4-1.1 0-2.1-.2-2.9-.6-.8-.4-1.5-.9-2.1-1.6-.5-.7-1-1.4-1.2-2.3-.3-.9-.4-1.8-.4-2.8 0-1 .1-1.9.4-2.8.3-.9.7-1.7 1.2-2.3.6-.7 1.2-1.2 2.1-1.6.8-.4 1.8-.6 2.9-.6.7 0 1.3.1 2 .3.6.2 1.2.5 1.7.9s1 .9 1.3 1.4c.3.6.6 1.2.7 2h-1.3c-.1-.5-.3-.9-.5-1.4zm10.6 1.3c.6.3 1.1.7 1.5 1.2.4.5.7 1.1.9 1.7.2.6.3 1.3.3 2.1 0 .7-.1 1.4-.3 2.1-.2.6-.5 1.2-.9 1.7s-.9.9-1.5 1.2c-.6.3-1.3.4-2.1.4s-1.5-.1-2.1-.4c-.6-.3-1.1-.7-1.5-1.2-.4-.5-.7-1.1-.9-1.7-.2-.7-.3-1.3-.3-2.1 0-.7.1-1.4.3-2.1.2-.7.5-1.2.9-1.7s.9-.9 1.5-1.2c.6-.3 1.3-.4 2.1-.4.9-.1 1.5.1 2.1.4zm-3.6.9c-.4.2-.8.6-1.1 1-.3.4-.5.9-.7 1.4-.2.5-.2 1.1-.2 1.6s.1 1.1.2 1.6c.2.5.4 1 .7 1.4.3.4.7.7 1.1 1 .5.2 1 .4 1.6.4.6 0 1.1-.1 1.6-.4.4-.2.8-.6 1.1-1 .3-.4.5-.9.7-1.4.2-.5.2-1 .2-1.6 0-.5-.1-1.1-.2-1.6s-.4-1-.7-1.4c-.3-.4-.7-.7-1.1-1-.4-.2-1-.4-1.6-.4-.6.1-1.1.2-1.6.4zm9.8-1.1v1.7h.1c.3-.6.8-1.1 1.3-1.5.5-.4 1.2-.5 2-.5.7 0 1.3.2 1.8.5s.9.8 1.1 1.5c.3-.7.7-1.2 1.3-1.5.6-.3 1.2-.5 1.9-.5 2.2 0 3.4 1.2 3.4 3.6v6.9h-1.2v-6.8c0-.8-.2-1.5-.5-1.9-.4-.4-1-.7-1.9-.7-.5 0-1 .1-1.3.3-.4.2-.6.5-.9.8-.2.3-.4.7-.4 1.2-.1.4-.1.9-.1 1.4v5.8h-1.4v-6.9c0-.3 0-.7-.1-1-.1-.3-.2-.6-.4-.8-.2-.2-.4-.4-.7-.5-.3-.1-.6-.2-1-.2-.5 0-1 .1-1.4.3-.4.2-.7.5-.9.8-.2.3-.4.7-.5 1.2-.1.5-.2 1-.2 1.5v5.7h-1.2V83.5h1.2zm16.8 0v1.9c.3-.7.8-1.3 1.4-1.6.7-.4 1.4-.6 2.2-.6.8 0 1.4.1 2 .4.6.3 1.1.7 1.4 1.2.4.5.7 1.1.8 1.7.2.6.3 1.3.3 2.1 0 .7-.1 1.4-.3 2.1-.2.7-.5 1.2-.8 1.7-.4.5-.9.9-1.4 1.2-.6.3-1.2.4-2 .4-.4 0-.7 0-1.1-.1-.4-.1-.7-.2-1-.4-.3-.2-.6-.4-.8-.7-.2-.3-.4-.6-.6-1v5.7h-1.2v-14h1.1zm6.8 3.5c-.1-.5-.3-1-.6-1.4-.3-.4-.6-.7-1-1-.4-.3-.9-.4-1.5-.4-.7 0-1.3.1-1.7.4-.5.2-.8.5-1.1.9-.3.4-.5.9-.6 1.4-.1.5-.2 1.1-.2 1.7 0 .5.1 1 .2 1.6.1.5.3 1 .6 1.4.3.4.7.7 1.1 1 .4.3 1 .4 1.7.4.6 0 1.1-.1 1.5-.4.4-.3.8-.6 1-1 .3-.4.5-.9.6-1.4.1-.5.2-1 .2-1.6 0-.5-.1-1-.2-1.6zm4-1.9c.2-.4.5-.8.9-1.1.4-.3.8-.5 1.3-.6.5-.1 1-.2 1.6-.2.4 0 .9 0 1.3.1s.8.3 1.2.5c.4.2.6.6.9 1 .2.4.3 1 .3 1.7v5.4c0 .5.2.8.7.8.1 0 .3 0 .4-.1v1c-.1 0-.3 0-.4.1h-.4c-.3 0-.6 0-.8-.1-.2-.1-.3-.2-.4-.4-.1-.2-.2-.3-.2-.6v-.7c-.2.3-.5.6-.7.9-.2.3-.5.5-.8.6-.3.2-.6.3-1 .4-.4.1-.8.1-1.3.1s-.9-.1-1.3-.2-.8-.3-1.1-.5c-.3-.2-.6-.5-.7-.9-.2-.4-.3-.8-.3-1.3 0-.7.2-1.3.5-1.7.3-.4.7-.7 1.3-.9.5-.2 1.1-.4 1.7-.4.7-.1 1.3-.2 2-.2.3 0 .5-.1.7-.1.2 0 .4-.1.5-.2.1-.1.2-.2.3-.4.1-.2.1-.4.1-.7 0-.4-.1-.8-.2-1-.1-.3-.3-.5-.6-.6-.2-.2-.5-.3-.8-.3-.3-.1-.7-.1-1-.1-.8 0-1.4.2-1.9.6-.5.4-.8 1-.8 1.8h-1.4c.1-.7.2-1.3.4-1.7zm6.2 3c-.1.1-.2.3-.5.3-.2.1-.4.1-.6.1-.5.1-1.1.2-1.6.2-.6.1-1.1.2-1.5.3-.5.1-.8.4-1.1.6-.3.3-.4.7-.4 1.2 0 .3.1.6.2.8.1.2.3.5.5.6.2.2.5.3.7.4.3.1.6.1.8.1.5 0 .9-.1 1.4-.2.4-.1.8-.4 1.1-.6.3-.3.6-.6.8-1 .2-.4.3-.8.3-1.3l-.1-1.5zm5.4-4.6v1.8c.2-.6.7-1.1 1.3-1.5.6-.4 1.3-.6 2-.6s1.3.1 1.8.3c.5.2.9.4 1.2.8.3.3.5.7.6 1.2.1.5.2 1 .2 1.6v6.5h-1.2v-6.3c0-.4 0-.8-.1-1.2-.1-.4-.2-.7-.4-1-.2-.3-.5-.5-.8-.7-.3-.2-.8-.2-1.3-.2s-.9.1-1.3.3c-.4.2-.7.4-1 .7-.3.3-.5.7-.6 1.1-.1.4-.2.9-.2 1.4v5.9h-1.2V83.5h1zm9.9 0l3.4 8.7 3.1-8.7h1.2l-4.4 11.7c-.2.4-.4.8-.5 1.1-.2.3-.3.5-.5.7-.2.2-.4.3-.7.4-.3.1-.6.1-1 .1h-.6c-.1 0-.3 0-.4-.1v-1c.1 0 .3.1.4.1h.4c.3 0 .5 0 .7-.1.2-.1.3-.2.5-.3.1-.1.2-.3.3-.5.1-.2.2-.4.3-.7l.4-1.1-4.1-10.1h1.5v-.2zm-19.1-31.5c0-6.4 2.6-9.6 7.9-9.6 5.3 0 7.9 3.2 7.9 9.6 0 6.2-2.6 9.3-7.9 9.3-5.3 0-7.9-3.1-7.9-9.3zm7.8-13.8c-4.8 0-9 1.1-12.6 3.2-4.3 2.5-6.5 6-6.5 10.6 0 4.4 2.2 7.9 6.6 10.4 3.6 2 7.8 3 12.5 3 4.8 0 9-1 12.5-3.1 4.4-2.6 6.6-6 6.6-10.3 0-4.5-2.2-8-6.5-10.6-3.6-2.1-7.8-3.2-12.6-3.2zm-21.8 15.5h-8.1V58c0 1.9-1.3 2.8-3.8 2.8-2 0-3-.9-3-2.6V43.3h13.8v-3.5h-13.8V33h-5.5c-.5 2.5-1.3 4.2-2.3 5.2-1.3 1.2-3.4 1.9-6.3 1.9v3.3h3.6V56c0 6 4.5 9 13.4 9 3 0 5.5-.4 7.6-1.2 3-1 4.4-2.8 4.4-5.4v-4.7zm-32.4-14.7c-1.2-.2-2.6-.3-4.3-.3-5.7 0-10 1.8-13 5.3h-.1v-5.2l-16.2 1.2v3.4h3.2c1.7 0 2.5.9 2.5 2.6v12.2c0 1.8-.8 2.6-2.5 2.6h-3.3v3.4h22.3v-3.4h-3.5c-1.6 0-2.5-.9-2.5-2.6v-3.5c0-3.1.4-5.3 1.1-6.8 1.1-2 3-3 5.8-3 1.7 0 2.5.6 2.5 1.9v3.6h7.9V39h.1zm-35.7 12.8c0-4.4-2.2-8-6.5-10.5-3.6-2-7.7-3-12.5-3-4.7 0-8.9 1.1-12.6 3.2-4.3 2.5-6.5 6-6.5 10.6 0 4.3 2.3 7.8 6.8 10.4 3.6 2 7.8 3 12.6 3 3.9 0 7.4-.6 10.4-1.7 3.8-1.4 6.5-3.6 8.1-6.6h-10.7c-.6 1.4-1.6 2.4-3.2 3.2-1.4.6-2.9.9-4.6.9-5 0-7.7-2.7-8.1-8h26.8v-1.5zm-26.7-1.9c.4-5 3-7.5 7.8-7.5s7.4 2.5 7.8 7.5h-15.6zm-34.6 11c-5.7 0-8.5-3-8.5-8.9 0-2.8.8-5 2.3-6.6 1.5-1.7 3.6-2.5 6.3-2.5 2.7 0 4.7.9 6.1 2.6 1.3 1.6 2 3.8 2 6.5s-.7 4.8-2 6.4c-1.5 1.7-3.5 2.5-6.2 2.5zm4.9-22.4c-5.8 0-10.2 1.6-13.2 4.8h-.2v-4.6c-3.5.2-6.6.4-9.3.5-2.7.1-5 .3-6.8.4v3.6h3.2c1.6 0 2.4.7 2.4 2.2v21.9c0 1.8-.8 2.6-2.4 2.6h-3.2v3.5h21.9V70h-3.3c-1.7 0-2.5-.9-2.5-2.6v-6.2h.3c1.1 1.2 3 2.3 5.4 3.1 1.1.3 2.2.6 3.2.8 1 .2 2.1.3 3.1.3 4.7 0 8.5-1.1 11.3-3.3 3-2.5 4.5-6 4.5-10.6 0-4.2-1.4-7.5-4.1-9.7-2.5-2.2-5.9-3.3-10.3-3.3zM87.602 55c0 1.8-1.2 3.3-3.5 4.7-2 1.1-4 1.7-6 1.7-3.8 0-5.7-1.2-5.7-3.6 0-1.9 1.4-3.2 4.1-3.9 1.3-.3 3.5-.4 6.4-.4h4.7V55zm13 5.8c-1.7 0-2.5-.9-2.5-2.6V46.9c0-3.5-2.2-5.9-6.6-7.1-2.5-.7-6.1-1-10.8-1-11.5 0-17.3 2.7-17.3 8.1h10.5c0-3 2.3-4.4 6.8-4.4 4.6 0 7 1.7 7 5.1V50h-10c-10.4 0-15.6 2.6-15.7 7.8-.1 5.1 4 7.7 12.1 7.7 2.6 0 5.1-.3 7.4-.9 3.2-.9 5.2-2.2 6-3.9h.2v3.6h15v-3.5h-2.1z"/>
</svg>
