<svg xmlns="http://www.w3.org/2000/svg" viewBox="0 0 360 130">
  <path fill="currentColor" fill-rule="evenodd" d="M180 65.072h-30C150 48.464 163.464 35 180.072 35v30h30c0 16.608-13.464 30.072-30.072 30.072v-30zM180 15c27.614 0 50 22.386 50 50s-22.386 50-50 50-50-22.386-50-50 22.386-50 50-50zm0 81.884c17.61 0 31.884-14.275 31.884-31.884S197.61 33.116 180 33.116 148.116 47.39 148.116 65 162.39 96.884 180 96.884zm-23.215-62.212c-1.057-1.027-2.69-1.337-4.225-.386.293-.76.173-1.534.018-1.961-.661-1.205-.892-1.356-1.437-1.813-1.763-1.479-3.619-.216-4.946 1.365l-6.412 7.639 10.08 8.455 6.762-8.056c1.546-1.84 1.784-3.665.16-5.243zm-9.167-.812c.446-.525 1.454-.503 2.103.034.712.59.714 1.427.235 1.99l-3.806 4.478-2.382-1.973 3.85-4.529zm6.677 5.224l-4.02 4.902-2.521-2.165 4.053-4.942c.457-.558 1.478-.72 2.166-.13.779.669.856 1.684.322 2.335zm27.52-8.142l3.497-9.107v9.107h2.659V17.899h-3.995l-3.632 9.338h.037l-3.633-9.338h-3.994v13.043h2.658v-9.107l3.498 9.107h2.904zm35.46 5.665l-2.18-2.692-7.883 3.385 5.158-6.748-2.031-2.509-8.238 10.595 2.408 2.95 7.782-3.202.027.035-4.75 6.945 2.385 2.967 12.076-5.853-2.031-2.51-7.673 3.643 4.95-7.006z"/>
</svg>
