<svg xmlns="http://www.w3.org/2000/svg" viewBox="0 0 360 130">
  <g fill="currentColor" fill-rule="nonzero">
    <path d="M255.086 43.394a2.705 2.705 0 00-2.714 2.714v21.618c0 5.004 2.912 8.14 7.523 8.14h5.674a2.657 2.657 0 002.642-2.643 2.657 2.657 0 00-2.642-2.643h-5.145c-1.974 0-2.572-.557-2.572-2.308V56.608h7.717c1.446 0 2.642-1.122 2.642-2.572a2.656 2.656 0 00-2.642-2.643h-7.717v-5.285c0-1.508-1.266-2.714-2.766-2.714zm-98.435 7.523c-7.104 0-12.668 5.53-12.668 12.668 0 7.136 5.564 12.756 12.668 12.756 7.1 0 12.65-5.62 12.65-12.756 0-7.138-5.55-12.668-12.65-12.668zm125.409.458c-7.434 0-12.615 5.162-12.615 12.545 0 6.924 5.3 11.945 12.615 11.945 1.963 0 3.86-.571 5.338-1.48.414.982 1.194 1.762 2.326 1.762 1.5 0 2.73-1.208 2.73-2.713V51.375H282.06zm-146.058.018c-6.037 0-12.263 4.53-12.263 12.192s6.224 12.28 12.263 12.28h3.312a2.657 2.657 0 002.643-2.642 2.654 2.654 0 00-2.643-2.643h-2.502c-3.683 0-7.452-2.413-7.452-6.995 0-4.582 3.77-6.977 7.452-6.977h2.502c1.449 0 2.643-1.122 2.643-2.572a2.656 2.656 0 00-2.643-2.643h-3.312zm37.703 0v21.759c0 1.502 1.26 2.713 2.767 2.713a2.708 2.708 0 002.713-2.713V56.608c.953.003 5.074 0 5.074 0 2.849 0 5.092 2.471 5.092 5.568v10.976a2.693 2.693 0 002.695 2.713c1.503 0 2.784-1.211 2.784-2.713V62.176c.003-6.247-4.47-10.783-10.571-10.783h-10.554zm38.32 0c-7.436 0-12.667 5.162-12.667 12.545 0 6.924 5.353 11.927 12.668 11.927 1.787 0 3.358-.398 4.88-.951-.032 6.073-5.202 6.783-7.452 6.783-2.107 0-4.252-.602-6.308-1.163l-.335-.123a2.521 2.521 0 00-1.955.264 2.672 2.672 0 00-1.216 1.621 2.58 2.58 0 00.264 1.973c.347.6.893 1.04 1.55 1.216l.353.07c2.79.93 5.304 1.357 7.787 1.357 7.873 0 12.792-5.164 12.792-13.496V51.393h-10.36zm22.746 0c-4.21 0-7.505 3.199-7.505 7.312 0 4.137 3.365 7.54 7.505 7.54-.162 0 1.169-.018 5.55 0 1.3 0 2.379 1.003 2.379 2.291 0 1.399-1.258 2.044-2.379 2.044h-9.144c-1.449 0-2.625 1.192-2.625 2.643 0 1.45 1.176 2.642 2.625 2.642h9.144c4.257 0 7.594-3.232 7.594-7.329a7.598 7.598 0 00-7.594-7.594c.155 0-1.165.02-5.55 0a2.233 2.233 0 01-2.237-2.237c0-1.196.938-2.097 2.237-2.097h9.268c1.446 0 2.643-1.122 2.643-2.572a2.657 2.657 0 00-2.643-2.643h-9.268zm63.85 0v21.759a2.691 2.691 0 002.696 2.713 2.706 2.706 0 002.713-2.713V56.608c.663.006 1.762 0 1.762 0 2.992 0 4.404 1.41 4.404 4.282a2.693 2.693 0 002.714 2.695c1.5 0 2.766-1.193 2.766-2.695 0-6.02-3.631-9.497-9.884-9.497h-7.17zm-141.97 4.74c4.132 0 6.959 3.055 6.959 7.452 0 4.395-2.827 7.54-6.96 7.54-4.135 0-7.047-3.145-7.047-7.54 0-4.397 2.912-7.452 7.048-7.452zm55.163.475s4.186.003 5.145 0v12.28c-1.26 1.012-2.9 1.692-4.933 1.692-4.387 0-7.17-2.531-7.17-6.449 0-4.706 2.593-7.523 6.958-7.523zm75.179.018V68.5c-1.146 1.182-2.847 2.114-4.88 2.114-4.385 0-7.224-2.548-7.224-6.466 0-4.707 2.611-7.506 6.977-7.506l5.127-.017zM81.656 50.594c.552.587 2.084 1.556 3.559 1.024l14.1-5.181c-9.566-11.79-26.979-15.044-40.524-7.032-14.582 8.62-19.16 27.016-10.223 41.08 8.936 14.07 27.993 18.485 42.57 9.864 4.924-2.912 8.703-6.942 11.212-11.541l-12.338-3.349c-1.334-.37-2.674.302-3.154 1.268L79.983 90.47a1.43 1.43 0 01-1.914.7 1.55 1.55 0 01-.819-.973l-3.227-16.956c-.339-1.797-2.033-2.708-2.968-2.95l-16.658-4.505a1.493 1.493 0 01-.969-.964 1.453 1.453 0 01.936-1.827l14.58-5.384c1.074-.391 1.82-1.69 1.602-2.951L67.8 39.67a1.45 1.45 0 012.49-1.254l11.365 12.178z"/>
  </g>
</svg>
