<svg xmlns="http://www.w3.org/2000/svg" viewBox="0 0 360 130">
  <g fill="currentColor" fill-rule="evenodd">
    <path fill-opacity=".25" d="M74.815 93.748L49.252 68.185a4.272 4.272 0 010-6.043L74.815 36.58a4.273 4.273 0 016.043 0l25.563 25.563a4.272 4.272 0 010 6.043L80.858 93.748a4.273 4.273 0 01-6.043 0"/>
    <path d="M78.28 55.235h-6.068L66.4 62.757h-2.282v-7.57h-4.903v20.092h4.903v-7.882l3.119-.022 4.929 7.928 5.882.07s-7.276-10.56-7.28-10.997c-.004-.519 5.282-6.395 7.512-9.141M92.186 70.788v.005h-6.851v-3.407h6.85v.006a1.698 1.698 0 010 3.396zm-6.851-11.044h5.954v.005a1.476 1.476 0 010 2.952v.005h-5.954v-2.962zm11.322 5.418c-.112-.105-.663-.66-.663-.66s.328-.46.395-.6c2.242-4.791-.032-8.517-5.31-8.674-2.627-.078-7.926-.018-10.556-.033v20.169c3.205-.004 9.079.061 12.274-.099 2.434-.122 4.344-1.438 5.222-3.823.859-2.335.525-4.506-1.362-6.28z"/>
    <g>
      <path d="M136.438 40.865l-6.834 8.893v-8.893H124v21.56h5.604v-9.35l7.291 9.35h7.263l-9.35-11.352 8.55-10.208zM146.645 62.424h5.605V40.865h-5.605zM162.371 50.5h1.058c1.106 0 1.954-.228 2.545-.685.59-.458.886-1.115.886-1.973 0-.858-.295-1.515-.886-1.973-.591-.457-1.44-.686-2.545-.686h-1.058V50.5zm12.324 11.924h-6.977l-5.347-8.292v8.292h-5.604V40.865h8.72c1.202 0 2.25.177 3.146.53.896.352 1.634.833 2.216 1.443a6.102 6.102 0 011.315 2.116c.296.8.444 1.658.444 2.573 0 1.64-.396 2.97-1.187 3.989-.791 1.02-1.958 1.711-3.502 2.073l6.776 8.835zM192.166 48.07c-1.297-1.582-2.898-2.373-4.804-2.373-.839 0-1.616.153-2.33.458-.715.305-1.33.72-1.845 1.244a5.732 5.732 0 00-1.215 1.872 6.146 6.146 0 00-.443 2.345c0 .858.147 1.65.443 2.374a5.764 5.764 0 001.23 1.886 5.745 5.745 0 001.844 1.258 5.695 5.695 0 002.287.458c1.792 0 3.403-.762 4.833-2.287v6.633l-.572.2c-.858.305-1.659.53-2.402.672-.743.143-1.477.215-2.202.215-1.487 0-2.912-.282-4.274-.844a11.166 11.166 0 01-3.603-2.373c-1.04-1.02-1.873-2.23-2.502-3.631-.63-1.401-.944-2.931-.944-4.59 0-1.658.31-3.178.93-4.56a11.346 11.346 0 012.487-3.574c1.039-1.001 2.245-1.782 3.617-2.345a11.284 11.284 0 014.318-.843c.857 0 1.701.09 2.53.271.83.182 1.702.463 2.617.844v6.69zM202.23 49.186h8.092v-8.32h5.604v21.558h-5.604v-8.892h-8.092v8.892h-5.604V40.865h5.604zM232.71 45.612h-6.662v3.602h6.29v4.747h-6.29v3.717h6.662v4.746h-12.266V40.865h12.266zM242.346 50.5h1.058c1.105 0 1.953-.228 2.545-.685.59-.458.886-1.115.886-1.973 0-.858-.296-1.515-.886-1.973-.592-.457-1.44-.686-2.545-.686h-1.058V50.5zm12.323 11.924h-6.976l-5.347-8.292v8.292h-5.604V40.865h8.72c1.201 0 2.25.177 3.146.53.895.352 1.634.833 2.216 1.443a6.103 6.103 0 011.315 2.116c.295.8.443 1.658.443 2.573 0 1.64-.396 2.97-1.187 3.989-.79 1.02-1.958 1.711-3.502 2.073l6.776 8.835zM129.604 84.045h1.23c1.41 0 2.42-.18 3.03-.543.61-.362.916-.943.916-1.744 0-.8-.306-1.382-.915-1.744-.61-.362-1.62-.544-3.031-.544h-1.23v4.575zm0-8.75h1.03c1.753 0 2.63-.695 2.63-2.086 0-1.392-.877-2.088-2.63-2.088h-1.03v4.175zM124 66.833h8.35c1.982 0 3.487.477 4.517 1.43 1.03.953 1.544 2.326 1.544 4.117 0 1.087-.196 1.988-.586 2.702-.391.715-.987 1.32-1.787 1.816.8.153 1.482.386 2.044.7.562.315 1.02.701 1.373 1.158.352.458.604.973.757 1.544.153.572.229 1.183.229 1.83 0 1.011-.176 1.907-.529 2.688a5.46 5.46 0 01-1.487 1.973c-.639.534-1.415.934-2.33 1.201s-1.944.4-3.088.4H124V66.832zM149.39 66.832v11.723c0 .63.024 1.273.072 1.93a5.27 5.27 0 00.429 1.787c.238.534.614.968 1.13 1.302.514.333 1.238.5 2.172.5.934 0 1.654-.167 2.16-.5a3.102 3.102 0 001.128-1.302c.248-.533.396-1.129.444-1.787a26.99 26.99 0 00.071-1.93V66.832h5.576v12.495c0 3.356-.768 5.805-2.302 7.349-1.535 1.544-3.894 2.316-7.077 2.316-3.184 0-5.547-.772-7.091-2.316-1.544-1.544-2.316-3.993-2.316-7.349V66.832h5.604zM172.693 76.468h1.058c1.105 0 1.954-.229 2.545-.686.59-.458.886-1.115.886-1.973 0-.858-.295-1.516-.886-1.973-.591-.458-1.44-.686-2.545-.686h-1.058v5.318zm12.324 11.923h-6.977l-5.347-8.292v8.292h-5.604V66.832h8.72c1.202 0 2.25.177 3.146.53.896.352 1.634.833 2.216 1.443a6.101 6.101 0 011.315 2.116c.296.8.444 1.658.444 2.573 0 1.64-.396 2.97-1.187 3.99s-1.959 1.71-3.503 2.072l6.777 8.835zM192.966 75.725l6.834-8.893h6.919l-8.55 10.208 9.35 11.352h-7.262l-7.291-9.35v9.35h-5.604v-21.56h5.604zM215.611 75.153h8.092v-8.32h5.604V88.39h-5.604V79.5h-8.092v8.892h-5.604V66.832h5.604zM245.548 80.385l-2.516-7.177-2.516 7.177h5.032zm1.487 4.26h-8.006l-1.287 3.747h-5.976l8.206-21.56h6.12l8.206 21.56h-5.977l-1.286-3.746zM262.36 76.468h1.058c1.106 0 1.954-.229 2.545-.686.59-.458.886-1.115.886-1.973 0-.858-.295-1.516-.886-1.973-.591-.458-1.44-.686-2.545-.686h-1.058v5.318zm12.324 11.923h-6.977L262.36 80.1v8.292h-5.604V66.832h8.721c1.2 0 2.25.177 3.145.53.896.352 1.635.833 2.216 1.443a6.102 6.102 0 011.316 2.116c.295.8.443 1.658.443 2.573 0 1.64-.396 2.97-1.187 3.99s-1.958 1.71-3.502 2.072l6.776 8.835zM282.633 83.645h1.286c.972 0 1.84-.152 2.603-.458a5.557 5.557 0 001.93-1.258 5.385 5.385 0 001.2-1.9c.276-.735.415-1.54.415-2.417 0-.858-.143-1.659-.43-2.402a5.53 5.53 0 00-1.214-1.916 5.568 5.568 0 00-1.93-1.258c-.763-.305-1.62-.457-2.574-.457h-1.286v12.066zm-5.604-16.813h8.292c1.467 0 2.844.296 4.131.887a11.268 11.268 0 013.374 2.359c.963.982 1.72 2.125 2.273 3.43.553 1.307.83 2.674.83 4.104 0 1.41-.272 2.77-.815 4.074a10.918 10.918 0 01-2.26 3.446 11.118 11.118 0 01-3.373 2.373c-1.287.591-2.674.886-4.16.886h-8.292V66.832zM307.423 71.579V88.39h-5.604V71.58h-4.603v-4.747h14.81v4.747z"/>
    </g>
  </g>
</svg>
