<svg xmlns="http://www.w3.org/2000/svg" viewBox="0 0 359 128">
  <path d="M173.4 88.8h-4.5v10.8h4.7c2.8 0 4.5-2.1 4.5-5.7s-1.9-5.1-4.7-5.1zm-.2 8.9h-2v-6.9h2c1.7 0 2.5.8 2.5 3.3 0 2.4-1 3.6-2.5 3.6zM269.2 96.2l-4.2-7.4h-2.5v10.8h2.2V92l4.3 7.6h2.3V88.8h-2.1zM254.8 88.8L251 99.6h2.5l.7-2.1h4l.7 2.1h2.5l-3.8-10.8h-2.8zm0 6.7l1.4-4.2 1.3 4.2h-2.7zM245.2 88.8h-2.4v10.8h7.3v-2h-4.9zM237.9 92.9h-4.1v-4.1h-2.3v10.8h2.3v-4.8h4.1v4.8h2.4V88.8h-2.4zM225.1 90.6c1.5 0 2.1.7 2.3 1.8h2.3c-.1-1.9-1.5-3.8-4.6-3.8-2.9 0-5.1 1.8-5.1 5.7 0 3.8 2.2 5.6 5 5.6 3.3 0 4.5-2.4 4.6-4h-2.3c-.2 1.3-1.1 1.9-2.3 1.9-1.4 0-2.6-1-2.6-3.6.2-2.5 1.3-3.6 2.7-3.6zM215.8 93.4l-1.9-.4c-1.5-.4-1.8-.6-1.8-1.3 0-.7.7-1.3 1.9-1.3 1.3 0 2.1.6 2.1 1.6h2.2c-.1-2.2-1.8-3.6-4.2-3.6-2.8 0-4.2 1.5-4.2 3.4 0 1.8 1 2.6 2.9 3.1l1.7.4c1.8.4 1.9.8 1.9 1.3 0 .9-.7 1.4-2.2 1.4-1.4 0-2.1-.5-2.2-1.7h-2.2c0 2.4 1.9 3.6 4.6 3.6 2.9 0 4.3-1.7 4.3-3.5-.1-1.9-1.3-2.6-2.9-3zM199.9 90.8h3.2v8.8h2.4v-8.8h3.2v-2h-8.8zM196.3 95.4c0 1.7-.5 2.5-2 2.5-1.3 0-2-.6-2-2.5v-6.6h-2.4v6.7c0 3.2 1.6 4.4 4.4 4.4 3.1 0 4.4-1.5 4.4-4.4v-6.7h-2.4v6.6zM182.2 94.9h5.2V93h-5.2v-2.2h5.6v-2h-7.9v10.8h8.2v-2h-5.9zM278.3 88.8h-4.5v10.8h4.7c2.8 0 4.5-2.1 4.5-5.7s-1.9-5.1-4.7-5.1zm-.1 8.9h-2v-6.9h2c1.7 0 2.5.8 2.5 3.3 0 2.4-1 3.6-2.5 3.6zM154.5 88.9H146V128h27v-7.2h-18.5zM111.6 96.1h11.6V128h8.6V96.1h11.5v-7.2h-31.7zM110.9 100.1c0-6.3-4.1-11.2-12.8-11.2H78.8V128h8.3v-15.2h2.2l11.6 15.2h10.8l-12.9-15.2c6.5-.7 12.1-5 12.1-12.7zm-23.8 6.1V95.9h9.1c4.5 0 6.2 1.6 6.2 5.4 0 3.4-2.4 4.9-6.4 4.9h-8.9zM281.1 51.6v-7.1h-28.6v39h29.6v-7.2h-21.4v-9.8h18.7v-7h-18.7v-7.9zM187.6 44.5v39h8.4V69.6h7.9c9.6 0 13.7-4.2 13.7-12.7 0-7.9-4.4-12.4-13-12.4h-17zM209.1 57c0 4-2.3 5.7-5.9 5.7H196V51.5h7.3c4.2 0 5.8 2 5.8 5.5zM228.4 69.6h7.9c9.6 0 13.7-4.2 13.7-12.7 0-7.9-4.4-12.4-13-12.4h-17v39h8.4V69.6zm0-18.1h7.3c4.2 0 5.9 2.1 5.9 5.5 0 4-2.3 5.7-5.9 5.7h-7.3V51.5zM183.2 44.5h-8.6v24c0 6.2-1.7 8.9-7 8.9-4.8 0-7.2-2.2-7.2-8.9v-24h-8.6v24.1c0 11.6 5.6 15.9 15.8 15.9 11.1 0 15.7-5.4 15.7-15.9V44.5zM148.4 55.6c0-6.3-4.1-11.1-12.8-11.1h-19.3v39h8.2V68.3h2.2l11.6 15.1H149l-12.9-15.1c6.6-.7 12.3-5 12.3-12.7zm-14.9 6.1h-8.9V51.5h9.1c4.5 0 6.2 1.6 6.2 5.3 0 3.4-2.4 4.9-6.4 4.9zM93.9 84.5c12.1 0 18.4-5.7 18.4-22H96.1v6.7h8.5c-.7 5.4-4.3 8.1-9.5 8.1-6 0-10.6-4.1-10.6-13 0-9.4 4.4-14 10.6-14 4.7 0 8.3 2.6 8.7 6.3h8.4c-.7-7.2-7.3-13.2-16.6-13.2-12.7 0-19.6 8.7-19.6 20.9 0 12.5 7.8 20.2 17.9 20.2zM258 11.7L273.5 39h8.3V0H274v26.8L258.8 0h-8.7v39h7.9zM244.3 31.8H223V22h18.6v-7H223V7.2h20.3V0h-28.6v39h29.6zM198.6 0h8.4v39h-8.4zM192.9 18.5C192.9 5.6 186 0 176 0h-16.2v39h17c10 0 16.1-7.7 16.1-20.5zM168 32V7h7.4c6.2 0 9 2.8 9 12.1 0 8.8-3.6 12.9-9 12.9H168zM154 31.8h-21.4V22h18.7v-7h-18.7V7.2H153V0h-28.6v39H154zM86.7 12.4l8.5 13.2h4.8l8.7-13.2V39h7.9V0h-7.9L97.8 17.1 87.3 0h-8.5v39h7.9z"/>
</svg>
