<svg xmlns="http://www.w3.org/2000/svg" viewBox="0 0 360 130">
  <g fill="currentColor" fill-rule="nonzero">
    <path d="M235.296 80.857c-8.123 0-13.43-4.061-13.43-13.764 0-8.22 4.54-14.577 14.53-14.577 2.15 0 4.874.43 6.691 1.15l-1.53 5.733c-1.622-.572-3.2-1.004-4.971-1.004-5.11 0-7.216 3.346-7.216 8.363 0 4.876 1.911 8.127 6.93 8.127 2.342 0 3.967-.574 5.544-1.195l.812 5.638c-1.386.86-4.3 1.53-7.36 1.53zm-65.567-31.302c2.483 0 4.49-1.913 4.49-4.349 0-2.389-2.007-4.206-4.49-4.206-2.293 0-4.349 1.817-4.349 4.206 0 2.436 2.056 4.35 4.35 4.35zm-3.873 30.824h7.026V52.996c-3.298-.335-7.026.574-7.026 5.735V80.38zm92.045-21.935c-3.15 0-6.164 2.342-6.164 8.363 0 5.21 1.958 8.125 6.07 8.125 3.488 0 6.166-2.82 6.166-8.362 0-5.307-1.913-8.126-6.072-8.126zm-.284 22.509c-7.792 0-13.24-4.251-13.24-13.811 0-8.555 5.734-14.72 14.05-14.72 7.743 0 12.76 4.35 12.76 13.668 0 8.938-5.445 14.863-13.57 14.863zm-140.506-22.08c-1.53-.572-3.872-1.146-5.783-1.146-2.199 0-3.871.574-3.871 2.58 0 4.732 12.139 1.818 12.139 11.566 0 6.595-5.354 9.127-11.375 9.127-2.771 0-5.542-.429-8.076-1.194l.429-5.783s4.014 1.34 7.36 1.34c2.34 0 4.254-.717 4.254-2.773 0-5.066-12.188-1.816-12.188-11.519 0-6.068 5.115-8.555 10.754-8.555 3.345 0 6.022.623 7.645 1.197l-1.288 5.16zm45.543-5.877c-1.527 8.124-5.447 20.931-7.932 27.383h-7.457l-5.256-18.254h-.096l-5.256 18.254h-7.407c-2.391-6.356-6.692-19.593-7.933-27.383h7.024l4.637 18.83h.094l5.544-18.83h7.026l5.4 18.687h.096l4.682-18.687h6.834zm144.092-.574c5.305 0 8.41 2.867 8.41 9.127v18.83h-7.072V62.985c0-2.82-.815-4.684-3.825-4.684-3.01 0-5.64 2.628-5.64 7.359v14.72h-6.927V62.984c0-2.63-.86-4.684-3.874-4.684-3.152 0-5.59 2.915-5.59 7.646V80.38h-7.167V52.996c4.682-.574 6.45 1.337 6.642 4.396 1.72-3.059 4.684-4.97 8.555-4.97 4.921 0 6.88 2.724 7.596 5.305 1.194-2.724 4.255-5.305 8.892-5.305zm-112.598 6.45c-1.574-.571-3.871-1.145-5.78-1.145-2.202 0-3.966.574-3.966 2.58 0 4.732 12.233 1.818 12.233 11.566 0 6.595-5.399 9.127-11.373 9.127-2.775 0-5.546-.429-8.174-1.194l.527-5.783s4.012 1.34 7.359 1.34c2.248 0 4.206-.717 4.206-2.773 0-5.066-12.237-1.816-12.237-11.519 0-6.068 5.162-8.555 10.755-8.555 3.344 0 6.117.623 7.743 1.197l-1.293 5.16zm22.27 0c-1.527-.571-3.869-1.145-5.782-1.145-2.197 0-3.918.574-3.918 2.58 0 4.732 12.188 1.818 12.188 11.566 0 6.595-5.352 9.127-11.374 9.127-2.772 0-5.545-.429-8.077-1.194l.478-5.783s3.965 1.34 7.312 1.34c2.342 0 4.253-.717 4.253-2.773 0-5.066-12.188-1.816-12.188-11.519 0-6.068 5.115-8.555 10.754-8.555 3.345 0 6.069.623 7.647 1.197l-1.292 5.16z"/>
    <path fill-opacity=".25" d="M64.272 44.775c-.936.051-1.861.09-2.674.497-.01-.02.008-.041.017 5.056l13.475 11.49s.301-.478.46-1.588c.23-1.625.28-2.867.17-4.06-.234-2.507-.913-4.497-2.165-6.335-.584-.859-2.162-2.413-3.053-3.007-1.346-.899-3.021-1.602-4.55-1.91a8.6 8.6 0 00-1.68-.143z"/>
    <path d="M61.57 84.74c-8.067-3.38-14.179-9.16-5.012-17.035 3.287 1.97 1.167 7.212 5.071 8.059.063-10.472.12-22.936.07-22.96l-3.783-6.134c.172.216.358.436.551.656-.38-.383-.607-.65-.642-.772-.496-.637-.86-1.23-.934-1.663 0-.07-.056-.31-.123-.533-.266-.877-.078-1.888.49-2.632.287-.376 1.057-.897 1.662-1.123 1.192-.446 2.546-.65 2.627-.396 0 0 .028 8.684.075 10.008 3.95 3.47 10.034 8.555 13.529 11.652l.961.95c2.356 2.329 3.862 4.19 4.85 6.236.89 1.843 1.169 3.157 1.09 5.153-.08 2.067-.666 4.04-1.75 5.894-1.01 1.728-2.966 3.772-4.863 5.084-3.264 2.258-7.7 3.935-12.178 4.604-1.143.17-1.648.203-1.741.11.009-.004.027-2.041.05-5.159z"/>
    <path fill-opacity=".25" d="M56.916 45.089c-.188.012-4.068 2.887-5.766 4.269-5.318 4.327-6.99 7.619-5.766 11.362.622 1.904 1.705 3.198 5.19 6.211 2.622 2.266 4.015 3.657 5.107 5.126.12.162.232.325.346.49.033.049.063.086.098.137l.007.007.085.124c.182.273.347.538.497.798.164.286.314.574.45.876a10.036 10.036 0 01.275.667l.013.039c.04.107.079.218.118.333l.007.026c.04.122.082.247.124.38v.006c.244.794.48 1.754.752 3.027.042.067.058.095.098.157.022.09.042.16.065.255.613 2.533 1.249 4.054 2.053 4.91.065.07.276.207.47.307.196.1.393.171.439.157.104-.033.128-8.692.025-8.962-.636-.057-1.305-.426-1.764-.923-.28-.309-.524-.768-.733-1.353-.005-.015-.014-.031-.02-.046-.01-.036-.02-.08-.032-.118a20.15 20.15 0 01-.444-1.843c-.516-2.552-.874-3.077-3.243-4.76-1.686-1.198-2.438-1.916-2.824-2.7-.266-.539-.281-.624-.281-1.399 0-.687.031-.899.19-1.242.393-.856 1.006-1.284 2.967-2.066 2.1-.837 2.446-1.222 3.4-3.779.878-1.902 1.309-2.038 2.868-2.76.016.003-3.176-5.207-4.77-7.713z"/>
  </g>
</svg>
