<svg xmlns="http://www.w3.org/2000/svg" viewBox="0 0 360 130">
  <path fill="currentColor" fill-rule="nonzero" d="M209.16 80.366h-.007v.003c1.889-6.533 6.183-19.37 9.298-26.868.161-.378.305-.692 1.114-.824.371-.06 1.6-.362 3.309-.362 1.258 0 3.697.096 4.907.788 0 0 .018-.02.018 2.148 0 .94.096 4.126 2.921 4.126 4.795 0 13.461-8.686 21.13-8.686 6.747 0 8.264 4.403 8.264 7.812 0 3.993-3.13 14.742-5.375 21.864-.969 3.081-1.775 5.482-2.098 6.368-.695 1.93-2.019 2.203-3.745 2.203-3.098 0-5.457-.79-6.605-1.755-.225-.202-.514-.633-.323-1.259.355-1.14 1.033-3.184 1.794-5.556l.004-.004c1.694-5.333 3.808-12.305 3.808-14.29 0-1.578-.437-2.757-1.921-2.757-6.246 0-16.158 9.854-22.632 17.06h-.008c-2.821 3.14-4.983 5.77-5.918 6.874-1.001 1.19-2.47 1.435-4.197 1.435-2.114 0-4.39-1.194-4.6-1.309-.678-.368-.695-.779-.5-1.633l.563-2.432c.162-.702.436-1.713.79-2.941l.008-.005zm-8.08.002c-5.745 8.637-13.025 8.57-21.113 8.57-4.406 0-14.205.051-14.335-8.57l.003-.181c0-3.938 3.245-11.155 5.892-18 1.146-2.909 5.957-12.686 22.373-12.686 6.78 0 15.175 1.123 15.175 8.935 0 4.814-4.487 15.38-5.94 18.313a32.167 32.167 0 01-2.05 3.619h-.005zm-36.398-14.683c0 1.188-1.29 4.455-1.485 4.938-1.178 3.064-4.244 3.56-6.424 3.56-3.245 0-4.359-1.234-4.359-3.186 0-1.507 1.195-4.116 1.357-4.5 1.469-3.547 4.083-3.936 6.666-3.936 2.195 0 4.246.966 4.246 3.124zm25.377-6.683c-1.132 0-2.826.187-3.601 1.309-2.873 4.216-4.777 14.76-4.777 17.687 0 2.001 1.323 1.875 3.068 1.875 1.032 0 2.677.028 3.6-.998 2.534-2.79 4.713-15.413 4.713-17.691 0-1.622-.115-2.183-3.003-2.183zm-60.167 21.366l-.013-.005c1.583-.895 2.6-1.951 2.938-2.34 0 0 5.328-.645 8.733-.645 3.326 0 8.2.559 8.2 2.563 0 .137-.016.282-.031.422l-.012.005h.013C148.896 84.27 137.435 90 127.75 90c-10.133 0-19.589-3.9-24.723-9.631h-.007C100.485 77.54 99 74.276 99 70.813 99 53.237 131.026 40 140.373 40c8.41 0 9.555 14.188 9.555 19.375 0 11.08-6.424 13.373-13.576 13.373h-5.004c-5.02 0-15.11-.311-15.11-.311-.806-.018-1.42-.188-1.42.311 0 2.448 1.768 5.741 4.743 7.608l.022.007a9.24 9.24 0 004.971 1.446c2.163 0 3.955-.657 5.327-1.441h.01zm6.994-22.181c0-2.26-.097-5.5-1.759-5.5-5.441 0-14.98 8.802-15.933 9.814-.71.749-.193.689.76.689h12.22c4.325-.002 4.712-.776 4.712-5.003z"/>
</svg>
