<svg xmlns="http://www.w3.org/2000/svg" viewBox="0 0 360 130">
  <path fill="currentColor" fill-rule="evenodd" d="M141.653 76.867l-11.64-28.092h7.83l7.618 19.851 7.297-19.851h7.48l-10.885 27.444L144.043 90h-7.64l5.25-13.133zm37.666-26.842c1.874.844 3.42 2.17 4.647 3.984 1.103 1.599 1.819 3.45 2.147 5.56.19 1.234.259 3.016.23 5.34h-19.6c.113 2.695 1.051 4.593 2.818 5.683 1.074.668 2.37 1.004 3.877 1.004 1.6 0 2.903-.412 3.907-1.233.55-.442 1.03-1.058 1.447-1.852h7.184c-.191 1.6-1.059 3.223-2.605 4.867-2.414 2.613-5.79 3.924-10.123 3.924-3.588 0-6.74-1.104-9.484-3.313-2.734-2.21-4.105-5.798-4.105-10.772 0-4.66 1.234-8.233 3.709-10.725 2.469-2.483 5.682-3.733 9.621-3.733 2.346 0 4.456.427 6.33 1.266zm-10.526 6.078c.996-1.028 2.398-1.538 4.196-1.538 1.66 0 3.054.487 4.175 1.446 1.127.975 1.751 2.393 1.872 4.26H166.92c.257-1.754.883-3.148 1.874-4.168zm44.826-9.658h-15.736v7.732h15.933v6.314h-15.933v9.354h15.957v6.542h-23.393V40h23.172v6.445zm-86.447 0h-15.739v7.732h15.928v6.314h-15.928v9.354h15.96v6.542H104V40h23.172v6.445zm123.778 3.428c1.15.464 2.202 1.271 3.14 2.422.752.936 1.263 2.086 1.53 3.457.16.9.244 2.225.244 3.968l-.047 16.965h-7.213v-17.13c0-1.022-.16-1.867-.487-2.522-.624-1.25-1.782-1.874-3.458-1.874-1.942 0-3.283.808-4.03 2.414-.373.86-.564 1.89-.564 3.093v16.02h-7.082V60.657c0-1.59-.168-2.757-.495-3.48-.595-1.295-1.753-1.95-3.483-1.95-2.003 0-3.35.655-4.044 1.95-.38.746-.572 1.85-.572 3.313v16.194h-7.129V49.826h6.84v3.923c.868-1.402 1.691-2.392 2.467-2.985 1.365-1.059 3.132-1.585 5.302-1.585 2.058 0 3.717.458 4.99 1.363 1.02.838 1.79 1.92 2.323 3.23.922-1.577 2.065-2.735 3.428-3.48 1.447-.739 3.062-1.113 4.836-1.113 1.19 0 2.356.236 3.504.694z"/>
</svg>
