<svg xmlns="http://www.w3.org/2000/svg" viewBox="0 0 360 130">
  <g fill="currentColor" fill-rule="nonzero">
    <path d="M163.975 52.185c-1.787-.995-4.442-1.482-8.12-1.482-5.03.004-9.7 1.064-11.465 1.732-.4.13-.825.48-.835 1.075v.135l.5 2.54.01.05c.155.512.58.75.963.75h.007c.125-.01.22-.035.31-.058l.838-.2c2.192-.55 5.505-1.395 9.2-1.395 2.244 0 3.75.2 4.762.63 1.64.633 1.65 1.71 1.667 3.493v2.668a42.868 42.868 0 00-.992-.008c-1.813 0-5.375.088-8.875.655-5.345.835-9.767 2.133-9.737 9.613 0 9.495 8.674 9.51 12.84 9.52 2.824-.006 5.437-.43 7.144-.786 3.888-.917 4.883-2.17 4.83-6.092V59.233c0-2.41.01-5.405-3.05-7.05l.003.002zm-2.137 24.383c-2.07.682-4.335 1.024-6.735 1.024v.226-.226c-3.835-.03-7.575-.474-7.583-5.437.025-3.95 2.1-4.418 4.725-5.013l.182-.042c2.336-.508 8.206-.6 9.413-.615v10.082h-.002zm48.525-17.338v15.785c.05 3.925-.943 5.175-4.833 6.092-1.7.358-4.313.783-7.143.785-4.165-.01-12.837-.025-12.84-9.517-.032-7.475 4.39-8.775 9.736-9.61 3.5-.57 7.065-.658 8.875-.658.49 0 .805.005 1 .008V59.45c-.02-1.783-.033-2.858-1.67-3.49-1.01-.435-2.52-.63-4.766-.63-3.7 0-7.01.84-9.2 1.395l-.834.2c-.09.025-.188.05-.313.05-.385 0-.808-.23-.965-.75l-.012-.045-.5-2.54v-.133c.01-.595.435-.95.832-1.075 1.77-.667 6.435-1.73 11.468-1.732 3.674 0 6.332.487 8.117 1.485 3.058 1.642 3.05 4.637 3.045 7.045h.002zm-5.175 7.255c-1.215.012-7.075.107-9.415.615l-.188.042c-2.625.595-4.7 1.063-4.725 5.013.005 4.962 3.75 5.41 7.585 5.437v.225-.224c2.4 0 4.665-.343 6.735-1.026V66.486h.007zM288.88 50.7c-12.075.02-13.1 8.075-13.112 15.625.012 7.525 1.035 15.55 13.112 15.567 12.067-.02 13.095-8.025 13.113-15.57-.013-7.9-1.035-15.605-13.113-15.625v.003zm0 26.787c-7.325-.035-7.692-3.85-7.743-11.16.05-7.345.418-11.182 7.74-11.215 7.325.033 7.695 3.87 7.745 11.213-.05 7.31-.42 11.125-7.742 11.162zm-21.675 3.295l-.312.08c-1.688.435-4 1.03-8.055 1.03h-.01c-11.18-.02-13.37-5.742-13.383-15.625.01-11.33 3.55-15.55 13.05-15.565 3.355 0 5.667.443 7.325.85l-.01-9.13c-.012-.4.162-.925 1.095-1.105l2.97-.77h.162c.683.018.926.633.926 1.158v34.3c.044 2.17-.208 4.025-3.758 4.782v-.005zm-1.392-24.84c-.99-.255-3.758-.89-6.875-.89-5.72.058-8.125 1.635-8.18 11.275.067 10.588 3.17 11.163 8.232 11.213v.225-.225c3.15 0 5.855-.668 6.82-.933V55.942h.002zM239.14 81.175h-2.65c-.718 0-1.25-.545-1.25-1.268v-20.35c-.05-3.44-1.067-4.4-4.718-4.45-4.13 0-8.312 1.055-9.69 1.435V79.91c0 .732-.5 1.267-1.192 1.267h-2.712c-.713 0-1.25-.545-1.25-1.265V57.087c-.038-2.11.155-3.57 3.117-4.545 2.833-.992 8.25-1.835 11.838-1.837 6.825.01 9.737 2.512 9.75 8.365v20.845c0 .72-.538 1.265-1.25 1.265l.007-.005zm-60.132.55c1.53-.032 2.654-.335 3.1-.84a.784.784 0 00.207-.588c-.01-.17-.01-.17-.425-2.16l-.013-.05c-.09-.517-.45-.755-.755-.755h-.045s-.382-.007-.762-.007c-1.09-.035-1.992-.2-2.01-1.81V41.7c0-.56-.335-1.138-.975-1.15h-.193l-2.975.775c-.505.05-1.035.417-1.01 1.095v33.2c.008 3.93 2.088 6.1 5.855 6.107v-.002zm-41.996-.55h-21.305c-.712 0-1.25-.545-1.25-1.268v-2.64c-.012-.65.19-.932.585-1.43L132 55.825h-16.618c-.712 0-1.25-.55-1.25-1.27v-1.87c0-.725.54-1.268 1.25-1.268h21.525c.708 0 1.243.545 1.245 1.268v2.695c.013.487-.15.9-.537 1.335l-17 20.055h16.4c.71 0 1.245.545 1.25 1.267v1.875c-.005.718-.54 1.263-1.25 1.263h-.003zM65.87 89.563c-1.807 0-2.812-.43-3.35-.743-.742-.435-2.11-1.542-3.337-4.818C57.215 78.75 56.05 72.335 56 64.8v-.025c.05-7.55 1.215-13.963 3.183-19.218 1.225-3.272 2.592-4.382 3.342-4.815.53-.317 1.533-.742 3.338-.742.69 0 1.5.062 2.44.215 5.465.9 11.517 3.082 17.975 6.807l.02.01c6.404 3.815 11.294 8.043 14.792 12.4 2.182 2.72 2.442 4.475 2.442 5.345 0 .87-.26 2.63-2.442 5.345-3.5 4.358-8.388 8.588-14.793 12.4l-.024.015c-6.45 3.725-12.505 5.908-17.97 6.805-.943.158-1.75.218-2.435.218"/>
  </g>
</svg>
